# MagicaVoxel @ Ephtracy

# group
o 

# material
mtllib newbus2.mtl
usemtl palette

# normals
vn -1 0 0
vn 1 0 0
vn 0 0 1
vn 0 0 -1
vn 0 -1 0
vn 0 1 0

# texcoords
vt 0.00195312 0.5
vt 0.00976562 0.5
vt 0.0136719 0.5
vt 0.0175781 0.5
vt 0.0214844 0.5
vt 0.0371094 0.5
vt 0.107422 0.5
vt 0.158203 0.5

# verts
v -0.5 1.1 -1.1
v -0.5 1.1 -1.3
v -0.5 1.2 -1.1
v -0.5 1.2 -1.3
v -0.4 0 0.9
v -0.4 0 0.6
v -0.4 0 -0.3
v -0.4 0 -0.6
v -0.4 0.1 1.4
v -0.4 0.1 0.9
v -0.4 0.1 0.8
v -0.4 0.1 0.7
v -0.4 0.1 0.6
v -0.4 0.1 -0.3
v -0.4 0.1 -0.4
v -0.4 0.1 -0.5
v -0.4 0.1 -0.6
v -0.4 0.1 -1.3
v -0.4 0.2 1.4
v -0.4 0.2 0.9
v -0.4 0.2 0.8
v -0.4 0.2 0.7
v -0.4 0.2 0.6
v -0.4 0.2 -0.3
v -0.4 0.2 -0.4
v -0.4 0.2 -0.5
v -0.4 0.2 -0.6
v -0.4 0.2 -1.3
v -0.4 0.3 1.4
v -0.4 0.3 0.9
v -0.4 0.3 0.6
v -0.4 0.3 -0.3
v -0.4 0.3 -0.6
v -0.4 0.3 -1.3
v -0.4 0.5 1.4
v -0.4 0.5 -1.1
v -0.4 0.5 -1.3
v -0.4 0.6 1.4
v -0.4 0.6 -1.1
v -0.4 0.7 1.3
v -0.4 0.7 -1.1
v -0.4 0.7 -1.2
v -0.4 0.7 -1.3
v -0.4 1.1 -1.1
v -0.4 1.1 -1.2
v -0.4 1.2 1.3
v -0.4 1.2 -1.1
v -0.4 1.2 -1.2
v -0.4 1.3 1.4
v -0.4 1.3 -1.2
v -0.3 0.2 -1.3
v -0.3 0.2 -1.4
v -0.3 0.3 -1.3
v -0.3 0.3 -1.4
v 0.2 0.5 -1.2
v 0.2 0.5 -1.3
v 0.2 0.6 -1.2
v 0.2 0.6 -1.3
v 0.3 0.2 -1.3
v 0.3 0.2 -1.4
v 0.3 0.3 -1.3
v 0.3 0.3 -1.4
v 0.4 0 0.9
v 0.4 0 0.6
v 0.4 0 -0.3
v 0.4 0 -0.6
v 0.4 0.1 0.9
v 0.4 0.1 0.6
v 0.4 0.1 -0.3
v 0.4 0.1 -0.6
v 0.4 0.4 1.3
v 0.4 0.4 0.5
v 0.4 0.4 0
v 0.4 0.4 -0.7
v 0.4 0.4 -1.1
v 0.4 0.5 1.3
v 0.4 0.5 0.5
v 0.4 0.5 0
v 0.4 0.5 -0.5
v 0.4 0.5 -0.7
v 0.4 0.6 1.3
v 0.4 0.6 0.5
v 0.4 0.6 0
v 0.4 0.6 -0.3
v 0.4 0.6 -1.2
v 0.4 0.6 -1.3
v 0.4 0.7 1.3
v 0.4 0.7 0.5
v 0.4 0.7 0
v 0.4 0.7 -0.3
v 0.4 0.7 -0.5
v 0.4 0.7 -0.7
v 0.4 0.7 -1.2
v 0.4 0.7 -1.3
v 0.4 1.2 1.3
v 0.4 1.2 -1.1
v 0.5 1.1 -1.2
v 0.5 1.1 -1.3
v 0.5 1.2 -1.2
v 0.5 1.2 -1.3
v -0.4 1.1 -1.2
v -0.4 1.1 -1.3
v -0.4 1.2 -1.2
v -0.4 1.2 -1.3
v -0.3 0 0.9
v -0.3 0 0.6
v -0.3 0 -0.3
v -0.3 0 -0.6
v -0.3 0.1 0.9
v -0.3 0.1 0.6
v -0.3 0.1 -0.3
v -0.3 0.1 -0.6
v -0.3 0.4 1.3
v -0.3 0.4 -1.1
v -0.3 0.5 1.3
v -0.3 0.5 -1.1
v -0.3 0.6 1.3
v -0.3 0.6 -1.1
v -0.3 0.6 -1.2
v -0.3 0.6 -1.3
v -0.3 0.7 1.3
v -0.3 0.7 -1.1
v -0.3 0.7 -1.2
v -0.3 0.7 -1.3
v -0.3 1.2 1.3
v -0.3 1.2 -1.1
v -0.2 0.2 -1.3
v -0.2 0.2 -1.4
v -0.2 0.3 -1.3
v -0.2 0.3 -1.4
v -0.1 0.5 -1.2
v -0.1 0.5 -1.3
v -0.1 0.6 -1.2
v -0.1 0.6 -1.3
v 0.4 0.2 -1.3
v 0.4 0.2 -1.4
v 0.4 0.3 -1.3
v 0.4 0.3 -1.4
v 0.5 0 0.9
v 0.5 0 0.6
v 0.5 0 -0.3
v 0.5 0 -0.6
v 0.5 0.1 1.4
v 0.5 0.1 0.9
v 0.5 0.1 0.8
v 0.5 0.1 0.7
v 0.5 0.1 0.6
v 0.5 0.1 -0.3
v 0.5 0.1 -0.4
v 0.5 0.1 -0.5
v 0.5 0.1 -0.6
v 0.5 0.1 -1.3
v 0.5 0.2 1.4
v 0.5 0.2 0.9
v 0.5 0.2 0.8
v 0.5 0.2 0.7
v 0.5 0.2 0.6
v 0.5 0.2 0.5
v 0.5 0.2 0
v 0.5 0.2 -0.3
v 0.5 0.2 -0.4
v 0.5 0.2 -0.5
v 0.5 0.2 -0.6
v 0.5 0.2 -0.7
v 0.5 0.2 -1.1
v 0.5 0.2 -1.3
v 0.5 0.3 1.4
v 0.5 0.3 0.9
v 0.5 0.3 0.6
v 0.5 0.3 0.5
v 0.5 0.3 0
v 0.5 0.3 -0.3
v 0.5 0.3 -0.6
v 0.5 0.3 -0.7
v 0.5 0.3 -1.1
v 0.5 0.3 -1.3
v 0.5 0.5 1.4
v 0.5 0.5 0.5
v 0.5 0.5 0
v 0.5 0.5 -0.5
v 0.5 0.5 -0.7
v 0.5 0.5 -1.1
v 0.5 0.5 -1.3
v 0.5 0.6 1.4
v 0.5 0.6 0.5
v 0.5 0.6 0
v 0.5 0.6 -0.3
v 0.5 0.7 1.3
v 0.5 0.7 0.5
v 0.5 0.7 0
v 0.5 0.7 -0.3
v 0.5 0.7 -0.5
v 0.5 0.7 -0.7
v 0.5 0.7 -1.2
v 0.5 0.7 -1.3
v 0.5 1.1 -1.1
v 0.5 1.1 -1.2
v 0.5 1.2 1.3
v 0.5 1.2 -1.1
v 0.5 1.2 -1.2
v 0.5 1.3 1.4
v 0.5 1.3 -1.2
v 0.6 1.1 -1.1
v 0.6 1.1 -1.3
v 0.6 1.2 -1.1
v 0.6 1.2 -1.3
v -0.4 0.1 1.4
v -0.4 0.2 1.4
v -0.4 0.3 1.4
v -0.4 0.5 1.4
v -0.4 0.6 1.4
v -0.4 1.3 1.4
v -0.3 0.7 1.4
v -0.3 1.2 1.4
v -0.1 0.2 1.4
v -0.1 0.3 1.4
v 0.2 0.2 1.4
v 0.2 0.3 1.4
v 0.4 0.7 1.4
v 0.4 1.2 1.4
v 0.5 0.1 1.4
v 0.5 0.2 1.4
v 0.5 0.3 1.4
v 0.5 0.5 1.4
v 0.5 0.6 1.4
v 0.5 1.3 1.4
v -0.4 0 0.9
v -0.4 0.1 0.9
v -0.3 0 0.9
v -0.3 0.1 0.9
v 0.4 0 0.9
v 0.4 0.1 0.9
v 0.5 0 0.9
v 0.5 0.1 0.9
v -0.4 0 -0.3
v -0.4 0.1 -0.3
v -0.3 0 -0.3
v -0.3 0.1 -0.3
v 0.4 0 -0.3
v 0.4 0.1 -0.3
v 0.5 0 -0.3
v 0.5 0.1 -0.3
v -0.5 1.1 -1.1
v -0.5 1.2 -1.1
v -0.4 1.1 -1.1
v -0.4 1.2 -1.1
v -0.3 0.4 -1.1
v -0.3 0.5 -1.1
v -0.3 0.6 -1.1
v -0.3 0.7 -1.1
v -0.3 1.2 -1.1
v 0.4 0.4 -1.1
v 0.4 1.2 -1.1
v 0.5 1.1 -1.1
v 0.5 1.2 -1.1
v 0.6 1.1 -1.1
v 0.6 1.2 -1.1
v -0.3 0.4 1.3
v -0.3 0.5 1.3
v -0.3 0.6 1.3
v -0.3 0.7 1.3
v -0.3 1.2 1.3
v 0.4 0.4 1.3
v 0.4 0.5 1.3
v 0.4 0.6 1.3
v 0.4 0.7 1.3
v 0.4 1.2 1.3
v -0.4 0 0.6
v -0.4 0.1 0.6
v -0.3 0 0.6
v -0.3 0.1 0.6
v 0.4 0 0.6
v 0.4 0.1 0.6
v 0.5 0 0.6
v 0.5 0.1 0.6
v -0.4 0 -0.6
v -0.4 0.1 -0.6
v -0.3 0 -0.6
v -0.3 0.1 -0.6
v 0.4 0 -0.6
v 0.4 0.1 -0.6
v 0.5 0 -0.6
v 0.5 0.1 -0.6
v -0.4 0.7 -1.2
v -0.4 1.1 -1.2
v -0.4 1.2 -1.2
v -0.4 1.3 -1.2
v -0.3 0.6 -1.2
v -0.3 0.7 -1.2
v -0.3 1.2 -1.2
v -0.1 0.5 -1.2
v -0.1 0.6 -1.2
v 0.2 0.5 -1.2
v 0.2 0.6 -1.2
v 0.4 0.6 -1.2
v 0.4 0.7 -1.2
v 0.4 1.2 -1.2
v 0.5 0.7 -1.2
v 0.5 1.1 -1.2
v 0.5 1.2 -1.2
v 0.5 1.3 -1.2
v -0.5 1.1 -1.3
v -0.5 1.2 -1.3
v -0.4 0.1 -1.3
v -0.4 0.2 -1.3
v -0.4 0.3 -1.3
v -0.4 0.5 -1.3
v -0.4 0.7 -1.3
v -0.4 1.1 -1.3
v -0.4 1.2 -1.3
v -0.3 0.2 -1.3
v -0.3 0.3 -1.3
v -0.3 0.6 -1.3
v -0.3 0.7 -1.3
v -0.2 0.2 -1.3
v -0.2 0.3 -1.3
v -0.1 0.5 -1.3
v -0.1 0.6 -1.3
v 0.2 0.5 -1.3
v 0.2 0.6 -1.3
v 0.3 0.2 -1.3
v 0.3 0.3 -1.3
v 0.4 0.2 -1.3
v 0.4 0.3 -1.3
v 0.4 0.6 -1.3
v 0.4 0.7 -1.3
v 0.5 0.1 -1.3
v 0.5 0.2 -1.3
v 0.5 0.3 -1.3
v 0.5 0.5 -1.3
v 0.5 0.7 -1.3
v 0.5 1.1 -1.3
v 0.5 1.2 -1.3
v 0.6 1.1 -1.3
v 0.6 1.2 -1.3
v -0.3 0.2 -1.4
v -0.3 0.3 -1.4
v -0.2 0.2 -1.4
v -0.2 0.3 -1.4
v 0.3 0.2 -1.4
v 0.3 0.3 -1.4
v 0.4 0.2 -1.4
v 0.4 0.3 -1.4
v -0.4 0 0.9
v -0.3 0 0.9
v 0.4 0 0.9
v 0.5 0 0.9
v -0.4 0 0.6
v -0.3 0 0.6
v 0.4 0 0.6
v 0.5 0 0.6
v -0.4 0 -0.3
v -0.3 0 -0.3
v 0.4 0 -0.3
v 0.5 0 -0.3
v -0.4 0 -0.6
v -0.3 0 -0.6
v 0.4 0 -0.6
v 0.5 0 -0.6
v -0.4 0.1 1.4
v 0.5 0.1 1.4
v -0.4 0.1 0.9
v -0.3 0.1 0.9
v 0.4 0.1 0.9
v 0.5 0.1 0.9
v -0.4 0.1 0.6
v -0.3 0.1 0.6
v 0.4 0.1 0.6
v 0.5 0.1 0.6
v -0.4 0.1 -0.3
v -0.3 0.1 -0.3
v 0.4 0.1 -0.3
v 0.5 0.1 -0.3
v -0.4 0.1 -0.6
v -0.3 0.1 -0.6
v 0.4 0.1 -0.6
v 0.5 0.1 -0.6
v -0.4 0.1 -1.3
v 0.5 0.1 -1.3
v -0.3 0.2 -1.3
v -0.2 0.2 -1.3
v 0.3 0.2 -1.3
v 0.4 0.2 -1.3
v -0.3 0.2 -1.4
v -0.2 0.2 -1.4
v 0.3 0.2 -1.4
v 0.4 0.2 -1.4
v -0.5 1.1 -1.1
v -0.4 1.1 -1.1
v 0.5 1.1 -1.1
v 0.6 1.1 -1.1
v -0.4 1.1 -1.2
v 0.5 1.1 -1.2
v -0.5 1.1 -1.3
v -0.4 1.1 -1.3
v 0.5 1.1 -1.3
v 0.6 1.1 -1.3
v -0.3 1.2 1.3
v 0.4 1.2 1.3
v -0.3 1.2 -1.1
v 0.4 1.2 -1.1
v -0.3 0.3 -1.3
v -0.2 0.3 -1.3
v 0.3 0.3 -1.3
v 0.4 0.3 -1.3
v -0.3 0.3 -1.4
v -0.2 0.3 -1.4
v 0.3 0.3 -1.4
v 0.4 0.3 -1.4
v -0.3 0.4 1.3
v 0.4 0.4 1.3
v 0.4 0.4 0.5
v 0.4 0.4 0
v 0.4 0.4 -0.7
v -0.3 0.4 -1.1
v 0.4 0.4 -1.1
v -0.1 0.5 -1.2
v 0.2 0.5 -1.2
v -0.1 0.5 -1.3
v 0.2 0.5 -1.3
v -0.3 0.6 -1.2
v -0.1 0.6 -1.2
v 0.2 0.6 -1.2
v 0.4 0.6 -1.2
v -0.3 0.6 -1.3
v -0.1 0.6 -1.3
v 0.2 0.6 -1.3
v 0.4 0.6 -1.3
v -0.4 0.7 -1.2
v -0.3 0.7 -1.2
v 0.4 0.7 -1.2
v 0.5 0.7 -1.2
v -0.4 0.7 -1.3
v -0.3 0.7 -1.3
v 0.4 0.7 -1.3
v 0.5 0.7 -1.3
v -0.5 1.2 -1.1
v -0.4 1.2 -1.1
v 0.5 1.2 -1.1
v 0.6 1.2 -1.1
v -0.4 1.2 -1.2
v 0.5 1.2 -1.2
v -0.5 1.2 -1.3
v -0.4 1.2 -1.3
v 0.5 1.2 -1.3
v 0.6 1.2 -1.3
v -0.4 1.3 1.4
v 0.5 1.3 1.4
v -0.4 1.3 -1.2
v 0.5 1.3 -1.2

# faces
f 3/3/1 2/3/1 1/3/1
f 4/3/1 2/3/1 3/3/1
f 10/3/1 6/3/1 5/3/1
f 11/3/1 6/3/1 10/3/1
f 12/3/1 6/3/1 11/3/1
f 13/3/1 6/3/1 12/3/1
f 14/3/1 8/3/1 7/3/1
f 15/3/1 8/3/1 14/3/1
f 16/3/1 8/3/1 15/3/1
f 17/3/1 8/3/1 16/3/1
f 19/4/1 10/4/1 9/4/1
f 20/3/1 11/3/1 10/3/1
f 20/4/1 10/4/1 19/4/1
f 21/4/1 12/4/1 11/4/1
f 21/3/1 11/3/1 20/3/1
f 22/3/1 13/3/1 12/3/1
f 22/4/1 12/4/1 21/4/1
f 23/4/1 14/4/1 13/4/1
f 23/3/1 13/3/1 22/3/1
f 24/3/1 15/3/1 14/3/1
f 24/4/1 14/4/1 23/4/1
f 25/4/1 16/4/1 15/4/1
f 25/3/1 15/3/1 24/3/1
f 26/3/1 17/3/1 16/3/1
f 26/4/1 16/4/1 25/4/1
f 27/4/1 18/4/1 17/4/1
f 27/3/1 17/3/1 26/3/1
f 28/4/1 18/4/1 27/4/1
f 29/6/1 20/6/1 19/6/1
f 30/3/1 21/3/1 20/3/1
f 30/6/1 20/6/1 29/6/1
f 30/3/1 22/3/1 21/3/1
f 30/3/1 23/3/1 22/3/1
f 31/6/1 24/6/1 23/6/1
f 31/3/1 23/3/1 30/3/1
f 32/3/1 26/3/1 25/3/1
f 32/6/1 24/6/1 31/6/1
f 32/3/1 27/3/1 26/3/1
f 32/3/1 25/3/1 24/3/1
f 33/6/1 28/6/1 27/6/1
f 33/3/1 27/3/1 32/3/1
f 34/6/1 28/6/1 33/6/1
f 35/2/1 31/2/1 30/2/1
f 35/2/1 32/2/1 31/2/1
f 35/2/1 34/2/1 33/2/1
f 35/2/1 33/2/1 32/2/1
f 35/2/1 30/2/1 29/2/1
f 36/2/1 34/2/1 35/2/1
f 37/2/1 34/2/1 36/2/1
f 38/5/1 36/5/1 35/5/1
f 39/1/1 37/1/1 36/1/1
f 39/5/1 36/5/1 38/5/1
f 40/1/1 39/1/1 38/1/1
f 41/1/1 37/1/1 39/1/1
f 41/1/1 39/1/1 40/1/1
f 42/1/1 37/1/1 41/1/1
f 43/1/1 37/1/1 42/1/1
f 44/3/1 41/3/1 40/3/1
f 44/1/1 42/1/1 41/1/1
f 45/1/1 42/1/1 44/1/1
f 46/1/1 40/1/1 38/1/1
f 46/3/1 44/3/1 40/3/1
f 47/3/1 44/3/1 46/3/1
f 49/1/1 46/1/1 38/1/1
f 49/1/1 48/1/1 47/1/1
f 49/1/1 47/1/1 46/1/1
f 50/1/1 48/1/1 49/1/1
f 53/8/1 52/8/1 51/8/1
f 54/8/1 52/8/1 53/8/1
f 57/1/1 56/1/1 55/1/1
f 58/1/1 56/1/1 57/1/1
f 61/8/1 60/8/1 59/8/1
f 62/8/1 60/8/1 61/8/1
f 67/3/1 64/3/1 63/3/1
f 68/3/1 64/3/1 67/3/1
f 69/3/1 66/3/1 65/3/1
f 70/3/1 66/3/1 69/3/1
f 76/2/1 72/2/1 71/2/1
f 77/3/1 73/3/1 72/3/1
f 77/2/1 72/2/1 76/2/1
f 78/2/1 74/2/1 73/2/1
f 78/3/1 73/3/1 77/3/1
f 79/2/1 74/2/1 78/2/1
f 80/3/1 75/3/1 74/3/1
f 80/2/1 74/2/1 79/2/1
f 81/5/1 77/5/1 76/5/1
f 82/3/1 78/3/1 77/3/1
f 82/5/1 77/5/1 81/5/1
f 83/5/1 79/5/1 78/5/1
f 83/3/1 78/3/1 82/3/1
f 84/5/1 79/5/1 83/5/1
f 87/1/1 82/1/1 81/1/1
f 88/3/1 83/3/1 82/3/1
f 88/1/1 82/1/1 87/1/1
f 89/1/1 84/1/1 83/1/1
f 89/3/1 83/3/1 88/3/1
f 90/5/1 79/5/1 84/5/1
f 90/1/1 84/1/1 89/1/1
f 91/1/1 80/1/1 79/1/1
f 91/5/1 79/5/1 90/5/1
f 92/3/1 75/3/1 80/3/1
f 92/1/1 80/1/1 91/1/1
f 93/1/1 86/1/1 85/1/1
f 94/1/1 86/1/1 93/1/1
f 95/3/1 91/3/1 90/3/1
f 95/3/1 90/3/1 89/3/1
f 95/3/1 88/3/1 87/3/1
f 95/3/1 92/3/1 91/3/1
f 95/3/1 89/3/1 88/3/1
f 96/3/1 75/3/1 92/3/1
f 96/3/1 92/3/1 95/3/1
f 99/3/1 98/3/1 97/3/1
f 100/3/1 98/3/1 99/3/1
f 101/3/2 102/3/2 103/3/2
f 103/3/2 102/3/2 104/3/2
f 105/3/2 106/3/2 109/3/2
f 109/3/2 106/3/2 110/3/2
f 107/3/2 108/3/2 111/3/2
f 111/3/2 108/3/2 112/3/2
f 113/2/2 114/2/2 115/2/2
f 115/2/2 114/2/2 116/2/2
f 115/5/2 116/5/2 117/5/2
f 117/5/2 116/5/2 118/5/2
f 117/1/2 118/1/2 121/1/2
f 121/1/2 118/1/2 122/1/2
f 119/1/2 120/1/2 123/1/2
f 123/1/2 120/1/2 124/1/2
f 121/3/2 122/3/2 125/3/2
f 125/3/2 122/3/2 126/3/2
f 127/8/2 128/8/2 129/8/2
f 129/8/2 128/8/2 130/8/2
f 131/1/2 132/1/2 133/1/2
f 133/1/2 132/1/2 134/1/2
f 135/8/2 136/8/2 137/8/2
f 137/8/2 136/8/2 138/8/2
f 139/3/2 140/3/2 144/3/2
f 144/3/2 140/3/2 145/3/2
f 145/3/2 140/3/2 146/3/2
f 146/3/2 140/3/2 147/3/2
f 141/3/2 142/3/2 148/3/2
f 148/3/2 142/3/2 149/3/2
f 149/3/2 142/3/2 150/3/2
f 150/3/2 142/3/2 151/3/2
f 143/4/2 144/4/2 153/4/2
f 144/3/2 145/3/2 154/3/2
f 153/4/2 144/4/2 154/4/2
f 145/4/2 146/4/2 155/4/2
f 154/3/2 145/3/2 155/3/2
f 146/3/2 147/3/2 156/3/2
f 155/4/2 146/4/2 156/4/2
f 147/4/2 148/4/2 157/4/2
f 156/3/2 147/3/2 157/3/2
f 157/4/2 148/4/2 158/4/2
f 158/4/2 148/4/2 159/4/2
f 148/3/2 149/3/2 160/3/2
f 159/4/2 148/4/2 160/4/2
f 149/4/2 150/4/2 161/4/2
f 160/3/2 149/3/2 161/3/2
f 150/3/2 151/3/2 162/3/2
f 161/4/2 150/4/2 162/4/2
f 151/4/2 152/4/2 163/4/2
f 162/3/2 151/3/2 163/3/2
f 163/4/2 152/4/2 164/4/2
f 164/4/2 152/4/2 165/4/2
f 165/4/2 152/4/2 166/4/2
f 153/6/2 154/6/2 167/6/2
f 154/3/2 155/3/2 168/3/2
f 167/6/2 154/6/2 168/6/2
f 155/3/2 156/3/2 168/3/2
f 156/3/2 157/3/2 168/3/2
f 157/6/2 158/6/2 169/6/2
f 168/3/2 157/3/2 169/3/2
f 158/3/2 159/3/2 170/3/2
f 169/6/2 158/6/2 170/6/2
f 159/6/2 160/6/2 171/6/2
f 170/3/2 159/3/2 171/3/2
f 161/3/2 162/3/2 172/3/2
f 171/6/2 160/6/2 172/6/2
f 160/3/2 161/3/2 172/3/2
f 162/3/2 163/3/2 172/3/2
f 163/6/2 164/6/2 173/6/2
f 172/3/2 163/3/2 173/3/2
f 164/3/2 165/3/2 174/3/2
f 173/6/2 164/6/2 174/6/2
f 165/6/2 166/6/2 175/6/2
f 174/3/2 165/3/2 175/3/2
f 175/6/2 166/6/2 176/6/2
f 168/2/2 169/2/2 177/2/2
f 169/2/2 170/2/2 177/2/2
f 167/2/2 168/2/2 177/2/2
f 170/3/2 171/3/2 178/3/2
f 177/2/2 170/2/2 178/2/2
f 173/2/2 174/2/2 179/2/2
f 178/3/2 171/3/2 179/3/2
f 171/2/2 172/2/2 179/2/2
f 172/2/2 173/2/2 179/2/2
f 179/2/2 174/2/2 180/2/2
f 174/3/2 175/3/2 181/3/2
f 180/2/2 174/2/2 181/2/2
f 175/2/2 176/2/2 182/2/2
f 181/3/2 175/3/2 182/3/2
f 182/2/2 176/2/2 183/2/2
f 177/5/2 178/5/2 184/5/2
f 178/3/2 179/3/2 185/3/2
f 184/5/2 178/5/2 185/5/2
f 179/5/2 180/5/2 186/5/2
f 185/3/2 179/3/2 186/3/2
f 186/5/2 180/5/2 187/5/2
f 184/1/2 185/1/2 188/1/2
f 185/3/2 186/3/2 189/3/2
f 188/1/2 185/1/2 189/1/2
f 186/1/2 187/1/2 190/1/2
f 189/3/2 186/3/2 190/3/2
f 187/5/2 180/5/2 191/5/2
f 190/1/2 187/1/2 191/1/2
f 180/1/2 181/1/2 192/1/2
f 191/5/2 180/5/2 192/5/2
f 181/3/2 182/3/2 193/3/2
f 192/1/2 181/1/2 193/1/2
f 182/1/2 183/1/2 194/1/2
f 194/1/2 183/1/2 195/1/2
f 190/3/2 191/3/2 196/3/2
f 189/3/2 190/3/2 196/3/2
f 182/1/2 194/1/2 196/1/2
f 192/3/2 193/3/2 196/3/2
f 188/3/2 189/3/2 196/3/2
f 191/3/2 192/3/2 196/3/2
f 193/3/2 182/3/2 196/3/2
f 196/1/2 194/1/2 197/1/2
f 184/1/2 188/1/2 198/1/2
f 188/3/2 196/3/2 198/3/2
f 198/3/2 196/3/2 199/3/2
f 184/1/2 198/1/2 201/1/2
f 199/1/2 200/1/2 201/1/2
f 198/1/2 199/1/2 201/1/2
f 201/1/2 200/1/2 202/1/2
f 203/3/2 204/3/2 205/3/2
f 205/3/2 204/3/2 206/3/2
f 213/1/3 212/1/3 211/1/3
f 214/1/3 212/1/3 213/1/3
f 215/4/3 208/4/3 207/4/3
f 215/6/3 209/6/3 208/6/3
f 216/2/3 210/2/3 209/2/3
f 216/6/3 209/6/3 215/6/3
f 217/4/3 215/4/3 207/4/3
f 217/7/3 216/7/3 215/7/3
f 218/2/3 210/2/3 216/2/3
f 218/7/3 216/7/3 217/7/3
f 219/3/3 214/3/3 213/3/3
f 219/1/3 213/1/3 211/1/3
f 220/1/3 212/1/3 214/1/3
f 220/3/3 214/3/3 219/3/3
f 221/4/3 217/4/3 207/4/3
f 222/6/3 218/6/3 217/6/3
f 222/4/3 217/4/3 221/4/3
f 223/2/3 210/2/3 218/2/3
f 223/6/3 218/6/3 222/6/3
f 224/5/3 211/5/3 210/5/3
f 224/2/3 210/2/3 223/2/3
f 225/1/3 219/1/3 211/1/3
f 225/5/3 211/5/3 224/5/3
f 225/1/3 220/1/3 219/1/3
f 226/1/3 212/1/3 220/1/3
f 226/1/3 220/1/3 225/1/3
f 229/3/3 228/3/3 227/3/3
f 230/3/3 228/3/3 229/3/3
f 233/3/3 232/3/3 231/3/3
f 234/3/3 232/3/3 233/3/3
f 237/3/3 236/3/3 235/3/3
f 238/3/3 236/3/3 237/3/3
f 241/3/3 240/3/3 239/3/3
f 242/3/3 240/3/3 241/3/3
f 245/3/3 244/3/3 243/3/3
f 246/3/3 244/3/3 245/3/3
f 252/3/3 248/3/3 247/3/3
f 252/3/3 251/3/3 250/3/3
f 252/3/3 250/3/3 249/3/3
f 252/3/3 249/3/3 248/3/3
f 253/3/3 251/3/3 252/3/3
f 256/3/3 255/3/3 254/3/3
f 257/3/3 255/3/3 256/3/3
f 258/2/4 259/2/4 263/2/4
f 259/5/4 260/5/4 264/5/4
f 263/2/4 259/2/4 264/2/4
f 260/1/4 261/1/4 265/1/4
f 264/5/4 260/5/4 265/5/4
f 261/3/4 262/3/4 266/3/4
f 265/1/4 261/1/4 266/1/4
f 266/3/4 262/3/4 267/3/4
f 268/3/4 269/3/4 270/3/4
f 270/3/4 269/3/4 271/3/4
f 272/3/4 273/3/4 274/3/4
f 274/3/4 273/3/4 275/3/4
f 276/3/4 277/3/4 278/3/4
f 278/3/4 277/3/4 279/3/4
f 280/3/4 281/3/4 282/3/4
f 282/3/4 281/3/4 283/3/4
f 284/1/4 285/1/4 289/1/4
f 286/1/4 287/1/4 289/1/4
f 285/1/4 286/1/4 289/1/4
f 289/1/4 287/1/4 290/1/4
f 288/3/4 289/3/4 292/3/4
f 289/3/4 290/3/4 292/3/4
f 291/3/4 292/3/4 293/3/4
f 292/3/4 290/3/4 294/3/4
f 293/3/4 292/3/4 294/3/4
f 294/3/4 290/3/4 295/3/4
f 295/3/4 290/3/4 296/3/4
f 290/1/4 287/1/4 297/1/4
f 296/3/4 290/3/4 297/3/4
f 296/1/4 297/1/4 298/1/4
f 298/1/4 297/1/4 299/1/4
f 297/1/4 287/1/4 300/1/4
f 299/1/4 297/1/4 300/1/4
f 300/1/4 287/1/4 301/1/4
f 302/3/4 303/3/4 309/3/4
f 309/3/4 303/3/4 310/3/4
f 304/4/4 305/4/4 311/4/4
f 305/6/4 306/6/4 311/6/4
f 306/2/4 307/2/4 312/2/4
f 311/6/4 306/6/4 312/6/4
f 307/1/4 308/1/4 313/1/4
f 313/1/4 308/1/4 314/1/4
f 304/4/4 311/4/4 315/4/4
f 312/2/4 307/2/4 316/2/4
f 307/1/4 313/1/4 317/1/4
f 316/2/4 307/2/4 317/2/4
f 317/1/4 313/1/4 318/1/4
f 316/2/4 317/2/4 319/2/4
f 304/4/4 315/4/4 321/4/4
f 315/6/4 316/6/4 321/6/4
f 316/2/4 319/2/4 322/2/4
f 321/6/4 316/6/4 322/6/4
f 304/4/4 321/4/4 323/4/4
f 322/2/4 319/2/4 324/2/4
f 319/1/4 320/1/4 325/1/4
f 304/4/4 323/4/4 327/4/4
f 323/6/4 324/6/4 328/6/4
f 327/4/4 323/4/4 328/4/4
f 324/2/4 319/2/4 329/2/4
f 328/6/4 324/6/4 329/6/4
f 325/1/4 326/1/4 330/1/4
f 329/2/4 319/2/4 330/2/4
f 319/1/4 325/1/4 330/1/4
f 330/1/4 326/1/4 331/1/4
f 332/3/4 333/3/4 334/3/4
f 334/3/4 333/3/4 335/3/4
f 336/8/4 337/8/4 338/8/4
f 338/8/4 337/8/4 339/8/4
f 340/8/4 341/8/4 342/8/4
f 342/8/4 341/8/4 343/8/4
f 348/3/5 345/3/5 344/3/5
f 349/3/5 345/3/5 348/3/5
f 350/3/5 347/3/5 346/3/5
f 351/3/5 347/3/5 350/3/5
f 356/3/5 353/3/5 352/3/5
f 357/3/5 353/3/5 356/3/5
f 358/3/5 355/3/5 354/3/5
f 359/3/5 355/3/5 358/3/5
f 362/4/5 361/4/5 360/4/5
f 363/4/5 361/4/5 362/4/5
f 364/4/5 361/4/5 363/4/5
f 365/4/5 361/4/5 364/4/5
f 367/4/5 364/4/5 363/4/5
f 368/4/5 364/4/5 367/4/5
f 370/4/5 367/4/5 366/4/5
f 370/4/5 369/4/5 368/4/5
f 370/4/5 368/4/5 367/4/5
f 371/4/5 369/4/5 370/4/5
f 372/4/5 369/4/5 371/4/5
f 373/4/5 369/4/5 372/4/5
f 375/4/5 372/4/5 371/4/5
f 376/4/5 372/4/5 375/4/5
f 378/4/5 375/4/5 374/4/5
f 378/4/5 377/4/5 376/4/5
f 378/4/5 376/4/5 375/4/5
f 379/4/5 377/4/5 378/4/5
f 384/8/5 381/8/5 380/8/5
f 385/8/5 381/8/5 384/8/5
f 386/8/5 383/8/5 382/8/5
f 387/8/5 383/8/5 386/8/5
f 392/3/5 389/3/5 388/3/5
f 393/3/5 391/3/5 390/3/5
f 394/3/5 392/3/5 388/3/5
f 395/3/5 392/3/5 394/3/5
f 396/3/5 391/3/5 393/3/5
f 397/3/5 391/3/5 396/3/5
f 400/1/5 399/1/5 398/1/5
f 401/1/5 399/1/5 400/1/5
f 402/8/6 403/8/6 406/8/6
f 406/8/6 403/8/6 407/8/6
f 404/8/6 405/8/6 408/8/6
f 408/8/6 405/8/6 409/8/6
f 410/4/6 411/4/6 412/4/6
f 410/4/6 412/4/6 413/4/6
f 410/4/6 413/4/6 414/4/6
f 410/4/6 414/4/6 415/4/6
f 415/4/6 414/4/6 416/4/6
f 417/2/6 418/2/6 419/2/6
f 419/2/6 418/2/6 420/2/6
f 421/1/6 422/1/6 425/1/6
f 425/1/6 422/1/6 426/1/6
f 423/1/6 424/1/6 427/1/6
f 427/1/6 424/1/6 428/1/6
f 429/1/6 430/1/6 433/1/6
f 433/1/6 430/1/6 434/1/6
f 431/1/6 432/1/6 435/1/6
f 435/1/6 432/1/6 436/1/6
f 437/3/6 438/3/6 441/3/6
f 439/3/6 440/3/6 442/3/6
f 437/3/6 441/3/6 443/3/6
f 443/3/6 441/3/6 444/3/6
f 442/3/6 440/3/6 445/3/6
f 445/3/6 440/3/6 446/3/6
f 447/1/6 448/1/6 449/1/6
f 449/1/6 448/1/6 450/1/6
