# MagicaVoxel @ Ephtracy

# group
o 

# material
mtllib bluecar.mtl
usemtl palette

# normals
vn -1 0 0
vn 1 0 0
vn 0 0 1
vn 0 0 -1
vn 0 -1 0
vn 0 1 0

# texcoords
vt 0.0644531 0.5
vt 0.0683594 0.5
vt 0.0761719 0.5
vt 0.0878906 0.5
vt 0.0957031 0.5
vt 0.0996094 0.5

# verts
v -0.4 0.4 0.2
v -0.4 0.4 0
v -0.4 0.5 0.2
v -0.4 0.5 0
v -0.3 0 0.5
v -0.3 0 0.2
v -0.3 0 -0.4
v -0.3 0 -0.7
v -0.3 0.1 0.7
v -0.3 0.1 0.5
v -0.3 0.1 0.4
v -0.3 0.1 0.3
v -0.3 0.1 0.2
v -0.3 0.1 -0.4
v -0.3 0.1 -0.5
v -0.3 0.1 -0.6
v -0.3 0.1 -0.7
v -0.3 0.1 -0.8
v -0.3 0.2 0.7
v -0.3 0.2 0.5
v -0.3 0.2 0.4
v -0.3 0.2 0.3
v -0.3 0.2 0.2
v -0.3 0.2 -0.4
v -0.3 0.2 -0.5
v -0.3 0.2 -0.6
v -0.3 0.2 -0.7
v -0.3 0.2 -0.8
v -0.3 0.3 0.7
v -0.3 0.3 0.5
v -0.3 0.3 0.2
v -0.3 0.3 -0.4
v -0.3 0.3 -0.7
v -0.3 0.3 -0.8
v -0.3 0.4 0.2
v -0.3 0.4 0
v -0.3 0.5 0.7
v -0.3 0.5 0.2
v -0.3 0.5 0
v -0.3 0.5 -0.8
v -0.2 0.2 -0.8
v -0.2 0.2 -0.9
v -0.2 0.3 0.8
v -0.2 0.3 0.7
v -0.2 0.3 -0.8
v -0.2 0.3 -0.9
v -0.2 0.4 0.8
v -0.2 0.4 0.7
v -0.2 0.5 0.3
v -0.2 0.5 0.2
v -0.2 0.5 -0.2
v -0.2 0.5 -0.3
v -0.2 0.5 -0.5
v -0.2 0.5 -0.6
v -0.2 0.7 0.2
v -0.2 0.7 -0.2
v -0.2 0.7 -0.3
v -0.2 0.7 -0.5
v -0.2 0.8 0.3
v -0.2 0.8 -0.6
v 0.1 0.3 0.8
v 0.1 0.3 0.7
v 0.1 0.4 0.8
v 0.1 0.4 0.7
v 0.1 0.5 0.2
v 0.1 0.5 -0.2
v 0.1 0.5 -0.3
v 0.1 0.5 -0.5
v 0.1 0.7 0.2
v 0.1 0.7 -0.2
v 0.1 0.7 -0.3
v 0.1 0.7 -0.5
v 0.2 0 0.5
v 0.2 0 0.2
v 0.2 0 -0.4
v 0.2 0 -0.7
v 0.2 0.1 0.6
v 0.2 0.1 0.5
v 0.2 0.1 0.4
v 0.2 0.1 0.3
v 0.2 0.1 0.2
v 0.2 0.1 -0.4
v 0.2 0.1 -0.5
v 0.2 0.1 -0.6
v 0.2 0.1 -0.7
v 0.2 0.2 0.6
v 0.2 0.2 0.5
v 0.2 0.2 0.4
v 0.2 0.2 0.3
v 0.2 0.2 0.2
v 0.2 0.2 -0.4
v 0.2 0.2 -0.5
v 0.2 0.2 -0.6
v 0.2 0.2 -0.7
v 0.2 0.3 0.6
v 0.2 0.3 0.5
v 0.2 0.3 0.2
v 0.2 0.3 -0.4
v 0.2 0.3 -0.7
v 0.2 0.4 0.6
v 0.2 0.4 -0.7
v -0.2 0 0.5
v -0.2 0 0.2
v -0.2 0 -0.4
v -0.2 0 -0.7
v -0.2 0.1 0.6
v -0.2 0.1 0.5
v -0.2 0.1 0.4
v -0.2 0.1 0.3
v -0.2 0.1 0.2
v -0.2 0.1 -0.4
v -0.2 0.1 -0.5
v -0.2 0.1 -0.6
v -0.2 0.1 -0.7
v -0.2 0.2 0.6
v -0.2 0.2 0.5
v -0.2 0.2 0.4
v -0.2 0.2 0.3
v -0.2 0.2 0.2
v -0.2 0.2 -0.4
v -0.2 0.2 -0.5
v -0.2 0.2 -0.6
v -0.2 0.2 -0.7
v -0.2 0.3 0.6
v -0.2 0.3 0.5
v -0.2 0.3 0.2
v -0.2 0.3 -0.4
v -0.2 0.3 -0.7
v -0.2 0.4 0.6
v -0.2 0.4 -0.7
v -0.1 0.2 -0.8
v -0.1 0.2 -0.9
v -0.1 0.3 0.8
v -0.1 0.3 0.7
v -0.1 0.3 -0.8
v -0.1 0.3 -0.9
v -0.1 0.4 0.8
v -0.1 0.4 0.7
v -0.1 0.5 0.2
v -0.1 0.5 -0.2
v -0.1 0.5 -0.3
v -0.1 0.5 -0.5
v -0.1 0.7 0.2
v -0.1 0.7 -0.2
v -0.1 0.7 -0.3
v -0.1 0.7 -0.5
v 0.2 0.3 0.8
v 0.2 0.3 0.7
v 0.2 0.4 0.8
v 0.2 0.4 0.7
v 0.2 0.5 0.3
v 0.2 0.5 0.2
v 0.2 0.5 -0.2
v 0.2 0.5 -0.3
v 0.2 0.5 -0.5
v 0.2 0.5 -0.6
v 0.2 0.7 0.2
v 0.2 0.7 -0.2
v 0.2 0.7 -0.3
v 0.2 0.7 -0.5
v 0.2 0.8 0.3
v 0.2 0.8 -0.6
v 0.3 0 0.5
v 0.3 0 0.2
v 0.3 0 -0.4
v 0.3 0 -0.7
v 0.3 0.1 0.7
v 0.3 0.1 0.5
v 0.3 0.1 0.4
v 0.3 0.1 0.3
v 0.3 0.1 0.2
v 0.3 0.1 -0.4
v 0.3 0.1 -0.5
v 0.3 0.1 -0.6
v 0.3 0.1 -0.7
v 0.3 0.1 -0.8
v 0.3 0.2 0.7
v 0.3 0.2 0.5
v 0.3 0.2 0.4
v 0.3 0.2 0.3
v 0.3 0.2 0.2
v 0.3 0.2 -0.4
v 0.3 0.2 -0.5
v 0.3 0.2 -0.6
v 0.3 0.2 -0.7
v 0.3 0.2 -0.8
v 0.3 0.3 0.7
v 0.3 0.3 0.5
v 0.3 0.3 0.2
v 0.3 0.3 -0.4
v 0.3 0.3 -0.7
v 0.3 0.3 -0.8
v 0.3 0.4 0.2
v 0.3 0.4 0
v 0.3 0.5 0.7
v 0.3 0.5 0.2
v 0.3 0.5 0
v 0.3 0.5 -0.8
v 0.4 0.4 0.2
v 0.4 0.4 0
v 0.4 0.5 0.2
v 0.4 0.5 0
v -0.2 0.3 0.8
v -0.2 0.4 0.8
v -0.1 0.3 0.8
v -0.1 0.4 0.8
v 0.1 0.3 0.8
v 0.1 0.4 0.8
v 0.2 0.3 0.8
v 0.2 0.4 0.8
v -0.3 0.1 0.7
v -0.3 0.2 0.7
v -0.3 0.3 0.7
v -0.3 0.5 0.7
v -0.2 0.3 0.7
v -0.2 0.4 0.7
v -0.1 0.3 0.7
v -0.1 0.4 0.7
v -0.1 0.5 0.7
v 0.1 0.3 0.7
v 0.1 0.4 0.7
v 0.1 0.5 0.7
v 0.2 0.3 0.7
v 0.2 0.4 0.7
v 0.3 0.1 0.7
v 0.3 0.2 0.7
v 0.3 0.3 0.7
v 0.3 0.5 0.7
v -0.3 0 0.5
v -0.3 0.1 0.5
v -0.2 0 0.5
v -0.2 0.1 0.5
v 0.2 0 0.5
v 0.2 0.1 0.5
v 0.3 0 0.5
v 0.3 0.1 0.5
v -0.2 0.5 0.3
v -0.2 0.8 0.3
v -0.1 0.5 0.3
v -0.1 0.7 0.3
v 0.1 0.5 0.3
v 0.1 0.7 0.3
v 0.2 0.5 0.3
v 0.2 0.8 0.3
v -0.4 0.4 0.2
v -0.4 0.5 0.2
v -0.3 0.4 0.2
v -0.3 0.5 0.2
v 0.3 0.4 0.2
v 0.3 0.5 0.2
v 0.4 0.4 0.2
v 0.4 0.5 0.2
v -0.3 0 -0.4
v -0.3 0.1 -0.4
v -0.2 0 -0.4
v -0.2 0.1 -0.4
v 0.2 0 -0.4
v 0.2 0.1 -0.4
v 0.3 0 -0.4
v 0.3 0.1 -0.4
v -0.1 0.5 -0.5
v -0.1 0.7 -0.5
v 0.1 0.5 -0.5
v 0.1 0.7 -0.5
v -0.2 0.1 -0.7
v -0.2 0.2 -0.7
v -0.2 0.3 -0.7
v -0.2 0.4 -0.7
v -0.1 0.3 -0.7
v -0.1 0.4 -0.7
v 0.1 0.3 -0.7
v 0.1 0.4 -0.7
v 0.2 0.1 -0.7
v 0.2 0.2 -0.7
v 0.2 0.3 -0.7
v 0.2 0.4 -0.7
v -0.2 0.1 0.6
v -0.2 0.2 0.6
v -0.2 0.3 0.6
v -0.2 0.4 0.6
v -0.1 0.3 0.6
v -0.1 0.4 0.6
v 0.1 0.3 0.6
v 0.1 0.4 0.6
v 0.2 0.1 0.6
v 0.2 0.2 0.6
v 0.2 0.3 0.6
v 0.2 0.4 0.6
v -0.3 0 0.2
v -0.3 0.1 0.2
v -0.2 0 0.2
v -0.2 0.1 0.2
v -0.1 0.5 0.2
v -0.1 0.7 0.2
v 0.1 0.5 0.2
v 0.1 0.7 0.2
v 0.2 0 0.2
v 0.2 0.1 0.2
v 0.3 0 0.2
v 0.3 0.1 0.2
v -0.4 0.4 0
v -0.4 0.5 0
v -0.3 0.4 0
v -0.3 0.5 0
v 0.3 0.4 0
v 0.3 0.5 0
v 0.4 0.4 0
v 0.4 0.5 0
v -0.2 0.5 -0.6
v -0.2 0.8 -0.6
v -0.1 0.5 -0.6
v -0.1 0.7 -0.6
v 0.1 0.5 -0.6
v 0.1 0.7 -0.6
v 0.2 0.5 -0.6
v 0.2 0.8 -0.6
v -0.3 0 -0.7
v -0.3 0.1 -0.7
v -0.2 0 -0.7
v -0.2 0.1 -0.7
v 0.2 0 -0.7
v 0.2 0.1 -0.7
v 0.3 0 -0.7
v 0.3 0.1 -0.7
v -0.3 0.1 -0.8
v -0.3 0.2 -0.8
v -0.3 0.3 -0.8
v -0.3 0.5 -0.8
v -0.2 0.2 -0.8
v -0.2 0.3 -0.8
v -0.1 0.2 -0.8
v -0.1 0.3 -0.8
v -0.1 0.5 -0.8
v 0.1 0.3 -0.8
v 0.1 0.5 -0.8
v 0.3 0.1 -0.8
v 0.3 0.2 -0.8
v 0.3 0.3 -0.8
v 0.3 0.5 -0.8
v -0.2 0.2 -0.9
v -0.2 0.3 -0.9
v -0.1 0.2 -0.9
v -0.1 0.3 -0.9
v -0.3 0 0.5
v -0.2 0 0.5
v 0.2 0 0.5
v 0.3 0 0.5
v -0.3 0 0.2
v -0.2 0 0.2
v 0.2 0 0.2
v 0.3 0 0.2
v -0.3 0 -0.4
v -0.2 0 -0.4
v 0.2 0 -0.4
v 0.3 0 -0.4
v -0.3 0 -0.7
v -0.2 0 -0.7
v 0.2 0 -0.7
v 0.3 0 -0.7
v -0.3 0.1 0.7
v 0.3 0.1 0.7
v -0.2 0.1 0.6
v 0.2 0.1 0.6
v -0.3 0.1 0.5
v -0.2 0.1 0.5
v 0.2 0.1 0.5
v 0.3 0.1 0.5
v -0.3 0.1 0.2
v -0.2 0.1 0.2
v 0.2 0.1 0.2
v 0.3 0.1 0.2
v -0.3 0.1 -0.4
v -0.2 0.1 -0.4
v 0.2 0.1 -0.4
v 0.3 0.1 -0.4
v -0.3 0.1 -0.7
v -0.2 0.1 -0.7
v 0.2 0.1 -0.7
v 0.3 0.1 -0.7
v -0.3 0.1 -0.8
v 0.3 0.1 -0.8
v -0.2 0.2 -0.8
v -0.1 0.2 -0.8
v -0.2 0.2 -0.9
v -0.1 0.2 -0.9
v -0.2 0.3 0.8
v -0.1 0.3 0.8
v 0.1 0.3 0.8
v 0.2 0.3 0.8
v -0.2 0.3 0.7
v -0.1 0.3 0.7
v 0.1 0.3 0.7
v 0.2 0.3 0.7
v -0.2 0.4 0.6
v -0.1 0.4 0.6
v 0.1 0.4 0.6
v 0.2 0.4 0.6
v -0.4 0.4 0.2
v -0.3 0.4 0.2
v 0.3 0.4 0.2
v 0.4 0.4 0.2
v -0.4 0.4 0
v -0.3 0.4 0
v 0.3 0.4 0
v 0.4 0.4 0
v -0.2 0.4 -0.7
v -0.1 0.4 -0.7
v 0.1 0.4 -0.7
v 0.2 0.4 -0.7
v -0.1 0.7 0.2
v 0.1 0.7 0.2
v -0.1 0.7 -0.2
v 0.1 0.7 -0.2
v -0.1 0.7 -0.3
v 0.1 0.7 -0.3
v -0.1 0.7 -0.5
v 0.1 0.7 -0.5
v -0.2 0.3 -0.8
v -0.1 0.3 -0.8
v -0.2 0.3 -0.9
v -0.1 0.3 -0.9
v -0.2 0.4 0.8
v -0.1 0.4 0.8
v 0.1 0.4 0.8
v 0.2 0.4 0.8
v -0.2 0.4 0.7
v -0.1 0.4 0.7
v 0.1 0.4 0.7
v 0.2 0.4 0.7
v -0.3 0.5 0.7
v -0.1 0.5 0.7
v 0.1 0.5 0.7
v 0.3 0.5 0.7
v -0.2 0.5 0.3
v -0.1 0.5 0.3
v 0.1 0.5 0.3
v 0.2 0.5 0.3
v -0.4 0.5 0.2
v -0.3 0.5 0.2
v -0.2 0.5 0.2
v -0.1 0.5 0.2
v 0.1 0.5 0.2
v 0.2 0.5 0.2
v 0.3 0.5 0.2
v 0.4 0.5 0.2
v -0.4 0.5 0
v -0.3 0.5 0
v 0.3 0.5 0
v 0.4 0.5 0
v -0.2 0.5 -0.2
v -0.1 0.5 -0.2
v 0.1 0.5 -0.2
v 0.2 0.5 -0.2
v -0.2 0.5 -0.3
v -0.1 0.5 -0.3
v 0.1 0.5 -0.3
v 0.2 0.5 -0.3
v -0.2 0.5 -0.5
v -0.1 0.5 -0.5
v 0.1 0.5 -0.5
v 0.2 0.5 -0.5
v -0.2 0.5 -0.6
v -0.1 0.5 -0.6
v 0.1 0.5 -0.6
v 0.2 0.5 -0.6
v -0.3 0.5 -0.8
v -0.1 0.5 -0.8
v 0.1 0.5 -0.8
v 0.3 0.5 -0.8
v -0.2 0.8 0.3
v 0.2 0.8 0.3
v -0.2 0.8 -0.6
v 0.2 0.8 -0.6

# faces
f 3/6/1 2/6/1 1/6/1
f 4/6/1 2/6/1 3/6/1
f 10/4/1 6/4/1 5/4/1
f 11/4/1 6/4/1 10/4/1
f 12/4/1 6/4/1 11/4/1
f 13/4/1 6/4/1 12/4/1
f 14/4/1 8/4/1 7/4/1
f 15/4/1 8/4/1 14/4/1
f 16/4/1 8/4/1 15/4/1
f 17/4/1 8/4/1 16/4/1
f 19/3/1 10/3/1 9/3/1
f 20/4/1 11/4/1 10/4/1
f 20/3/1 10/3/1 19/3/1
f 21/3/1 12/3/1 11/3/1
f 21/4/1 11/4/1 20/4/1
f 22/4/1 13/4/1 12/4/1
f 22/3/1 12/3/1 21/3/1
f 23/3/1 14/3/1 13/3/1
f 23/4/1 13/4/1 22/4/1
f 24/4/1 15/4/1 14/4/1
f 24/3/1 14/3/1 23/3/1
f 25/3/1 16/3/1 15/3/1
f 25/4/1 15/4/1 24/4/1
f 26/4/1 17/4/1 16/4/1
f 26/3/1 16/3/1 25/3/1
f 27/3/1 18/3/1 17/3/1
f 27/4/1 17/4/1 26/4/1
f 28/3/1 18/3/1 27/3/1
f 29/5/1 20/5/1 19/5/1
f 30/4/1 21/4/1 20/4/1
f 30/5/1 20/5/1 29/5/1
f 30/4/1 22/4/1 21/4/1
f 30/4/1 23/4/1 22/4/1
f 31/5/1 24/5/1 23/5/1
f 31/4/1 23/4/1 30/4/1
f 32/4/1 26/4/1 25/4/1
f 32/5/1 24/5/1 31/5/1
f 32/4/1 27/4/1 26/4/1
f 32/4/1 25/4/1 24/4/1
f 33/5/1 28/5/1 27/5/1
f 33/4/1 27/4/1 32/4/1
f 34/5/1 28/5/1 33/5/1
f 35/6/1 31/6/1 30/6/1
f 35/6/1 32/6/1 31/6/1
f 35/6/1 34/6/1 33/6/1
f 35/6/1 33/6/1 32/6/1
f 35/6/1 30/6/1 29/6/1
f 36/6/1 34/6/1 35/6/1
f 37/6/1 35/6/1 29/6/1
f 38/6/1 35/6/1 37/6/1
f 39/6/1 34/6/1 36/6/1
f 40/6/1 34/6/1 39/6/1
f 45/4/1 42/4/1 41/4/1
f 46/4/1 42/4/1 45/4/1
f 47/1/1 44/1/1 43/1/1
f 48/1/1 44/1/1 47/1/1
f 55/2/1 50/2/1 49/2/1
f 55/4/1 51/4/1 50/4/1
f 56/2/1 52/2/1 51/2/1
f 56/4/1 51/4/1 55/4/1
f 57/4/1 53/4/1 52/4/1
f 57/2/1 52/2/1 56/2/1
f 58/2/1 54/2/1 53/2/1
f 58/4/1 53/4/1 57/4/1
f 59/2/1 57/2/1 56/2/1
f 59/2/1 56/2/1 55/2/1
f 59/2/1 58/2/1 57/2/1
f 59/2/1 55/2/1 49/2/1
f 60/2/1 54/2/1 58/2/1
f 60/2/1 58/2/1 59/2/1
f 63/1/1 62/1/1 61/1/1
f 64/1/1 62/1/1 63/1/1
f 69/4/1 66/4/1 65/4/1
f 70/2/1 67/2/1 66/2/1
f 70/4/1 66/4/1 69/4/1
f 71/4/1 68/4/1 67/4/1
f 71/2/1 67/2/1 70/2/1
f 72/4/1 68/4/1 71/4/1
f 78/4/1 74/4/1 73/4/1
f 79/4/1 74/4/1 78/4/1
f 80/4/1 74/4/1 79/4/1
f 81/4/1 74/4/1 80/4/1
f 82/4/1 76/4/1 75/4/1
f 83/4/1 76/4/1 82/4/1
f 84/4/1 76/4/1 83/4/1
f 85/4/1 76/4/1 84/4/1
f 86/3/1 78/3/1 77/3/1
f 87/4/1 79/4/1 78/4/1
f 87/3/1 78/3/1 86/3/1
f 88/3/1 80/3/1 79/3/1
f 88/4/1 79/4/1 87/4/1
f 89/4/1 81/4/1 80/4/1
f 89/3/1 80/3/1 88/3/1
f 90/3/1 82/3/1 81/3/1
f 90/4/1 81/4/1 89/4/1
f 91/4/1 83/4/1 82/4/1
f 91/3/1 82/3/1 90/3/1
f 92/3/1 84/3/1 83/3/1
f 92/4/1 83/4/1 91/4/1
f 93/4/1 85/4/1 84/4/1
f 93/3/1 84/3/1 92/3/1
f 94/4/1 85/4/1 93/4/1
f 95/5/1 87/5/1 86/5/1
f 96/4/1 88/4/1 87/4/1
f 96/5/1 87/5/1 95/5/1
f 96/4/1 89/4/1 88/4/1
f 96/4/1 90/4/1 89/4/1
f 97/5/1 91/5/1 90/5/1
f 97/4/1 90/4/1 96/4/1
f 98/4/1 94/4/1 93/4/1
f 98/5/1 91/5/1 97/5/1
f 98/4/1 93/4/1 92/4/1
f 98/4/1 92/4/1 91/4/1
f 99/4/1 94/4/1 98/4/1
f 100/6/1 97/6/1 96/6/1
f 100/6/1 96/6/1 95/6/1
f 100/6/1 99/6/1 98/6/1
f 100/6/1 98/6/1 97/6/1
f 101/6/1 99/6/1 100/6/1
f 102/4/2 103/4/2 107/4/2
f 107/4/2 103/4/2 108/4/2
f 108/4/2 103/4/2 109/4/2
f 109/4/2 103/4/2 110/4/2
f 104/4/2 105/4/2 111/4/2
f 111/4/2 105/4/2 112/4/2
f 112/4/2 105/4/2 113/4/2
f 113/4/2 105/4/2 114/4/2
f 106/3/2 107/3/2 115/3/2
f 107/4/2 108/4/2 116/4/2
f 115/3/2 107/3/2 116/3/2
f 108/3/2 109/3/2 117/3/2
f 116/4/2 108/4/2 117/4/2
f 109/4/2 110/4/2 118/4/2
f 117/3/2 109/3/2 118/3/2
f 110/3/2 111/3/2 119/3/2
f 118/4/2 110/4/2 119/4/2
f 111/4/2 112/4/2 120/4/2
f 119/3/2 111/3/2 120/3/2
f 112/3/2 113/3/2 121/3/2
f 120/4/2 112/4/2 121/4/2
f 113/4/2 114/4/2 122/4/2
f 121/3/2 113/3/2 122/3/2
f 122/4/2 114/4/2 123/4/2
f 115/5/2 116/5/2 124/5/2
f 116/4/2 117/4/2 125/4/2
f 124/5/2 116/5/2 125/5/2
f 117/4/2 118/4/2 125/4/2
f 118/4/2 119/4/2 125/4/2
f 119/5/2 120/5/2 126/5/2
f 125/4/2 119/4/2 126/4/2
f 122/4/2 123/4/2 127/4/2
f 126/5/2 120/5/2 127/5/2
f 121/4/2 122/4/2 127/4/2
f 120/4/2 121/4/2 127/4/2
f 127/4/2 123/4/2 128/4/2
f 125/6/2 126/6/2 129/6/2
f 124/6/2 125/6/2 129/6/2
f 127/6/2 128/6/2 129/6/2
f 126/6/2 127/6/2 129/6/2
f 129/6/2 128/6/2 130/6/2
f 131/4/2 132/4/2 135/4/2
f 135/4/2 132/4/2 136/4/2
f 133/1/2 134/1/2 137/1/2
f 137/1/2 134/1/2 138/1/2
f 139/4/2 140/4/2 143/4/2
f 140/2/2 141/2/2 144/2/2
f 143/4/2 140/4/2 144/4/2
f 141/4/2 142/4/2 145/4/2
f 144/2/2 141/2/2 145/2/2
f 145/4/2 142/4/2 146/4/2
f 147/1/2 148/1/2 149/1/2
f 149/1/2 148/1/2 150/1/2
f 151/2/2 152/2/2 157/2/2
f 152/4/2 153/4/2 157/4/2
f 153/2/2 154/2/2 158/2/2
f 157/4/2 153/4/2 158/4/2
f 154/4/2 155/4/2 159/4/2
f 158/2/2 154/2/2 159/2/2
f 155/2/2 156/2/2 160/2/2
f 159/4/2 155/4/2 160/4/2
f 158/2/2 159/2/2 161/2/2
f 157/2/2 158/2/2 161/2/2
f 159/2/2 160/2/2 161/2/2
f 151/2/2 157/2/2 161/2/2
f 160/2/2 156/2/2 162/2/2
f 161/2/2 160/2/2 162/2/2
f 163/4/2 164/4/2 168/4/2
f 168/4/2 164/4/2 169/4/2
f 169/4/2 164/4/2 170/4/2
f 170/4/2 164/4/2 171/4/2
f 165/4/2 166/4/2 172/4/2
f 172/4/2 166/4/2 173/4/2
f 173/4/2 166/4/2 174/4/2
f 174/4/2 166/4/2 175/4/2
f 167/3/2 168/3/2 177/3/2
f 168/4/2 169/4/2 178/4/2
f 177/3/2 168/3/2 178/3/2
f 169/3/2 170/3/2 179/3/2
f 178/4/2 169/4/2 179/4/2
f 170/4/2 171/4/2 180/4/2
f 179/3/2 170/3/2 180/3/2
f 171/3/2 172/3/2 181/3/2
f 180/4/2 171/4/2 181/4/2
f 172/4/2 173/4/2 182/4/2
f 181/3/2 172/3/2 182/3/2
f 173/3/2 174/3/2 183/3/2
f 182/4/2 173/4/2 183/4/2
f 174/4/2 175/4/2 184/4/2
f 183/3/2 174/3/2 184/3/2
f 175/3/2 176/3/2 185/3/2
f 184/4/2 175/4/2 185/4/2
f 185/3/2 176/3/2 186/3/2
f 177/5/2 178/5/2 187/5/2
f 178/4/2 179/4/2 188/4/2
f 187/5/2 178/5/2 188/5/2
f 179/4/2 180/4/2 188/4/2
f 180/4/2 181/4/2 188/4/2
f 181/5/2 182/5/2 189/5/2
f 188/4/2 181/4/2 189/4/2
f 183/4/2 184/4/2 190/4/2
f 189/5/2 182/5/2 190/5/2
f 184/4/2 185/4/2 190/4/2
f 182/4/2 183/4/2 190/4/2
f 185/5/2 186/5/2 191/5/2
f 190/4/2 185/4/2 191/4/2
f 191/5/2 186/5/2 192/5/2
f 188/6/2 189/6/2 193/6/2
f 189/6/2 190/6/2 193/6/2
f 191/6/2 192/6/2 193/6/2
f 190/6/2 191/6/2 193/6/2
f 187/6/2 188/6/2 193/6/2
f 193/6/2 192/6/2 194/6/2
f 187/6/2 193/6/2 195/6/2
f 195/6/2 193/6/2 196/6/2
f 194/6/2 192/6/2 197/6/2
f 197/6/2 192/6/2 198/6/2
f 199/6/2 200/6/2 201/6/2
f 201/6/2 200/6/2 202/6/2
f 205/1/3 204/1/3 203/1/3
f 206/1/3 204/1/3 205/1/3
f 209/1/3 208/1/3 207/1/3
f 210/1/3 208/1/3 209/1/3
f 215/5/3 213/5/3 212/5/3
f 215/6/3 214/6/3 213/6/3
f 216/6/3 214/6/3 215/6/3
f 217/5/3 215/5/3 212/5/3
f 218/6/3 214/6/3 216/6/3
f 219/6/3 214/6/3 218/6/3
f 220/5/3 217/5/3 212/5/3
f 220/5/3 218/5/3 217/5/3
f 220/5/3 219/5/3 218/5/3
f 221/5/3 219/5/3 220/5/3
f 222/5/3 219/5/3 221/5/3
f 223/5/3 220/5/3 212/5/3
f 224/6/3 222/6/3 221/6/3
f 225/3/3 212/3/3 211/3/3
f 226/5/3 223/5/3 212/5/3
f 226/3/3 212/3/3 225/3/3
f 227/6/3 224/6/3 223/6/3
f 227/5/3 223/5/3 226/5/3
f 228/6/3 222/6/3 224/6/3
f 228/6/3 224/6/3 227/6/3
f 231/4/3 230/4/3 229/4/3
f 232/4/3 230/4/3 231/4/3
f 235/4/3 234/4/3 233/4/3
f 236/4/3 234/4/3 235/4/3
f 239/2/3 238/2/3 237/2/3
f 240/2/3 238/2/3 239/2/3
f 241/4/3 240/4/3 239/4/3
f 242/2/3 238/2/3 240/2/3
f 242/4/3 240/4/3 241/4/3
f 243/2/3 242/2/3 241/2/3
f 244/2/3 238/2/3 242/2/3
f 244/2/3 242/2/3 243/2/3
f 247/6/3 246/6/3 245/6/3
f 248/6/3 246/6/3 247/6/3
f 251/6/3 250/6/3 249/6/3
f 252/6/3 250/6/3 251/6/3
f 255/4/3 254/4/3 253/4/3
f 256/4/3 254/4/3 255/4/3
f 259/4/3 258/4/3 257/4/3
f 260/4/3 258/4/3 259/4/3
f 263/4/3 262/4/3 261/4/3
f 264/4/3 262/4/3 263/4/3
f 269/5/3 267/5/3 266/5/3
f 269/6/3 268/6/3 267/6/3
f 270/6/3 268/6/3 269/6/3
f 271/5/3 269/5/3 266/5/3
f 271/5/3 270/5/3 269/5/3
f 272/5/3 270/5/3 271/5/3
f 273/3/3 266/3/3 265/3/3
f 274/5/3 271/5/3 266/5/3
f 274/3/3 266/3/3 273/3/3
f 275/6/3 272/6/3 271/6/3
f 275/5/3 271/5/3 274/5/3
f 276/6/3 272/6/3 275/6/3
f 278/5/4 279/5/4 281/5/4
f 279/6/4 280/6/4 281/6/4
f 281/6/4 280/6/4 282/6/4
f 278/5/4 281/5/4 283/5/4
f 281/5/4 282/5/4 283/5/4
f 283/5/4 282/5/4 284/5/4
f 277/3/4 278/3/4 285/3/4
f 278/5/4 283/5/4 286/5/4
f 285/3/4 278/3/4 286/3/4
f 283/6/4 284/6/4 287/6/4
f 286/5/4 283/5/4 287/5/4
f 287/6/4 284/6/4 288/6/4
f 289/4/4 290/4/4 291/4/4
f 291/4/4 290/4/4 292/4/4
f 293/4/4 294/4/4 295/4/4
f 295/4/4 294/4/4 296/4/4
f 297/4/4 298/4/4 299/4/4
f 299/4/4 298/4/4 300/4/4
f 301/6/4 302/6/4 303/6/4
f 303/6/4 302/6/4 304/6/4
f 305/6/4 306/6/4 307/6/4
f 307/6/4 306/6/4 308/6/4
f 309/2/4 310/2/4 311/2/4
f 311/2/4 310/2/4 312/2/4
f 311/4/4 312/4/4 313/4/4
f 312/2/4 310/2/4 314/2/4
f 313/4/4 312/4/4 314/4/4
f 313/2/4 314/2/4 315/2/4
f 314/2/4 310/2/4 316/2/4
f 315/2/4 314/2/4 316/2/4
f 317/4/4 318/4/4 319/4/4
f 319/4/4 318/4/4 320/4/4
f 321/4/4 322/4/4 323/4/4
f 323/4/4 322/4/4 324/4/4
f 325/3/4 326/3/4 329/3/4
f 326/5/4 327/5/4 329/5/4
f 327/6/4 328/6/4 330/6/4
f 329/5/4 327/5/4 330/5/4
f 325/3/4 329/3/4 331/3/4
f 330/6/4 328/6/4 332/6/4
f 332/6/4 328/6/4 333/6/4
f 331/5/4 332/5/4 334/5/4
f 332/5/4 333/5/4 334/5/4
f 334/5/4 333/5/4 335/5/4
f 325/3/4 331/3/4 336/3/4
f 331/5/4 334/5/4 337/5/4
f 336/3/4 331/3/4 337/3/4
f 334/6/4 335/6/4 338/6/4
f 337/5/4 334/5/4 338/5/4
f 338/6/4 335/6/4 339/6/4
f 340/4/4 341/4/4 342/4/4
f 342/4/4 341/4/4 343/4/4
f 348/4/5 345/4/5 344/4/5
f 349/4/5 345/4/5 348/4/5
f 350/4/5 347/4/5 346/4/5
f 351/4/5 347/4/5 350/4/5
f 356/4/5 353/4/5 352/4/5
f 357/4/5 353/4/5 356/4/5
f 358/4/5 355/4/5 354/4/5
f 359/4/5 355/4/5 358/4/5
f 362/3/5 361/3/5 360/3/5
f 363/3/5 361/3/5 362/3/5
f 364/3/5 362/3/5 360/3/5
f 365/3/5 362/3/5 364/3/5
f 366/3/5 361/3/5 363/3/5
f 367/3/5 361/3/5 366/3/5
f 372/3/5 369/3/5 368/3/5
f 373/3/5 369/3/5 372/3/5
f 374/3/5 371/3/5 370/3/5
f 375/3/5 371/3/5 374/3/5
f 380/3/5 377/3/5 376/3/5
f 380/3/5 379/3/5 378/3/5
f 380/3/5 378/3/5 377/3/5
f 381/3/5 379/3/5 380/3/5
f 384/4/5 383/4/5 382/4/5
f 385/4/5 383/4/5 384/4/5
f 390/1/5 387/1/5 386/1/5
f 391/1/5 387/1/5 390/1/5
f 392/1/5 389/1/5 388/1/5
f 393/1/5 389/1/5 392/1/5
f 402/6/5 399/6/5 398/6/5
f 403/6/5 399/6/5 402/6/5
f 404/6/5 401/6/5 400/6/5
f 405/6/5 401/6/5 404/6/5
f 406/6/5 395/6/5 394/6/5
f 407/5/5 396/5/5 395/5/5
f 407/6/5 395/6/5 406/6/5
f 408/6/5 397/6/5 396/6/5
f 408/5/5 396/5/5 407/5/5
f 409/6/5 397/6/5 408/6/5
f 412/2/5 411/2/5 410/2/5
f 413/2/5 411/2/5 412/2/5
f 414/2/5 413/2/5 412/2/5
f 415/2/5 413/2/5 414/2/5
f 416/2/5 415/2/5 414/2/5
f 417/2/5 415/2/5 416/2/5
f 418/4/6 419/4/6 420/4/6
f 420/4/6 419/4/6 421/4/6
f 422/1/6 423/1/6 426/1/6
f 426/1/6 423/1/6 427/1/6
f 424/1/6 425/1/6 428/1/6
f 428/1/6 425/1/6 429/1/6
f 430/6/6 431/6/6 434/6/6
f 431/5/6 432/5/6 435/5/6
f 434/6/6 431/6/6 435/6/6
f 432/6/6 433/6/6 436/6/6
f 435/5/6 432/5/6 436/5/6
f 436/6/6 433/6/6 437/6/6
f 430/6/6 434/6/6 439/6/6
f 439/6/6 434/6/6 440/6/6
f 437/6/6 433/6/6 443/6/6
f 443/6/6 433/6/6 444/6/6
f 438/6/6 439/6/6 446/6/6
f 439/6/6 440/6/6 446/6/6
f 446/6/6 440/6/6 447/6/6
f 444/6/6 445/6/6 448/6/6
f 443/6/6 444/6/6 448/6/6
f 448/6/6 445/6/6 449/6/6
f 447/6/6 440/6/6 450/6/6
f 441/5/6 442/5/6 451/5/6
f 451/5/6 442/5/6 452/5/6
f 443/6/6 448/6/6 453/6/6
f 447/6/6 450/6/6 454/6/6
f 451/5/6 452/5/6 455/5/6
f 455/5/6 452/5/6 456/5/6
f 453/6/6 448/6/6 457/6/6
f 447/6/6 454/6/6 458/6/6
f 455/5/6 456/5/6 459/5/6
f 459/5/6 456/5/6 460/5/6
f 457/6/6 448/6/6 461/6/6
f 447/6/6 458/6/6 462/6/6
f 461/6/6 448/6/6 465/6/6
f 447/6/6 462/6/6 466/6/6
f 462/6/6 463/6/6 466/6/6
f 463/5/6 464/5/6 467/5/6
f 466/6/6 463/6/6 467/6/6
f 464/6/6 465/6/6 468/6/6
f 467/5/6 464/5/6 468/5/6
f 465/6/6 448/6/6 469/6/6
f 468/6/6 465/6/6 469/6/6
f 470/2/6 471/2/6 472/2/6
f 472/2/6 471/2/6 473/2/6
