# MagicaVoxel @ Ephtracy

# group
o 

# material
mtllib realtruck.mtl
usemtl palette

# normals
vn -1 0 0
vn 1 0 0
vn 0 0 1
vn 0 0 -1
vn 0 -1 0
vn 0 1 0

# texcoords
vt 0.00195312 0.5
vt 0.00585938 0.5
vt 0.00976562 0.5
vt 0.0136719 0.5
vt 0.0175781 0.5
vt 0.0214844 0.5
vt 0.0253906 0.5

# verts
v -0.4 0 1.1
v -0.4 0 0.8
v -0.4 0 -0.1
v -0.4 0 -0.4
v -0.4 0.1 1.6
v -0.4 0.1 1.1
v -0.4 0.1 1
v -0.4 0.1 0.9
v -0.4 0.1 0.8
v -0.4 0.1 -0.1
v -0.4 0.1 -0.2
v -0.4 0.1 -0.3
v -0.4 0.1 -0.4
v -0.4 0.1 -0.9
v -0.4 0.2 1.6
v -0.4 0.2 1.1
v -0.4 0.2 1
v -0.4 0.2 0.9
v -0.4 0.2 0.8
v -0.4 0.2 -0.1
v -0.4 0.2 -0.2
v -0.4 0.2 -0.3
v -0.4 0.2 -0.4
v -0.4 0.2 -0.9
v -0.4 0.3 1.5
v -0.4 0.3 1.1
v -0.4 0.3 0.8
v -0.4 0.3 -0.1
v -0.4 0.3 -0.4
v -0.4 0.3 -0.8
v -0.4 0.4 -1.2
v -0.4 0.4 -1.4
v -0.4 0.5 -1.2
v -0.4 0.5 -1.4
v -0.4 1.2 1.5
v -0.4 1.2 -0.8
v -0.4 1.3 1.6
v -0.4 1.3 -0.9
v -0.3 0 -1.1
v -0.3 0 -1.4
v -0.3 0.1 -0.9
v -0.3 0.1 -1.1
v -0.3 0.1 -1.2
v -0.3 0.1 -1.3
v -0.3 0.1 -1.4
v -0.3 0.1 -1.6
v -0.3 0.2 -0.9
v -0.3 0.2 -1
v -0.3 0.2 -1.1
v -0.3 0.2 -1.2
v -0.3 0.2 -1.3
v -0.3 0.2 -1.4
v -0.3 0.2 -1.6
v -0.3 0.3 -1.1
v -0.3 0.3 -1.4
v -0.3 0.4 -1.2
v -0.3 0.4 -1.4
v -0.3 0.5 -1.2
v -0.3 0.5 -1.4
v -0.3 0.5 -1.6
v -0.3 0.7 -1.2
v -0.3 0.7 -1.6
v -0.3 0.9 -1
v -0.3 0.9 -1.3
v -0.3 0.9 -1.6
v -0.3 1 -1.2
v -0.3 1 -1.3
v -0.3 1.1 -1
v -0.3 1.1 -1.2
v 0.3 0 -1.1
v 0.3 0 -1.4
v 0.3 0.1 -1.1
v 0.3 0.1 -1.4
v 0.3 0.2 -1.1
v 0.3 0.2 -1.4
v 0.3 0.3 -1.1
v 0.3 0.3 -1.4
v 0.3 0.5 -1.2
v 0.3 0.5 -1.4
v 0.3 0.7 -1.2
v 0.3 0.7 -1.4
v 0.3 0.8 -1.1
v 0.3 0.8 -1.2
v 0.3 0.8 -1.3
v 0.3 0.8 -1.4
v 0.4 0 1.1
v 0.4 0 0.8
v 0.4 0 -0.1
v 0.4 0 -0.4
v 0.4 0.1 1.5
v 0.4 0.1 1.1
v 0.4 0.1 1
v 0.4 0.1 0.9
v 0.4 0.1 0.8
v 0.4 0.1 -0.1
v 0.4 0.1 -0.2
v 0.4 0.1 -0.3
v 0.4 0.1 -0.4
v 0.4 0.1 -0.8
v 0.4 0.2 1.5
v 0.4 0.2 1.1
v 0.4 0.2 1
v 0.4 0.2 0.9
v 0.4 0.2 0.8
v 0.4 0.2 -0.1
v 0.4 0.2 -0.2
v 0.4 0.2 -0.3
v 0.4 0.2 -0.4
v 0.4 0.2 -0.8
v 0.4 0.3 1.5
v 0.4 0.3 1.1
v 0.4 0.3 0.8
v 0.4 0.3 -0.1
v 0.4 0.3 -0.4
v 0.4 0.3 -0.8
v 0.4 1.2 1.5
v 0.4 1.2 -0.8
v -0.3 0 1.1
v -0.3 0 0.8
v -0.3 0 -0.1
v -0.3 0 -0.4
v -0.3 0.1 1.5
v -0.3 0.1 1.1
v -0.3 0.1 1
v -0.3 0.1 0.9
v -0.3 0.1 0.8
v -0.3 0.1 -0.1
v -0.3 0.1 -0.2
v -0.3 0.1 -0.3
v -0.3 0.1 -0.4
v -0.3 0.1 -0.8
v -0.3 0.2 1.5
v -0.3 0.2 1.1
v -0.3 0.2 1
v -0.3 0.2 0.9
v -0.3 0.2 0.8
v -0.3 0.2 -0.1
v -0.3 0.2 -0.2
v -0.3 0.2 -0.3
v -0.3 0.2 -0.4
v -0.3 0.2 -0.8
v -0.3 0.3 1.5
v -0.3 0.3 1.1
v -0.3 0.3 0.8
v -0.3 0.3 -0.1
v -0.3 0.3 -0.4
v -0.3 0.3 -0.8
v -0.3 1.2 1.5
v -0.3 1.2 -0.8
v -0.2 0 -1.1
v -0.2 0 -1.4
v -0.2 0.1 -1.1
v -0.2 0.1 -1.4
v -0.2 0.2 -1.1
v -0.2 0.2 -1.4
v -0.2 0.3 -1.1
v -0.2 0.3 -1.4
v -0.2 0.5 -1.2
v -0.2 0.5 -1.4
v -0.2 0.7 -1.2
v -0.2 0.7 -1.4
v -0.2 0.8 -1.1
v -0.2 0.8 -1.2
v -0.2 0.8 -1.3
v -0.2 0.8 -1.4
v 0.4 0 -1.1
v 0.4 0 -1.4
v 0.4 0.1 -0.9
v 0.4 0.1 -1.1
v 0.4 0.1 -1.2
v 0.4 0.1 -1.3
v 0.4 0.1 -1.4
v 0.4 0.1 -1.6
v 0.4 0.2 -0.9
v 0.4 0.2 -1
v 0.4 0.2 -1.1
v 0.4 0.2 -1.2
v 0.4 0.2 -1.3
v 0.4 0.2 -1.4
v 0.4 0.2 -1.6
v 0.4 0.3 -1.1
v 0.4 0.3 -1.4
v 0.4 0.4 -1.2
v 0.4 0.4 -1.4
v 0.4 0.5 -1.2
v 0.4 0.5 -1.4
v 0.4 0.5 -1.6
v 0.4 0.7 -1.2
v 0.4 0.7 -1.6
v 0.4 0.9 -1
v 0.4 0.9 -1.3
v 0.4 0.9 -1.6
v 0.4 1 -1.2
v 0.4 1 -1.3
v 0.4 1.1 -1
v 0.4 1.1 -1.2
v 0.5 0 1.1
v 0.5 0 0.8
v 0.5 0 -0.1
v 0.5 0 -0.4
v 0.5 0.1 1.6
v 0.5 0.1 1.1
v 0.5 0.1 1
v 0.5 0.1 0.9
v 0.5 0.1 0.8
v 0.5 0.1 -0.1
v 0.5 0.1 -0.2
v 0.5 0.1 -0.3
v 0.5 0.1 -0.4
v 0.5 0.1 -0.9
v 0.5 0.2 1.6
v 0.5 0.2 1.1
v 0.5 0.2 1
v 0.5 0.2 0.9
v 0.5 0.2 0.8
v 0.5 0.2 -0.1
v 0.5 0.2 -0.2
v 0.5 0.2 -0.3
v 0.5 0.2 -0.4
v 0.5 0.2 -0.9
v 0.5 0.3 1.5
v 0.5 0.3 1.1
v 0.5 0.3 0.8
v 0.5 0.3 -0.1
v 0.5 0.3 -0.4
v 0.5 0.3 -0.8
v 0.5 0.4 -1.2
v 0.5 0.4 -1.4
v 0.5 0.5 -1.2
v 0.5 0.5 -1.4
v 0.5 1.2 1.5
v 0.5 1.2 -0.8
v 0.5 1.3 1.6
v 0.5 1.3 -0.9
v -0.4 0.1 1.6
v -0.4 0.2 1.6
v -0.4 1.3 1.6
v -0.3 0.3 1.6
v -0.3 1.2 1.6
v 0.4 0.3 1.6
v 0.4 1.2 1.6
v 0.5 0.1 1.6
v 0.5 0.2 1.6
v 0.5 1.3 1.6
v -0.4 0 1.1
v -0.4 0.1 1.1
v -0.3 0 1.1
v -0.3 0.1 1.1
v 0.4 0 1.1
v 0.4 0.1 1.1
v 0.5 0 1.1
v 0.5 0.1 1.1
v -0.4 0 -0.1
v -0.4 0.1 -0.1
v -0.3 0 -0.1
v -0.3 0.1 -0.1
v 0.4 0 -0.1
v 0.4 0.1 -0.1
v 0.5 0 -0.1
v 0.5 0.1 -0.1
v -0.3 0.1 -0.8
v -0.3 0.2 -0.8
v -0.3 0.3 -0.8
v -0.3 1.2 -0.8
v 0.4 0.1 -0.8
v 0.4 0.2 -0.8
v 0.4 0.3 -0.8
v 0.4 1.2 -0.8
v -0.3 0.2 -1
v -0.3 0.9 -1
v -0.3 1.1 -1
v 0.4 0.2 -1
v 0.4 0.9 -1
v 0.4 1.1 -1
v -0.3 0 -1.1
v -0.3 0.1 -1.1
v -0.2 0 -1.1
v -0.2 0.1 -1.1
v 0.3 0 -1.1
v 0.3 0.1 -1.1
v 0.4 0 -1.1
v 0.4 0.1 -1.1
v -0.4 0.4 -1.2
v -0.4 0.5 -1.2
v -0.3 0.4 -1.2
v -0.3 0.5 -1.2
v 0.4 0.4 -1.2
v 0.4 0.5 -1.2
v 0.5 0.4 -1.2
v 0.5 0.5 -1.2
v -0.2 0.2 -1.4
v -0.2 0.3 -1.4
v -0.2 0.5 -1.4
v -0.2 0.7 -1.4
v -0.2 0.8 -1.4
v 0.3 0.2 -1.4
v 0.3 0.3 -1.4
v 0.3 0.5 -1.4
v 0.3 0.7 -1.4
v 0.3 0.8 -1.4
v -0.3 0.1 1.5
v -0.3 0.2 1.5
v -0.3 0.3 1.5
v -0.3 1.2 1.5
v 0.4 0.1 1.5
v 0.4 0.2 1.5
v 0.4 0.3 1.5
v 0.4 1.2 1.5
v -0.4 0 0.8
v -0.4 0.1 0.8
v -0.3 0 0.8
v -0.3 0.1 0.8
v 0.4 0 0.8
v 0.4 0.1 0.8
v 0.5 0 0.8
v 0.5 0.1 0.8
v -0.4 0 -0.4
v -0.4 0.1 -0.4
v -0.3 0 -0.4
v -0.3 0.1 -0.4
v 0.4 0 -0.4
v 0.4 0.1 -0.4
v 0.5 0 -0.4
v 0.5 0.1 -0.4
v -0.4 0.1 -0.9
v -0.4 0.2 -0.9
v -0.4 1.3 -0.9
v -0.3 0.1 -0.9
v -0.3 0.2 -0.9
v 0.4 0.1 -0.9
v 0.4 0.2 -0.9
v 0.5 0.1 -0.9
v 0.5 0.2 -0.9
v 0.5 1.3 -0.9
v -0.2 0.2 -1.1
v -0.2 0.3 -1.1
v -0.2 0.8 -1.1
v 0.3 0.2 -1.1
v 0.3 0.3 -1.1
v 0.3 0.8 -1.1
v -0.3 1 -1.2
v -0.3 1.1 -1.2
v 0.4 1 -1.2
v 0.4 1.1 -1.2
v -0.3 0.9 -1.3
v -0.3 1 -1.3
v 0.4 0.9 -1.3
v 0.4 1 -1.3
v -0.4 0.4 -1.4
v -0.4 0.5 -1.4
v -0.3 0 -1.4
v -0.3 0.1 -1.4
v -0.3 0.4 -1.4
v -0.3 0.5 -1.4
v -0.2 0 -1.4
v -0.2 0.1 -1.4
v 0.3 0 -1.4
v 0.3 0.1 -1.4
v 0.4 0 -1.4
v 0.4 0.1 -1.4
v 0.4 0.4 -1.4
v 0.4 0.5 -1.4
v 0.5 0.4 -1.4
v 0.5 0.5 -1.4
v -0.3 0.1 -1.6
v -0.3 0.2 -1.6
v -0.3 0.5 -1.6
v -0.3 0.7 -1.6
v -0.3 0.9 -1.6
v 0.4 0.1 -1.6
v 0.4 0.2 -1.6
v 0.4 0.5 -1.6
v 0.4 0.7 -1.6
v 0.4 0.9 -1.6
v -0.4 0 1.1
v -0.3 0 1.1
v 0.4 0 1.1
v 0.5 0 1.1
v -0.4 0 0.8
v -0.3 0 0.8
v 0.4 0 0.8
v 0.5 0 0.8
v -0.4 0 -0.1
v -0.3 0 -0.1
v 0.4 0 -0.1
v 0.5 0 -0.1
v -0.4 0 -0.4
v -0.3 0 -0.4
v 0.4 0 -0.4
v 0.5 0 -0.4
v -0.3 0 -1.1
v -0.2 0 -1.1
v 0.3 0 -1.1
v 0.4 0 -1.1
v -0.3 0 -1.4
v -0.2 0 -1.4
v 0.3 0 -1.4
v 0.4 0 -1.4
v -0.4 0.1 1.6
v 0.5 0.1 1.6
v -0.3 0.1 1.5
v 0.4 0.1 1.5
v -0.4 0.1 1.1
v -0.3 0.1 1.1
v 0.4 0.1 1.1
v 0.5 0.1 1.1
v -0.4 0.1 0.8
v -0.3 0.1 0.8
v 0.4 0.1 0.8
v 0.5 0.1 0.8
v -0.4 0.1 -0.1
v -0.3 0.1 -0.1
v 0.4 0.1 -0.1
v 0.5 0.1 -0.1
v -0.4 0.1 -0.4
v -0.3 0.1 -0.4
v 0.4 0.1 -0.4
v 0.5 0.1 -0.4
v -0.3 0.1 -0.8
v 0.4 0.1 -0.8
v -0.4 0.1 -0.9
v -0.3 0.1 -0.9
v 0.4 0.1 -0.9
v 0.5 0.1 -0.9
v -0.3 0.1 -1.1
v -0.2 0.1 -1.1
v 0.3 0.1 -1.1
v 0.4 0.1 -1.1
v -0.3 0.1 -1.4
v -0.2 0.1 -1.4
v 0.3 0.1 -1.4
v 0.4 0.1 -1.4
v -0.3 0.1 -1.6
v 0.4 0.1 -1.6
v -0.4 0.4 -1.2
v -0.3 0.4 -1.2
v 0.4 0.4 -1.2
v 0.5 0.4 -1.2
v -0.4 0.4 -1.4
v -0.3 0.4 -1.4
v 0.4 0.4 -1.4
v 0.5 0.4 -1.4
v -0.2 0.8 -1.1
v 0.3 0.8 -1.1
v -0.2 0.8 -1.2
v 0.3 0.8 -1.2
v -0.2 0.8 -1.3
v 0.3 0.8 -1.3
v -0.2 0.8 -1.4
v 0.3 0.8 -1.4
v -0.3 1.2 1.5
v 0.4 1.2 1.5
v -0.3 1.2 -0.8
v 0.4 1.2 -0.8
v -0.3 0.2 -0.9
v 0.4 0.2 -0.9
v -0.3 0.2 -1
v 0.4 0.2 -1
v -0.2 0.2 -1.1
v 0.3 0.2 -1.1
v -0.2 0.2 -1.4
v 0.3 0.2 -1.4
v -0.4 0.5 -1.2
v -0.3 0.5 -1.2
v 0.4 0.5 -1.2
v 0.5 0.5 -1.2
v -0.4 0.5 -1.4
v -0.3 0.5 -1.4
v 0.4 0.5 -1.4
v 0.5 0.5 -1.4
v -0.3 0.9 -1.3
v 0.4 0.9 -1.3
v -0.3 0.9 -1.6
v 0.4 0.9 -1.6
v -0.3 1 -1.2
v 0.4 1 -1.2
v -0.3 1 -1.3
v 0.4 1 -1.3
v -0.3 1.1 -1
v 0.4 1.1 -1
v -0.3 1.1 -1.2
v 0.4 1.1 -1.2
v -0.4 1.3 1.6
v 0.5 1.3 1.6
v -0.3 1.3 1.5
v 0.4 1.3 1.5
v -0.3 1.3 -0.8
v 0.4 1.3 -0.8
v -0.4 1.3 -0.9
v 0.5 1.3 -0.9

# faces
f 6/1/1 2/1/1 1/1/1
f 7/1/1 2/1/1 6/1/1
f 8/1/1 2/1/1 7/1/1
f 9/1/1 2/1/1 8/1/1
f 10/1/1 4/1/1 3/1/1
f 11/1/1 4/1/1 10/1/1
f 12/1/1 4/1/1 11/1/1
f 13/1/1 4/1/1 12/1/1
f 15/2/1 6/2/1 5/2/1
f 16/1/1 7/1/1 6/1/1
f 16/2/1 6/2/1 15/2/1
f 17/2/1 8/2/1 7/2/1
f 17/1/1 7/1/1 16/1/1
f 18/1/1 9/1/1 8/1/1
f 18/2/1 8/2/1 17/2/1
f 19/2/1 10/2/1 9/2/1
f 19/1/1 9/1/1 18/1/1
f 20/1/1 11/1/1 10/1/1
f 20/2/1 10/2/1 19/2/1
f 21/2/1 12/2/1 11/2/1
f 21/1/1 11/1/1 20/1/1
f 22/1/1 13/1/1 12/1/1
f 22/2/1 12/2/1 21/2/1
f 23/2/1 14/2/1 13/2/1
f 23/1/1 13/1/1 22/1/1
f 24/2/1 14/2/1 23/2/1
f 25/4/1 16/4/1 15/4/1
f 26/1/1 17/1/1 16/1/1
f 26/4/1 16/4/1 25/4/1
f 26/1/1 18/1/1 17/1/1
f 26/1/1 19/1/1 18/1/1
f 27/4/1 20/4/1 19/4/1
f 27/1/1 19/1/1 26/1/1
f 28/1/1 22/1/1 21/1/1
f 28/4/1 20/4/1 27/4/1
f 28/1/1 23/1/1 22/1/1
f 28/1/1 21/1/1 20/1/1
f 29/4/1 24/4/1 23/4/1
f 29/1/1 23/1/1 28/1/1
f 30/4/1 24/4/1 29/4/1
f 33/3/1 32/3/1 31/3/1
f 34/3/1 32/3/1 33/3/1
f 35/4/1 25/4/1 15/4/1
f 35/7/1 27/7/1 26/7/1
f 35/7/1 28/7/1 27/7/1
f 35/7/1 30/7/1 29/7/1
f 35/7/1 29/7/1 28/7/1
f 35/7/1 26/7/1 25/7/1
f 36/4/1 24/4/1 30/4/1
f 36/7/1 30/7/1 35/7/1
f 37/4/1 35/4/1 15/4/1
f 37/4/1 36/4/1 35/4/1
f 38/4/1 24/4/1 36/4/1
f 38/4/1 36/4/1 37/4/1
f 42/1/1 40/1/1 39/1/1
f 43/1/1 40/1/1 42/1/1
f 44/1/1 40/1/1 43/1/1
f 45/1/1 40/1/1 44/1/1
f 47/2/1 42/2/1 41/2/1
f 48/2/1 42/2/1 47/2/1
f 49/1/1 43/1/1 42/1/1
f 49/2/1 42/2/1 48/2/1
f 50/2/1 44/2/1 43/2/1
f 50/1/1 43/1/1 49/1/1
f 51/1/1 45/1/1 44/1/1
f 51/2/1 44/2/1 50/2/1
f 52/2/1 46/2/1 45/2/1
f 52/1/1 45/1/1 51/1/1
f 53/2/1 46/2/1 52/2/1
f 54/1/1 51/1/1 50/1/1
f 54/3/1 49/3/1 48/3/1
f 54/1/1 52/1/1 51/1/1
f 54/1/1 50/1/1 49/1/1
f 55/3/1 53/3/1 52/3/1
f 55/1/1 52/1/1 54/1/1
f 56/3/1 55/3/1 54/3/1
f 57/3/1 53/3/1 55/3/1
f 57/3/1 55/3/1 56/3/1
f 58/3/1 56/3/1 54/3/1
f 59/3/1 53/3/1 57/3/1
f 60/3/1 53/3/1 59/3/1
f 61/3/1 58/3/1 54/3/1
f 61/1/1 59/1/1 58/1/1
f 61/1/1 60/1/1 59/1/1
f 62/1/1 60/1/1 61/1/1
f 63/3/1 54/3/1 48/3/1
f 63/3/1 61/3/1 54/3/1
f 63/3/1 62/3/1 61/3/1
f 64/3/1 62/3/1 63/3/1
f 65/3/1 62/3/1 64/3/1
f 66/7/1 64/7/1 63/7/1
f 67/7/1 64/7/1 66/7/1
f 68/7/1 66/7/1 63/7/1
f 69/7/1 66/7/1 68/7/1
f 72/1/1 71/1/1 70/1/1
f 73/1/1 71/1/1 72/1/1
f 76/1/1 75/1/1 74/1/1
f 77/1/1 75/1/1 76/1/1
f 78/3/1 77/3/1 76/3/1
f 79/3/1 77/3/1 78/3/1
f 80/3/1 78/3/1 76/3/1
f 80/1/1 79/1/1 78/1/1
f 81/1/1 79/1/1 80/1/1
f 82/3/1 80/3/1 76/3/1
f 82/3/1 81/3/1 80/3/1
f 83/3/1 81/3/1 82/3/1
f 84/3/1 81/3/1 83/3/1
f 85/3/1 81/3/1 84/3/1
f 91/1/1 87/1/1 86/1/1
f 92/1/1 87/1/1 91/1/1
f 93/1/1 87/1/1 92/1/1
f 94/1/1 87/1/1 93/1/1
f 95/1/1 89/1/1 88/1/1
f 96/1/1 89/1/1 95/1/1
f 97/1/1 89/1/1 96/1/1
f 98/1/1 89/1/1 97/1/1
f 100/2/1 91/2/1 90/2/1
f 101/1/1 92/1/1 91/1/1
f 101/2/1 91/2/1 100/2/1
f 102/2/1 93/2/1 92/2/1
f 102/1/1 92/1/1 101/1/1
f 103/1/1 94/1/1 93/1/1
f 103/2/1 93/2/1 102/2/1
f 104/2/1 95/2/1 94/2/1
f 104/1/1 94/1/1 103/1/1
f 105/1/1 96/1/1 95/1/1
f 105/2/1 95/2/1 104/2/1
f 106/2/1 97/2/1 96/2/1
f 106/1/1 96/1/1 105/1/1
f 107/1/1 98/1/1 97/1/1
f 107/2/1 97/2/1 106/2/1
f 108/2/1 99/2/1 98/2/1
f 108/1/1 98/1/1 107/1/1
f 109/2/1 99/2/1 108/2/1
f 110/4/1 101/4/1 100/4/1
f 111/1/1 102/1/1 101/1/1
f 111/4/1 101/4/1 110/4/1
f 111/1/1 103/1/1 102/1/1
f 111/1/1 104/1/1 103/1/1
f 112/4/1 105/4/1 104/4/1
f 112/1/1 104/1/1 111/1/1
f 113/1/1 107/1/1 106/1/1
f 113/4/1 105/4/1 112/4/1
f 113/1/1 108/1/1 107/1/1
f 113/1/1 106/1/1 105/1/1
f 114/4/1 109/4/1 108/4/1
f 114/1/1 108/1/1 113/1/1
f 115/4/1 109/4/1 114/4/1
f 116/7/1 112/7/1 111/7/1
f 116/7/1 113/7/1 112/7/1
f 116/7/1 115/7/1 114/7/1
f 116/7/1 114/7/1 113/7/1
f 116/7/1 111/7/1 110/7/1
f 117/7/1 115/7/1 116/7/1
f 118/1/2 119/1/2 123/1/2
f 123/1/2 119/1/2 124/1/2
f 124/1/2 119/1/2 125/1/2
f 125/1/2 119/1/2 126/1/2
f 120/1/2 121/1/2 127/1/2
f 127/1/2 121/1/2 128/1/2
f 128/1/2 121/1/2 129/1/2
f 129/1/2 121/1/2 130/1/2
f 122/2/2 123/2/2 132/2/2
f 123/1/2 124/1/2 133/1/2
f 132/2/2 123/2/2 133/2/2
f 124/2/2 125/2/2 134/2/2
f 133/1/2 124/1/2 134/1/2
f 125/1/2 126/1/2 135/1/2
f 134/2/2 125/2/2 135/2/2
f 126/2/2 127/2/2 136/2/2
f 135/1/2 126/1/2 136/1/2
f 127/1/2 128/1/2 137/1/2
f 136/2/2 127/2/2 137/2/2
f 128/2/2 129/2/2 138/2/2
f 137/1/2 128/1/2 138/1/2
f 129/1/2 130/1/2 139/1/2
f 138/2/2 129/2/2 139/2/2
f 130/2/2 131/2/2 140/2/2
f 139/1/2 130/1/2 140/1/2
f 140/2/2 131/2/2 141/2/2
f 132/4/2 133/4/2 142/4/2
f 133/1/2 134/1/2 143/1/2
f 142/4/2 133/4/2 143/4/2
f 134/1/2 135/1/2 143/1/2
f 135/1/2 136/1/2 143/1/2
f 136/4/2 137/4/2 144/4/2
f 143/1/2 136/1/2 144/1/2
f 138/1/2 139/1/2 145/1/2
f 144/4/2 137/4/2 145/4/2
f 139/1/2 140/1/2 145/1/2
f 137/1/2 138/1/2 145/1/2
f 140/4/2 141/4/2 146/4/2
f 145/1/2 140/1/2 146/1/2
f 146/4/2 141/4/2 147/4/2
f 143/7/2 144/7/2 148/7/2
f 144/7/2 145/7/2 148/7/2
f 146/7/2 147/7/2 148/7/2
f 145/7/2 146/7/2 148/7/2
f 142/7/2 143/7/2 148/7/2
f 148/7/2 147/7/2 149/7/2
f 150/1/2 151/1/2 152/1/2
f 152/1/2 151/1/2 153/1/2
f 154/1/2 155/1/2 156/1/2
f 156/1/2 155/1/2 157/1/2
f 156/3/2 157/3/2 158/3/2
f 158/3/2 157/3/2 159/3/2
f 156/3/2 158/3/2 160/3/2
f 158/1/2 159/1/2 160/1/2
f 160/1/2 159/1/2 161/1/2
f 156/3/2 160/3/2 162/3/2
f 160/3/2 161/3/2 162/3/2
f 162/3/2 161/3/2 163/3/2
f 163/3/2 161/3/2 164/3/2
f 164/3/2 161/3/2 165/3/2
f 166/1/2 167/1/2 169/1/2
f 169/1/2 167/1/2 170/1/2
f 170/1/2 167/1/2 171/1/2
f 171/1/2 167/1/2 172/1/2
f 168/2/2 169/2/2 174/2/2
f 174/2/2 169/2/2 175/2/2
f 169/1/2 170/1/2 176/1/2
f 175/2/2 169/2/2 176/2/2
f 170/2/2 171/2/2 177/2/2
f 176/1/2 170/1/2 177/1/2
f 171/1/2 172/1/2 178/1/2
f 177/2/2 171/2/2 178/2/2
f 172/2/2 173/2/2 179/2/2
f 178/1/2 172/1/2 179/1/2
f 179/2/2 173/2/2 180/2/2
f 177/1/2 178/1/2 181/1/2
f 175/3/2 176/3/2 181/3/2
f 178/1/2 179/1/2 181/1/2
f 176/1/2 177/1/2 181/1/2
f 179/3/2 180/3/2 182/3/2
f 181/1/2 179/1/2 182/1/2
f 181/3/2 182/3/2 183/3/2
f 182/3/2 180/3/2 184/3/2
f 183/3/2 182/3/2 184/3/2
f 181/3/2 183/3/2 185/3/2
f 184/3/2 180/3/2 186/3/2
f 186/3/2 180/3/2 187/3/2
f 181/3/2 185/3/2 188/3/2
f 185/1/2 186/1/2 188/1/2
f 186/1/2 187/1/2 188/1/2
f 188/1/2 187/1/2 189/1/2
f 175/3/2 181/3/2 190/3/2
f 181/3/2 188/3/2 190/3/2
f 188/3/2 189/3/2 190/3/2
f 190/3/2 189/3/2 191/3/2
f 191/3/2 189/3/2 192/3/2
f 190/7/2 191/7/2 193/7/2
f 193/7/2 191/7/2 194/7/2
f 190/7/2 193/7/2 195/7/2
f 195/7/2 193/7/2 196/7/2
f 197/1/2 198/1/2 202/1/2
f 202/1/2 198/1/2 203/1/2
f 203/1/2 198/1/2 204/1/2
f 204/1/2 198/1/2 205/1/2
f 199/1/2 200/1/2 206/1/2
f 206/1/2 200/1/2 207/1/2
f 207/1/2 200/1/2 208/1/2
f 208/1/2 200/1/2 209/1/2
f 201/2/2 202/2/2 211/2/2
f 202/1/2 203/1/2 212/1/2
f 211/2/2 202/2/2 212/2/2
f 203/2/2 204/2/2 213/2/2
f 212/1/2 203/1/2 213/1/2
f 204/1/2 205/1/2 214/1/2
f 213/2/2 204/2/2 214/2/2
f 205/2/2 206/2/2 215/2/2
f 214/1/2 205/1/2 215/1/2
f 206/1/2 207/1/2 216/1/2
f 215/2/2 206/2/2 216/2/2
f 207/2/2 208/2/2 217/2/2
f 216/1/2 207/1/2 217/1/2
f 208/1/2 209/1/2 218/1/2
f 217/2/2 208/2/2 218/2/2
f 209/2/2 210/2/2 219/2/2
f 218/1/2 209/1/2 219/1/2
f 219/2/2 210/2/2 220/2/2
f 211/4/2 212/4/2 221/4/2
f 212/1/2 213/1/2 222/1/2
f 221/4/2 212/4/2 222/4/2
f 213/1/2 214/1/2 222/1/2
f 214/1/2 215/1/2 222/1/2
f 215/4/2 216/4/2 223/4/2
f 222/1/2 215/1/2 223/1/2
f 217/1/2 218/1/2 224/1/2
f 223/4/2 216/4/2 224/4/2
f 218/1/2 219/1/2 224/1/2
f 216/1/2 217/1/2 224/1/2
f 219/4/2 220/4/2 225/4/2
f 224/1/2 219/1/2 225/1/2
f 225/4/2 220/4/2 226/4/2
f 227/3/2 228/3/2 229/3/2
f 229/3/2 228/3/2 230/3/2
f 211/4/2 221/4/2 231/4/2
f 222/7/2 223/7/2 231/7/2
f 223/7/2 224/7/2 231/7/2
f 225/7/2 226/7/2 231/7/2
f 224/7/2 225/7/2 231/7/2
f 221/7/2 222/7/2 231/7/2
f 226/4/2 220/4/2 232/4/2
f 231/7/2 226/7/2 232/7/2
f 211/4/2 231/4/2 233/4/2
f 231/4/2 232/4/2 233/4/2
f 232/4/2 220/4/2 234/4/2
f 233/4/2 232/4/2 234/4/2
f 238/4/3 237/4/3 236/4/3
f 239/4/3 237/4/3 238/4/3
f 240/4/3 238/4/3 236/4/3
f 240/7/3 239/7/3 238/7/3
f 241/4/3 237/4/3 239/4/3
f 241/7/3 239/7/3 240/7/3
f 242/2/3 236/2/3 235/2/3
f 243/4/3 240/4/3 236/4/3
f 243/2/3 236/2/3 242/2/3
f 243/4/3 241/4/3 240/4/3
f 244/4/3 237/4/3 241/4/3
f 244/4/3 241/4/3 243/4/3
f 247/1/3 246/1/3 245/1/3
f 248/1/3 246/1/3 247/1/3
f 251/1/3 250/1/3 249/1/3
f 252/1/3 250/1/3 251/1/3
f 255/1/3 254/1/3 253/1/3
f 256/1/3 254/1/3 255/1/3
f 259/1/3 258/1/3 257/1/3
f 260/1/3 258/1/3 259/1/3
f 265/2/3 262/2/3 261/2/3
f 266/4/3 264/4/3 263/4/3
f 266/2/3 262/2/3 265/2/3
f 266/4/3 263/4/3 262/4/3
f 267/4/3 264/4/3 266/4/3
f 268/4/3 264/4/3 267/4/3
f 272/3/3 270/3/3 269/3/3
f 273/7/3 271/7/3 270/7/3
f 273/3/3 270/3/3 272/3/3
f 274/7/3 271/7/3 273/7/3
f 277/1/3 276/1/3 275/1/3
f 278/1/3 276/1/3 277/1/3
f 281/1/3 280/1/3 279/1/3
f 282/1/3 280/1/3 281/1/3
f 285/3/3 284/3/3 283/3/3
f 286/3/3 284/3/3 285/3/3
f 289/3/3 288/3/3 287/3/3
f 290/3/3 288/3/3 289/3/3
f 296/3/3 292/3/3 291/3/3
f 296/3/3 293/3/3 292/3/3
f 297/3/3 293/3/3 296/3/3
f 298/1/3 294/1/3 293/1/3
f 298/3/3 293/3/3 297/3/3
f 299/6/3 295/6/3 294/6/3
f 299/1/3 294/1/3 298/1/3
f 300/6/3 295/6/3 299/6/3
f 301/2/4 302/2/4 305/2/4
f 302/4/4 303/4/4 306/4/4
f 305/2/4 302/2/4 306/2/4
f 303/7/4 304/7/4 307/7/4
f 306/4/4 303/4/4 307/4/4
f 307/7/4 304/7/4 308/7/4
f 309/1/4 310/1/4 311/1/4
f 311/1/4 310/1/4 312/1/4
f 313/1/4 314/1/4 315/1/4
f 315/1/4 314/1/4 316/1/4
f 317/1/4 318/1/4 319/1/4
f 319/1/4 318/1/4 320/1/4
f 321/1/4 322/1/4 323/1/4
f 323/1/4 322/1/4 324/1/4
f 325/2/4 326/2/4 328/2/4
f 326/4/4 327/4/4 329/4/4
f 328/2/4 326/2/4 329/2/4
f 329/4/4 327/4/4 331/4/4
f 330/2/4 331/2/4 332/2/4
f 331/4/4 327/4/4 333/4/4
f 332/2/4 331/2/4 333/2/4
f 333/4/4 327/4/4 334/4/4
f 335/3/4 336/3/4 338/3/4
f 336/3/4 337/3/4 338/3/4
f 338/3/4 337/3/4 339/3/4
f 339/3/4 337/3/4 340/3/4
f 341/7/4 342/7/4 343/7/4
f 343/7/4 342/7/4 344/7/4
f 345/7/4 346/7/4 347/7/4
f 347/7/4 346/7/4 348/7/4
f 349/3/4 350/3/4 353/3/4
f 353/3/4 350/3/4 354/3/4
f 351/1/4 352/1/4 355/1/4
f 355/1/4 352/1/4 356/1/4
f 357/1/4 358/1/4 359/1/4
f 359/1/4 358/1/4 360/1/4
f 361/3/4 362/3/4 363/3/4
f 363/3/4 362/3/4 364/3/4
f 365/2/4 366/2/4 370/2/4
f 366/3/4 367/3/4 371/3/4
f 370/2/4 366/2/4 371/2/4
f 367/1/4 368/1/4 372/1/4
f 371/3/4 367/3/4 372/3/4
f 368/3/4 369/3/4 373/3/4
f 372/1/4 368/1/4 373/1/4
f 373/3/4 369/3/4 374/3/4
f 379/1/5 376/1/5 375/1/5
f 380/1/5 376/1/5 379/1/5
f 381/1/5 378/1/5 377/1/5
f 382/1/5 378/1/5 381/1/5
f 387/1/5 384/1/5 383/1/5
f 388/1/5 384/1/5 387/1/5
f 389/1/5 386/1/5 385/1/5
f 390/1/5 386/1/5 389/1/5
f 395/1/5 392/1/5 391/1/5
f 396/1/5 392/1/5 395/1/5
f 397/1/5 394/1/5 393/1/5
f 398/1/5 394/1/5 397/1/5
f 401/2/5 400/2/5 399/2/5
f 402/2/5 400/2/5 401/2/5
f 403/2/5 401/2/5 399/2/5
f 404/2/5 401/2/5 403/2/5
f 405/2/5 400/2/5 402/2/5
f 406/2/5 400/2/5 405/2/5
f 411/2/5 408/2/5 407/2/5
f 412/2/5 408/2/5 411/2/5
f 413/2/5 410/2/5 409/2/5
f 414/2/5 410/2/5 413/2/5
f 419/2/5 416/2/5 415/2/5
f 420/2/5 418/2/5 417/2/5
f 421/2/5 419/2/5 415/2/5
f 421/2/5 420/2/5 419/2/5
f 422/2/5 420/2/5 421/2/5
f 423/2/5 418/2/5 420/2/5
f 423/2/5 420/2/5 422/2/5
f 424/2/5 418/2/5 423/2/5
f 425/2/5 423/2/5 422/2/5
f 426/2/5 423/2/5 425/2/5
f 427/2/5 423/2/5 426/2/5
f 428/2/5 423/2/5 427/2/5
f 430/2/5 427/2/5 426/2/5
f 431/2/5 427/2/5 430/2/5
f 433/2/5 430/2/5 429/2/5
f 433/2/5 432/2/5 431/2/5
f 433/2/5 431/2/5 430/2/5
f 434/2/5 432/2/5 433/2/5
f 439/3/5 436/3/5 435/3/5
f 440/3/5 436/3/5 439/3/5
f 441/3/5 438/3/5 437/3/5
f 442/3/5 438/3/5 441/3/5
f 445/3/5 444/3/5 443/3/5
f 446/3/5 444/3/5 445/3/5
f 447/5/5 446/5/5 445/5/5
f 448/5/5 446/5/5 447/5/5
f 449/3/5 448/3/5 447/3/5
f 450/3/5 448/3/5 449/3/5
f 453/7/5 452/7/5 451/7/5
f 454/7/5 452/7/5 453/7/5
f 455/2/6 456/2/6 457/2/6
f 457/2/6 456/2/6 458/2/6
f 459/2/6 460/2/6 461/2/6
f 461/2/6 460/2/6 462/2/6
f 463/3/6 464/3/6 467/3/6
f 467/3/6 464/3/6 468/3/6
f 465/3/6 466/3/6 469/3/6
f 469/3/6 466/3/6 470/3/6
f 471/3/6 472/3/6 473/3/6
f 473/3/6 472/3/6 474/3/6
f 475/7/6 476/7/6 477/7/6
f 477/7/6 476/7/6 478/7/6
f 479/7/6 480/7/6 481/7/6
f 481/7/6 480/7/6 482/7/6
f 483/4/6 484/4/6 485/4/6
f 485/4/6 484/4/6 486/4/6
f 483/4/6 485/4/6 487/4/6
f 485/7/6 486/7/6 487/7/6
f 486/4/6 484/4/6 488/4/6
f 487/7/6 486/7/6 488/7/6
f 483/4/6 487/4/6 489/4/6
f 487/4/6 488/4/6 489/4/6
f 488/4/6 484/4/6 490/4/6
f 489/4/6 488/4/6 490/4/6
