# MagicaVoxel @ Ephtracy

# group
o 

# material
mtllib Big_Tree.mtl
usemtl palette

# normals
vn -1 0 0
vn 1 0 0
vn 0 0 1
vn 0 0 -1
vn 0 -1 0
vn 0 1 0

# texcoords
vt 0.00195312 0.5
vt 0.00585938 0.5
vt 0.00976562 0.5
vt 0.0136719 0.5

# verts
v 0.3 0.2 0.1
v 0.3 0.2 -0.3
v 0.3 0.3 0.1
v 0.3 0.3 -0.3
v 0.3 0.6 0.1
v 0.3 0.6 -0.3
v 0.3 1 0.1
v 0.3 1 -0.3
v 0.4 0 1.49012e-08
v 0.4 0 -0.2
v 0.4 0.2 1.49012e-08
v 0.4 0.2 -0.2
v 0.6 0 1.49012e-08
v 0.6 0 -0.2
v 0.6 0.2 1.49012e-08
v 0.6 0.2 -0.2
v 0.7 0.2 0.1
v 0.7 0.2 -0.3
v 0.7 0.3 0.1
v 0.7 0.3 -0.3
v 0.7 0.6 0.1
v 0.7 0.6 -0.3
v 0.7 1 0.1
v 0.7 1 -0.3
v 0.3 0.2 0.1
v 0.3 0.3 0.1
v 0.3 0.6 0.1
v 0.3 1 0.1
v 0.7 0.2 0.1
v 0.7 0.3 0.1
v 0.7 0.6 0.1
v 0.7 1 0.1
v 0.4 0 1.49012e-08
v 0.4 0.2 1.49012e-08
v 0.6 0 1.49012e-08
v 0.6 0.2 1.49012e-08
v 0.4 0 -0.2
v 0.4 0.2 -0.2
v 0.6 0 -0.2
v 0.6 0.2 -0.2
v 0.3 0.2 -0.3
v 0.3 0.3 -0.3
v 0.3 0.6 -0.3
v 0.3 1 -0.3
v 0.7 0.2 -0.3
v 0.7 0.3 -0.3
v 0.7 0.6 -0.3
v 0.7 1 -0.3
v 0.4 0 1.49012e-08
v 0.6 0 1.49012e-08
v 0.4 0 -0.2
v 0.6 0 -0.2
v 0.3 0.2 0.1
v 0.7 0.2 0.1
v 0.4 0.2 1.49012e-08
v 0.6 0.2 1.49012e-08
v 0.4 0.2 -0.2
v 0.6 0.2 -0.2
v 0.3 0.2 -0.3
v 0.7 0.2 -0.3
v 0.3 1 0.1
v 0.7 1 0.1
v 0.3 1 -0.3
v 0.7 1 -0.3

# faces
f 3/3/1 2/3/1 1/3/1
f 4/3/1 2/3/1 3/3/1
f 5/1/1 4/1/1 3/1/1
f 6/1/1 4/1/1 5/1/1
f 7/4/1 6/4/1 5/4/1
f 8/4/1 6/4/1 7/4/1
f 11/2/1 10/2/1 9/2/1
f 12/2/1 10/2/1 11/2/1
f 13/2/2 14/2/2 15/2/2
f 15/2/2 14/2/2 16/2/2
f 17/3/2 18/3/2 19/3/2
f 19/3/2 18/3/2 20/3/2
f 19/1/2 20/1/2 21/1/2
f 21/1/2 20/1/2 22/1/2
f 21/4/2 22/4/2 23/4/2
f 23/4/2 22/4/2 24/4/2
f 29/3/3 26/3/3 25/3/3
f 30/1/3 27/1/3 26/1/3
f 30/3/3 26/3/3 29/3/3
f 31/4/3 28/4/3 27/4/3
f 31/1/3 27/1/3 30/1/3
f 32/4/3 28/4/3 31/4/3
f 35/2/3 34/2/3 33/2/3
f 36/2/3 34/2/3 35/2/3
f 37/2/4 38/2/4 39/2/4
f 39/2/4 38/2/4 40/2/4
f 41/3/4 42/3/4 45/3/4
f 42/1/4 43/1/4 46/1/4
f 45/3/4 42/3/4 46/3/4
f 43/4/4 44/4/4 47/4/4
f 46/1/4 43/1/4 47/1/4
f 47/4/4 44/4/4 48/4/4
f 51/2/5 50/2/5 49/2/5
f 52/2/5 50/2/5 51/2/5
f 55/3/5 54/3/5 53/3/5
f 56/3/5 54/3/5 55/3/5
f 57/3/5 55/3/5 53/3/5
f 58/3/5 54/3/5 56/3/5
f 59/3/5 57/3/5 53/3/5
f 59/3/5 58/3/5 57/3/5
f 60/3/5 54/3/5 58/3/5
f 60/3/5 58/3/5 59/3/5
f 61/4/6 62/4/6 63/4/6
f 63/4/6 62/4/6 64/4/6
