# MagicaVoxel @ Ephtracy

# group
o 

# material
mtllib Medium_Tree.mtl
usemtl palette

# normals
vn -1 0 0
vn 1 0 0
vn 0 0 1
vn 0 0 -1
vn 0 -1 0
vn 0 1 0

# texcoords
vt 0.00195312 0.5
vt 0.00585938 0.5
vt 0.0175781 0.5
vt 0.0253906 0.5

# verts
v -0.2 0.2 0.2
v -0.2 0.2 -0.2
v -0.2 0.3 0.2
v -0.2 0.3 -0.2
v -0.2 0.5 0.2
v -0.2 0.5 -0.2
v -0.2 0.7 0.2
v -0.2 0.7 -0.2
v -0.1 0 0.1
v -0.1 0 -0.1
v -0.1 0.2 0.1
v -0.1 0.2 -0.1
v 0.1 0 0.1
v 0.1 0 -0.1
v 0.1 0.2 0.1
v 0.1 0.2 -0.1
v 0.2 0.2 0.2
v 0.2 0.2 -0.2
v 0.2 0.3 0.2
v 0.2 0.3 -0.2
v 0.2 0.5 0.2
v 0.2 0.5 -0.2
v 0.2 0.7 0.2
v 0.2 0.7 -0.2
v -0.2 0.2 0.2
v -0.2 0.3 0.2
v -0.2 0.5 0.2
v -0.2 0.7 0.2
v 0.2 0.2 0.2
v 0.2 0.3 0.2
v 0.2 0.5 0.2
v 0.2 0.7 0.2
v -0.1 0 0.1
v -0.1 0.2 0.1
v 0.1 0 0.1
v 0.1 0.2 0.1
v -0.1 0 -0.1
v -0.1 0.2 -0.1
v 0.1 0 -0.1
v 0.1 0.2 -0.1
v -0.2 0.2 -0.2
v -0.2 0.3 -0.2
v -0.2 0.5 -0.2
v -0.2 0.7 -0.2
v 0.2 0.2 -0.2
v 0.2 0.3 -0.2
v 0.2 0.5 -0.2
v 0.2 0.7 -0.2
v -0.1 0 0.1
v 0.1 0 0.1
v -0.1 0 -0.1
v 0.1 0 -0.1
v -0.2 0.2 0.2
v 0.2 0.2 0.2
v -0.1 0.2 0.1
v 0.1 0.2 0.1
v -0.1 0.2 -0.1
v 0.1 0.2 -0.1
v -0.2 0.2 -0.2
v 0.2 0.2 -0.2
v -0.2 0.7 0.2
v 0.2 0.7 0.2
v -0.2 0.7 -0.2
v 0.2 0.7 -0.2

# faces
f 3/2/1 2/2/1 1/2/1
f 4/2/1 2/2/1 3/2/1
f 5/1/1 4/1/1 3/1/1
f 6/1/1 4/1/1 5/1/1
f 7/3/1 6/3/1 5/3/1
f 8/3/1 6/3/1 7/3/1
f 11/4/1 10/4/1 9/4/1
f 12/4/1 10/4/1 11/4/1
f 13/4/2 14/4/2 15/4/2
f 15/4/2 14/4/2 16/4/2
f 17/2/2 18/2/2 19/2/2
f 19/2/2 18/2/2 20/2/2
f 19/1/2 20/1/2 21/1/2
f 21/1/2 20/1/2 22/1/2
f 21/3/2 22/3/2 23/3/2
f 23/3/2 22/3/2 24/3/2
f 29/2/3 26/2/3 25/2/3
f 30/1/3 27/1/3 26/1/3
f 30/2/3 26/2/3 29/2/3
f 31/3/3 28/3/3 27/3/3
f 31/1/3 27/1/3 30/1/3
f 32/3/3 28/3/3 31/3/3
f 35/4/3 34/4/3 33/4/3
f 36/4/3 34/4/3 35/4/3
f 37/4/4 38/4/4 39/4/4
f 39/4/4 38/4/4 40/4/4
f 41/2/4 42/2/4 45/2/4
f 42/1/4 43/1/4 46/1/4
f 45/2/4 42/2/4 46/2/4
f 43/3/4 44/3/4 47/3/4
f 46/1/4 43/1/4 47/1/4
f 47/3/4 44/3/4 48/3/4
f 51/4/5 50/4/5 49/4/5
f 52/4/5 50/4/5 51/4/5
f 55/2/5 54/2/5 53/2/5
f 56/2/5 54/2/5 55/2/5
f 57/2/5 55/2/5 53/2/5
f 58/2/5 54/2/5 56/2/5
f 59/2/5 57/2/5 53/2/5
f 59/2/5 58/2/5 57/2/5
f 60/2/5 54/2/5 58/2/5
f 60/2/5 58/2/5 59/2/5
f 61/3/6 62/3/6 63/3/6
f 63/3/6 62/3/6 64/3/6
