# MagicaVoxel @ Ephtracy

# group
o 

# material
mtllib eagle3.mtl
usemtl palette

# normals
vn -1 0 0
vn 1 0 0
vn 0 0 1
vn 0 0 -1
vn 0 -1 0
vn 0 1 0

# texcoords
vt 0.00585938 0.5
vt 0.0136719 0.5
vt 0.0214844 0.5
vt 0.0292969 0.5
vt 0.0371094 0.5

# verts
v -0.9 0.4 0
v -0.9 0.4 -0.4
v -0.9 0.6 0
v -0.9 0.6 -0.4
v -0.3 0.3 0
v -0.3 0.3 -0.4
v -0.3 0.4 0
v -0.3 0.4 -0.4
v -0.2 0 0.7
v -0.2 0 0.3
v -0.2 0 -0.7
v -0.2 0 -0.9
v -0.2 0.1 -0.7
v -0.2 0.1 -0.9
v -0.2 0.2 0.6
v -0.2 0.2 0.5
v -0.2 0.2 0.4
v -0.2 0.2 -0.7
v -0.2 0.2 -1.1
v -0.2 0.3 0.6
v -0.2 0.3 0.5
v -0.2 0.3 0.4
v -0.2 0.3 0
v -0.2 0.3 -0.4
v -0.2 0.3 -0.7
v -0.2 0.3 -1
v -0.2 0.4 0.7
v -0.2 0.4 0.3
v -0.2 0.4 0
v -0.2 0.4 -0.4
v -0.2 0.4 -0.7
v -0.2 0.4 -1
v -0.2 0.4 -1.1
v -0.1 0 1
v -0.1 0 0.9
v -0.1 0.1 0.9
v -0.1 0.1 0.7
v -0.1 0.3 1
v -0.1 0.3 0.7
v 0 0 -0.7
v 0 0 -0.9
v 0 0.1 0.3
v 0 0.1 -0.6
v 0 0.1 -0.7
v 0 0.1 -0.9
v 0 0.2 -0.6
v 0 0.2 -0.7
v 0 0.3 0.3
v 0 0.3 -0.7
v 0.1 0.4 0
v 0.1 0.4 -0.4
v 0.1 0.5 0
v 0.1 0.5 -0.4
v 0.7 0.5 0
v 0.7 0.5 -0.4
v 0.7 0.6 0
v 0.7 0.6 -0.4
v -0.8 0.5 0
v -0.8 0.5 -0.4
v -0.8 0.6 0
v -0.8 0.6 -0.4
v -0.2 0.4 0
v -0.2 0.4 -0.4
v -0.2 0.5 0
v -0.2 0.5 -0.4
v -0.1 0 -0.7
v -0.1 0 -0.9
v -0.1 0.1 0.3
v -0.1 0.1 -0.6
v -0.1 0.1 -0.7
v -0.1 0.1 -0.9
v -0.1 0.2 -0.6
v -0.1 0.2 -0.7
v -0.1 0.3 0.3
v -0.1 0.3 -0.7
v 0 0 1
v 0 0 0.9
v 0 0.1 0.9
v 0 0.1 0.7
v 0 0.3 1
v 0 0.3 0.7
v 0.1 0 0.7
v 0.1 0 0.3
v 0.1 0 -0.7
v 0.1 0 -0.9
v 0.1 0.1 -0.7
v 0.1 0.1 -0.9
v 0.1 0.2 0.6
v 0.1 0.2 0.5
v 0.1 0.2 0.4
v 0.1 0.2 -0.7
v 0.1 0.2 -1.1
v 0.1 0.3 0.6
v 0.1 0.3 0.5
v 0.1 0.3 0.4
v 0.1 0.3 0
v 0.1 0.3 -0.4
v 0.1 0.3 -0.7
v 0.1 0.3 -1
v 0.1 0.4 0.7
v 0.1 0.4 0.3
v 0.1 0.4 0
v 0.1 0.4 -0.4
v 0.1 0.4 -0.7
v 0.1 0.4 -1
v 0.1 0.4 -1.1
v 0.2 0.3 0
v 0.2 0.3 -0.4
v 0.2 0.4 0
v 0.2 0.4 -0.4
v 0.8 0.4 0
v 0.8 0.4 -0.4
v 0.8 0.6 0
v 0.8 0.6 -0.4
v -0.1 0 1
v -0.1 0.3 1
v 0 0 1
v 0 0.3 1
v -0.2 0 0.7
v -0.2 0.4 0.7
v -0.1 0.1 0.7
v -0.1 0.3 0.7
v 0 0.1 0.7
v 0 0.3 0.7
v 0.1 0 0.7
v 0.1 0.4 0.7
v -0.9 0.4 0
v -0.9 0.6 0
v -0.8 0.5 0
v -0.8 0.6 0
v -0.3 0.3 0
v -0.3 0.4 0
v -0.2 0.3 0
v -0.2 0.4 0
v -0.2 0.5 0
v 0.1 0.3 0
v 0.1 0.4 0
v 0.1 0.5 0
v 0.2 0.3 0
v 0.2 0.4 0
v 0.7 0.5 0
v 0.7 0.6 0
v 0.8 0.4 0
v 0.8 0.6 0
v -0.1 0.1 -0.6
v -0.1 0.2 -0.6
v 0 0.1 -0.6
v 0 0.2 -0.6
v -0.1 0.2 -0.7
v -0.1 0.3 -0.7
v 0 0.2 -0.7
v 0 0.3 -0.7
v -0.2 0.3 -1
v -0.2 0.4 -1
v 0.1 0.3 -1
v 0.1 0.4 -1
v -0.1 0 0.9
v -0.1 0.1 0.9
v 0 0 0.9
v 0 0.1 0.9
v -0.1 0.1 0.3
v -0.1 0.3 0.3
v 0 0.1 0.3
v 0 0.3 0.3
v -0.9 0.4 -0.4
v -0.9 0.6 -0.4
v -0.8 0.5 -0.4
v -0.8 0.6 -0.4
v -0.3 0.3 -0.4
v -0.3 0.4 -0.4
v -0.2 0.3 -0.4
v -0.2 0.4 -0.4
v -0.2 0.5 -0.4
v 0.1 0.3 -0.4
v 0.1 0.4 -0.4
v 0.1 0.5 -0.4
v 0.2 0.3 -0.4
v 0.2 0.4 -0.4
v 0.7 0.5 -0.4
v 0.7 0.6 -0.4
v 0.8 0.4 -0.4
v 0.8 0.6 -0.4
v -0.2 0.1 -0.7
v -0.2 0.2 -0.7
v -0.2 0.3 -0.7
v -0.2 0.4 -0.7
v -0.1 0 -0.7
v -0.1 0.1 -0.7
v 0 0 -0.7
v 0 0.1 -0.7
v 0.1 0.1 -0.7
v 0.1 0.2 -0.7
v 0.1 0.3 -0.7
v 0.1 0.4 -0.7
v -0.2 0 -0.9
v -0.2 0.1 -0.9
v -0.1 0 -0.9
v -0.1 0.1 -0.9
v 0 0 -0.9
v 0 0.1 -0.9
v 0.1 0 -0.9
v 0.1 0.1 -0.9
v -0.2 0.2 -1.1
v -0.2 0.4 -1.1
v 0.1 0.2 -1.1
v 0.1 0.4 -1.1
v -0.1 0 1
v 0 0 1
v -0.1 0 0.9
v 0 0 0.9
v -0.2 0 0.7
v 0.1 0 0.7
v -0.2 0 0.3
v 0.1 0 0.3
v -0.2 0 -0.7
v -0.1 0 -0.7
v 0 0 -0.7
v 0.1 0 -0.7
v -0.2 0 -0.9
v -0.1 0 -0.9
v 0 0 -0.9
v 0.1 0 -0.9
v -0.1 0.1 0.9
v 0 0.1 0.9
v -0.1 0.1 0.7
v 0 0.1 0.7
v -0.2 0.2 -0.7
v 0.1 0.2 -0.7
v -0.2 0.2 -1.1
v 0.1 0.2 -1.1
v -0.1 0.3 0.3
v 0 0.3 0.3
v -0.3 0.3 0
v -0.2 0.3 0
v 0.1 0.3 0
v 0.2 0.3 0
v -0.3 0.3 -0.4
v -0.2 0.3 -0.4
v 0.1 0.3 -0.4
v 0.2 0.3 -0.4
v -0.1 0.3 -0.7
v 0 0.3 -0.7
v -0.9 0.4 0
v -0.3 0.4 0
v 0.2 0.4 0
v 0.8 0.4 0
v -0.9 0.4 -0.4
v -0.3 0.4 -0.4
v 0.2 0.4 -0.4
v 0.8 0.4 -0.4
v -0.1 0.1 0.3
v 0 0.1 0.3
v -0.1 0.1 -0.6
v 0 0.1 -0.6
v -0.2 0.1 -0.7
v -0.1 0.1 -0.7
v 0 0.1 -0.7
v 0.1 0.1 -0.7
v -0.2 0.1 -0.9
v -0.1 0.1 -0.9
v 0 0.1 -0.9
v 0.1 0.1 -0.9
v -0.1 0.2 -0.6
v 0 0.2 -0.6
v -0.1 0.2 -0.7
v 0 0.2 -0.7
v -0.1 0.3 1
v 0 0.3 1
v -0.1 0.3 0.7
v 0 0.3 0.7
v -0.2 0.3 -0.7
v 0.1 0.3 -0.7
v -0.2 0.3 -1
v 0.1 0.3 -1
v -0.2 0.4 0.7
v 0.1 0.4 0.7
v -0.2 0.4 0.3
v 0.1 0.4 0.3
v -0.2 0.4 0
v 0.1 0.4 0
v -0.2 0.4 -0.4
v 0.1 0.4 -0.4
v -0.2 0.4 -0.7
v 0.1 0.4 -0.7
v -0.2 0.4 -1
v 0.1 0.4 -1
v -0.2 0.4 -1.1
v 0.1 0.4 -1.1
v -0.8 0.5 0
v -0.2 0.5 0
v 0.1 0.5 0
v 0.7 0.5 0
v -0.8 0.5 -0.4
v -0.2 0.5 -0.4
v 0.1 0.5 -0.4
v 0.7 0.5 -0.4
v -0.9 0.6 0
v -0.8 0.6 0
v 0.7 0.6 0
v 0.8 0.6 0
v -0.9 0.6 -0.4
v -0.8 0.6 -0.4
v 0.7 0.6 -0.4
v 0.8 0.6 -0.4

# faces
f 3/3/1 2/3/1 1/3/1
f 4/3/1 2/3/1 3/3/1
f 7/3/1 6/3/1 5/3/1
f 8/3/1 6/3/1 7/3/1
f 13/3/1 11/3/1 10/3/1
f 13/4/1 12/4/1 11/4/1
f 14/4/1 12/4/1 13/4/1
f 15/1/1 10/1/1 9/1/1
f 16/1/1 10/1/1 15/1/1
f 17/1/1 10/1/1 16/1/1
f 18/3/1 13/3/1 10/3/1
f 20/1/1 15/1/1 9/1/1
f 20/2/1 16/2/1 15/2/1
f 21/5/1 17/5/1 16/5/1
f 21/2/1 16/2/1 20/2/1
f 22/1/1 10/1/1 17/1/1
f 22/5/1 17/5/1 21/5/1
f 23/3/1 18/3/1 10/3/1
f 23/3/1 19/3/1 18/3/1
f 24/3/1 19/3/1 23/3/1
f 25/3/1 19/3/1 24/3/1
f 26/3/1 19/3/1 25/3/1
f 27/1/1 21/1/1 20/1/1
f 27/1/1 22/1/1 21/1/1
f 27/1/1 20/1/1 9/1/1
f 28/1/1 10/1/1 22/1/1
f 28/1/1 22/1/1 27/1/1
f 28/3/1 23/3/1 10/3/1
f 29/3/1 23/3/1 28/3/1
f 30/3/1 25/3/1 24/3/1
f 31/3/1 25/3/1 30/3/1
f 32/3/1 19/3/1 26/3/1
f 33/3/1 19/3/1 32/3/1
f 36/4/1 35/4/1 34/4/1
f 38/4/1 36/4/1 34/4/1
f 38/4/1 37/4/1 36/4/1
f 39/4/1 37/4/1 38/4/1
f 44/4/1 41/4/1 40/4/1
f 45/4/1 41/4/1 44/4/1
f 46/3/1 43/3/1 42/3/1
f 48/3/1 46/3/1 42/3/1
f 48/3/1 47/3/1 46/3/1
f 49/3/1 47/3/1 48/3/1
f 52/3/1 51/3/1 50/3/1
f 53/3/1 51/3/1 52/3/1
f 56/3/1 55/3/1 54/3/1
f 57/3/1 55/3/1 56/3/1
f 58/3/2 59/3/2 60/3/2
f 60/3/2 59/3/2 61/3/2
f 62/3/2 63/3/2 64/3/2
f 64/3/2 63/3/2 65/3/2
f 66/4/2 67/4/2 70/4/2
f 70/4/2 67/4/2 71/4/2
f 68/3/2 69/3/2 72/3/2
f 68/3/2 72/3/2 74/3/2
f 72/3/2 73/3/2 74/3/2
f 74/3/2 73/3/2 75/3/2
f 76/4/2 77/4/2 78/4/2
f 76/4/2 78/4/2 80/4/2
f 78/4/2 79/4/2 80/4/2
f 80/4/2 79/4/2 81/4/2
f 83/3/2 84/3/2 86/3/2
f 84/4/2 85/4/2 86/4/2
f 86/4/2 85/4/2 87/4/2
f 82/1/2 83/1/2 88/1/2
f 88/1/2 83/1/2 89/1/2
f 89/1/2 83/1/2 90/1/2
f 83/3/2 86/3/2 91/3/2
f 82/1/2 88/1/2 93/1/2
f 88/2/2 89/2/2 93/2/2
f 89/5/2 90/5/2 94/5/2
f 93/2/2 89/2/2 94/2/2
f 90/1/2 83/1/2 95/1/2
f 94/5/2 90/5/2 95/5/2
f 83/3/2 91/3/2 96/3/2
f 91/3/2 92/3/2 96/3/2
f 96/3/2 92/3/2 97/3/2
f 97/3/2 92/3/2 98/3/2
f 98/3/2 92/3/2 99/3/2
f 93/1/2 94/1/2 100/1/2
f 94/1/2 95/1/2 100/1/2
f 82/1/2 93/1/2 100/1/2
f 95/1/2 83/1/2 101/1/2
f 100/1/2 95/1/2 101/1/2
f 83/3/2 96/3/2 101/3/2
f 101/3/2 96/3/2 102/3/2
f 97/3/2 98/3/2 103/3/2
f 103/3/2 98/3/2 104/3/2
f 99/3/2 92/3/2 105/3/2
f 105/3/2 92/3/2 106/3/2
f 107/3/2 108/3/2 109/3/2
f 109/3/2 108/3/2 110/3/2
f 111/3/2 112/3/2 113/3/2
f 113/3/2 112/3/2 114/3/2
f 117/4/3 116/4/3 115/4/3
f 118/4/3 116/4/3 117/4/3
f 121/1/3 120/1/3 119/1/3
f 122/1/3 120/1/3 121/1/3
f 123/1/3 121/1/3 119/1/3
f 124/1/3 120/1/3 122/1/3
f 125/1/3 123/1/3 119/1/3
f 125/1/3 124/1/3 123/1/3
f 126/1/3 120/1/3 124/1/3
f 126/1/3 124/1/3 125/1/3
f 129/3/3 128/3/3 127/3/3
f 130/3/3 128/3/3 129/3/3
f 132/3/3 129/3/3 127/3/3
f 133/3/3 132/3/3 131/3/3
f 134/3/3 129/3/3 132/3/3
f 134/3/3 132/3/3 133/3/3
f 135/3/3 129/3/3 134/3/3
f 139/3/3 137/3/3 136/3/3
f 139/3/3 138/3/3 137/3/3
f 140/3/3 138/3/3 139/3/3
f 141/3/3 138/3/3 140/3/3
f 143/3/3 141/3/3 140/3/3
f 143/3/3 142/3/3 141/3/3
f 144/3/3 142/3/3 143/3/3
f 147/3/3 146/3/3 145/3/3
f 148/3/3 146/3/3 147/3/3
f 151/3/3 150/3/3 149/3/3
f 152/3/3 150/3/3 151/3/3
f 155/3/3 154/3/3 153/3/3
f 156/3/3 154/3/3 155/3/3
f 157/4/4 158/4/4 159/4/4
f 159/4/4 158/4/4 160/4/4
f 161/5/4 162/5/4 163/5/4
f 163/5/4 162/5/4 164/5/4
f 165/3/4 166/3/4 167/3/4
f 167/3/4 166/3/4 168/3/4
f 165/3/4 167/3/4 170/3/4
f 169/3/4 170/3/4 171/3/4
f 170/3/4 167/3/4 172/3/4
f 171/3/4 170/3/4 172/3/4
f 172/3/4 167/3/4 173/3/4
f 174/3/4 175/3/4 177/3/4
f 175/3/4 176/3/4 177/3/4
f 177/3/4 176/3/4 178/3/4
f 178/3/4 176/3/4 179/3/4
f 178/3/4 179/3/4 181/3/4
f 179/3/4 180/3/4 181/3/4
f 181/3/4 180/3/4 182/3/4
f 183/3/4 184/3/4 188/3/4
f 187/3/4 188/3/4 189/3/4
f 188/3/4 184/3/4 190/3/4
f 189/3/4 188/3/4 190/3/4
f 190/3/4 184/3/4 191/3/4
f 191/3/4 184/3/4 192/3/4
f 185/3/4 186/3/4 193/3/4
f 193/3/4 186/3/4 194/3/4
f 195/4/4 196/4/4 197/4/4
f 197/4/4 196/4/4 198/4/4
f 199/4/4 200/4/4 201/4/4
f 201/4/4 200/4/4 202/4/4
f 203/3/4 204/3/4 205/3/4
f 205/3/4 204/3/4 206/3/4
f 209/4/5 208/4/5 207/4/5
f 210/4/5 208/4/5 209/4/5
f 213/1/5 212/1/5 211/1/5
f 214/1/5 212/1/5 213/1/5
f 215/3/5 214/3/5 213/3/5
f 216/3/5 214/3/5 215/3/5
f 217/3/5 214/3/5 216/3/5
f 218/3/5 214/3/5 217/3/5
f 219/4/5 216/4/5 215/4/5
f 220/4/5 216/4/5 219/4/5
f 221/4/5 218/4/5 217/4/5
f 222/4/5 218/4/5 221/4/5
f 225/4/5 224/4/5 223/4/5
f 226/4/5 224/4/5 225/4/5
f 229/3/5 228/3/5 227/3/5
f 230/3/5 228/3/5 229/3/5
f 237/3/5 234/3/5 233/3/5
f 238/3/5 234/3/5 237/3/5
f 239/3/5 236/3/5 235/3/5
f 240/3/5 236/3/5 239/3/5
f 241/3/5 232/3/5 231/3/5
f 242/3/5 232/3/5 241/3/5
f 247/3/5 244/3/5 243/3/5
f 248/3/5 244/3/5 247/3/5
f 249/3/5 246/3/5 245/3/5
f 250/3/5 246/3/5 249/3/5
f 251/3/6 252/3/6 253/3/6
f 253/3/6 252/3/6 254/3/6
f 255/4/6 256/4/6 259/4/6
f 259/4/6 256/4/6 260/4/6
f 257/4/6 258/4/6 261/4/6
f 261/4/6 258/4/6 262/4/6
f 263/3/6 264/3/6 265/3/6
f 265/3/6 264/3/6 266/3/6
f 267/4/6 268/4/6 269/4/6
f 269/4/6 268/4/6 270/4/6
f 271/3/6 272/3/6 273/3/6
f 273/3/6 272/3/6 274/3/6
f 275/1/6 276/1/6 277/1/6
f 277/1/6 276/1/6 278/1/6
f 277/3/6 278/3/6 279/3/6
f 279/3/6 278/3/6 280/3/6
f 279/3/6 280/3/6 281/3/6
f 281/3/6 280/3/6 282/3/6
f 281/3/6 282/3/6 283/3/6
f 283/3/6 282/3/6 284/3/6
f 285/3/6 286/3/6 287/3/6
f 287/3/6 286/3/6 288/3/6
f 289/3/6 290/3/6 293/3/6
f 293/3/6 290/3/6 294/3/6
f 291/3/6 292/3/6 295/3/6
f 295/3/6 292/3/6 296/3/6
f 297/3/6 298/3/6 301/3/6
f 301/3/6 298/3/6 302/3/6
f 299/3/6 300/3/6 303/3/6
f 303/3/6 300/3/6 304/3/6
