# MagicaVoxel @ Ephtracy

# group
o 

# material
mtllib eagle.mtl
usemtl palette

# normals
vn -1 0 0
vn 1 0 0
vn 0 0 1
vn 0 0 -1
vn 0 -1 0
vn 0 1 0

# texcoords
vt 0.00195312 0.5
vt 0.00585938 0.5
vt 0.00976562 0.5
vt 0.0136719 0.5
vt 0.0332031 0.5

# verts
v -0.8 0.4 0
v -0.8 0.4 -0.4
v -0.8 0.6 0
v -0.8 0.6 -0.4
v -0.2 0.3 0
v -0.2 0.3 -0.4
v -0.2 0.4 0
v -0.2 0.4 -0.4
v -0.1 0 0.7
v -0.1 0 0.3
v -0.1 0 -0.7
v -0.1 0 -0.9
v -0.1 0.1 -0.7
v -0.1 0.1 -0.9
v -0.1 0.2 0.6
v -0.1 0.2 0.5
v -0.1 0.2 0.4
v -0.1 0.2 -0.7
v -0.1 0.2 -1.1
v -0.1 0.3 0.6
v -0.1 0.3 0.5
v -0.1 0.3 0.4
v -0.1 0.3 0
v -0.1 0.3 -0.4
v -0.1 0.3 -0.7
v -0.1 0.3 -1
v -0.1 0.4 0.7
v -0.1 0.4 0.3
v -0.1 0.4 0
v -0.1 0.4 -0.4
v -0.1 0.4 -0.7
v -0.1 0.4 -1
v -0.1 0.4 -1.1
v 0 0 1
v 0 0 0.9
v 0 0.1 0.9
v 0 0.1 0.7
v 0 0.3 1
v 0 0.3 0.7
v 0.1 0 -0.7
v 0.1 0 -0.9
v 0.1 0.1 -0.7
v 0.1 0.1 -0.9
v 0.2 0.4 0
v 0.2 0.4 -0.4
v 0.2 0.5 0
v 0.2 0.5 -0.4
v 0.8 0.5 0
v 0.8 0.5 -0.4
v 0.8 0.6 0
v 0.8 0.6 -0.4
v -0.7 0.5 0
v -0.7 0.5 -0.4
v -0.7 0.6 0
v -0.7 0.6 -0.4
v -0.1 0.4 0
v -0.1 0.4 -0.4
v -0.1 0.5 0
v -0.1 0.5 -0.4
v 0 0 -0.7
v 0 0 -0.9
v 0 0.1 -0.7
v 0 0.1 -0.9
v 0.1 0 1
v 0.1 0 0.9
v 0.1 0.1 0.9
v 0.1 0.1 0.7
v 0.1 0.3 1
v 0.1 0.3 0.7
v 0.2 0 0.7
v 0.2 0 0.3
v 0.2 0 -0.7
v 0.2 0 -0.9
v 0.2 0.1 -0.7
v 0.2 0.1 -0.9
v 0.2 0.2 0.6
v 0.2 0.2 0.5
v 0.2 0.2 0.4
v 0.2 0.2 -0.7
v 0.2 0.2 -1.1
v 0.2 0.3 0.6
v 0.2 0.3 0.5
v 0.2 0.3 0.4
v 0.2 0.3 0
v 0.2 0.3 -0.4
v 0.2 0.3 -0.7
v 0.2 0.3 -1
v 0.2 0.4 0.7
v 0.2 0.4 0.3
v 0.2 0.4 0
v 0.2 0.4 -0.4
v 0.2 0.4 -0.7
v 0.2 0.4 -1
v 0.2 0.4 -1.1
v 0.3 0.3 0
v 0.3 0.3 -0.4
v 0.3 0.4 0
v 0.3 0.4 -0.4
v 0.9 0.4 0
v 0.9 0.4 -0.4
v 0.9 0.6 0
v 0.9 0.6 -0.4
v 0 0 1
v 0 0.3 1
v 0.1 0 1
v 0.1 0.3 1
v -0.1 0 0.7
v -0.1 0.4 0.7
v 0 0.1 0.7
v 0 0.3 0.7
v 0.1 0.1 0.7
v 0.1 0.3 0.7
v 0.2 0 0.7
v 0.2 0.4 0.7
v -0.8 0.4 0
v -0.8 0.6 0
v -0.7 0.5 0
v -0.7 0.6 0
v -0.2 0.3 0
v -0.2 0.4 0
v -0.1 0.3 0
v -0.1 0.4 0
v -0.1 0.5 0
v 0.2 0.3 0
v 0.2 0.4 0
v 0.2 0.5 0
v 0.3 0.3 0
v 0.3 0.4 0
v 0.8 0.5 0
v 0.8 0.6 0
v 0.9 0.4 0
v 0.9 0.6 0
v -0.1 0.3 -1
v -0.1 0.4 -1
v 0.2 0.3 -1
v 0.2 0.4 -1
v 0 0 0.9
v 0 0.1 0.9
v 0.1 0 0.9
v 0.1 0.1 0.9
v -0.8 0.4 -0.4
v -0.8 0.6 -0.4
v -0.7 0.5 -0.4
v -0.7 0.6 -0.4
v -0.2 0.3 -0.4
v -0.2 0.4 -0.4
v -0.1 0.3 -0.4
v -0.1 0.4 -0.4
v -0.1 0.5 -0.4
v 0.2 0.3 -0.4
v 0.2 0.4 -0.4
v 0.2 0.5 -0.4
v 0.3 0.3 -0.4
v 0.3 0.4 -0.4
v 0.8 0.5 -0.4
v 0.8 0.6 -0.4
v 0.9 0.4 -0.4
v 0.9 0.6 -0.4
v -0.1 0.1 -0.7
v -0.1 0.2 -0.7
v -0.1 0.3 -0.7
v -0.1 0.4 -0.7
v 0 0 -0.7
v 0 0.1 -0.7
v 0.1 0 -0.7
v 0.1 0.1 -0.7
v 0.2 0.1 -0.7
v 0.2 0.2 -0.7
v 0.2 0.3 -0.7
v 0.2 0.4 -0.7
v -0.1 0 -0.9
v -0.1 0.1 -0.9
v 0 0 -0.9
v 0 0.1 -0.9
v 0.1 0 -0.9
v 0.1 0.1 -0.9
v 0.2 0 -0.9
v 0.2 0.1 -0.9
v -0.1 0.2 -1.1
v -0.1 0.4 -1.1
v 0.2 0.2 -1.1
v 0.2 0.4 -1.1
v 0 0 1
v 0.1 0 1
v 0 0 0.9
v 0.1 0 0.9
v -0.1 0 0.7
v 0.2 0 0.7
v -0.1 0 0.3
v 0.2 0 0.3
v -0.1 0 -0.7
v 0 0 -0.7
v 0.1 0 -0.7
v 0.2 0 -0.7
v -0.1 0 -0.9
v 0 0 -0.9
v 0.1 0 -0.9
v 0.2 0 -0.9
v 0 0.1 0.9
v 0.1 0.1 0.9
v 0 0.1 0.7
v 0.1 0.1 0.7
v -0.1 0.2 -0.7
v 0.2 0.2 -0.7
v -0.1 0.2 -1.1
v 0.2 0.2 -1.1
v -0.2 0.3 0
v -0.1 0.3 0
v 0.2 0.3 0
v 0.3 0.3 0
v -0.2 0.3 -0.4
v -0.1 0.3 -0.4
v 0.2 0.3 -0.4
v 0.3 0.3 -0.4
v -0.8 0.4 0
v -0.2 0.4 0
v 0.3 0.4 0
v 0.9 0.4 0
v -0.8 0.4 -0.4
v -0.2 0.4 -0.4
v 0.3 0.4 -0.4
v 0.9 0.4 -0.4
v -0.1 0.1 -0.7
v 0 0.1 -0.7
v 0.1 0.1 -0.7
v 0.2 0.1 -0.7
v -0.1 0.1 -0.9
v 0 0.1 -0.9
v 0.1 0.1 -0.9
v 0.2 0.1 -0.9
v 0 0.3 1
v 0.1 0.3 1
v 0 0.3 0.7
v 0.1 0.3 0.7
v -0.1 0.3 -0.7
v 0.2 0.3 -0.7
v -0.1 0.3 -1
v 0.2 0.3 -1
v -0.1 0.4 0.7
v 0.2 0.4 0.7
v -0.1 0.4 0.3
v 0.2 0.4 0.3
v -0.1 0.4 0
v 0.2 0.4 0
v -0.1 0.4 -0.4
v 0.2 0.4 -0.4
v -0.1 0.4 -0.7
v 0.2 0.4 -0.7
v -0.1 0.4 -1
v 0.2 0.4 -1
v -0.1 0.4 -1.1
v 0.2 0.4 -1.1
v -0.7 0.5 0
v -0.1 0.5 0
v 0.2 0.5 0
v 0.8 0.5 0
v -0.7 0.5 -0.4
v -0.1 0.5 -0.4
v 0.2 0.5 -0.4
v 0.8 0.5 -0.4
v -0.8 0.6 0
v -0.7 0.6 0
v 0.8 0.6 0
v 0.9 0.6 0
v -0.8 0.6 -0.4
v -0.7 0.6 -0.4
v 0.8 0.6 -0.4
v 0.9 0.6 -0.4

# faces
f 3/2/1 2/2/1 1/2/1
f 4/2/1 2/2/1 3/2/1
f 7/2/1 6/2/1 5/2/1
f 8/2/1 6/2/1 7/2/1
f 13/2/1 11/2/1 10/2/1
f 13/5/1 12/5/1 11/5/1
f 14/5/1 12/5/1 13/5/1
f 15/4/1 10/4/1 9/4/1
f 16/4/1 10/4/1 15/4/1
f 17/4/1 10/4/1 16/4/1
f 18/2/1 13/2/1 10/2/1
f 20/4/1 15/4/1 9/4/1
f 20/1/1 16/1/1 15/1/1
f 21/3/1 17/3/1 16/3/1
f 21/1/1 16/1/1 20/1/1
f 22/4/1 10/4/1 17/4/1
f 22/3/1 17/3/1 21/3/1
f 23/2/1 18/2/1 10/2/1
f 24/2/1 18/2/1 23/2/1
f 25/4/1 19/4/1 18/4/1
f 25/2/1 18/2/1 24/2/1
f 26/4/1 19/4/1 25/4/1
f 27/4/1 21/4/1 20/4/1
f 27/4/1 20/4/1 9/4/1
f 27/4/1 22/4/1 21/4/1
f 28/4/1 10/4/1 22/4/1
f 28/4/1 22/4/1 27/4/1
f 28/2/1 23/2/1 10/2/1
f 29/2/1 23/2/1 28/2/1
f 30/2/1 25/2/1 24/2/1
f 31/2/1 25/2/1 30/2/1
f 32/4/1 19/4/1 26/4/1
f 33/4/1 19/4/1 32/4/1
f 36/5/1 35/5/1 34/5/1
f 38/5/1 36/5/1 34/5/1
f 38/5/1 37/5/1 36/5/1
f 39/5/1 37/5/1 38/5/1
f 42/5/1 41/5/1 40/5/1
f 43/5/1 41/5/1 42/5/1
f 46/2/1 45/2/1 44/2/1
f 47/2/1 45/2/1 46/2/1
f 50/2/1 49/2/1 48/2/1
f 51/2/1 49/2/1 50/2/1
f 52/2/2 53/2/2 54/2/2
f 54/2/2 53/2/2 55/2/2
f 56/2/2 57/2/2 58/2/2
f 58/2/2 57/2/2 59/2/2
f 60/5/2 61/5/2 62/5/2
f 62/5/2 61/5/2 63/5/2
f 64/5/2 65/5/2 66/5/2
f 64/5/2 66/5/2 68/5/2
f 66/5/2 67/5/2 68/5/2
f 68/5/2 67/5/2 69/5/2
f 71/2/2 72/2/2 74/2/2
f 72/5/2 73/5/2 74/5/2
f 74/5/2 73/5/2 75/5/2
f 70/4/2 71/4/2 76/4/2
f 76/4/2 71/4/2 77/4/2
f 77/4/2 71/4/2 78/4/2
f 71/2/2 74/2/2 79/2/2
f 70/4/2 76/4/2 81/4/2
f 76/1/2 77/1/2 81/1/2
f 77/3/2 78/3/2 82/3/2
f 81/1/2 77/1/2 82/1/2
f 78/4/2 71/4/2 83/4/2
f 82/3/2 78/3/2 83/3/2
f 71/2/2 79/2/2 84/2/2
f 84/2/2 79/2/2 85/2/2
f 79/4/2 80/4/2 86/4/2
f 85/2/2 79/2/2 86/2/2
f 86/4/2 80/4/2 87/4/2
f 81/4/2 82/4/2 88/4/2
f 70/4/2 81/4/2 88/4/2
f 82/4/2 83/4/2 88/4/2
f 83/4/2 71/4/2 89/4/2
f 88/4/2 83/4/2 89/4/2
f 71/2/2 84/2/2 89/2/2
f 89/2/2 84/2/2 90/2/2
f 85/2/2 86/2/2 91/2/2
f 91/2/2 86/2/2 92/2/2
f 87/4/2 80/4/2 93/4/2
f 93/4/2 80/4/2 94/4/2
f 95/2/2 96/2/2 97/2/2
f 97/2/2 96/2/2 98/2/2
f 99/2/2 100/2/2 101/2/2
f 101/2/2 100/2/2 102/2/2
f 105/5/3 104/5/3 103/5/3
f 106/5/3 104/5/3 105/5/3
f 109/4/3 108/4/3 107/4/3
f 110/4/3 108/4/3 109/4/3
f 111/4/3 109/4/3 107/4/3
f 112/4/3 108/4/3 110/4/3
f 113/4/3 111/4/3 107/4/3
f 113/4/3 112/4/3 111/4/3
f 114/4/3 108/4/3 112/4/3
f 114/4/3 112/4/3 113/4/3
f 117/2/3 116/2/3 115/2/3
f 118/2/3 116/2/3 117/2/3
f 120/2/3 117/2/3 115/2/3
f 121/2/3 120/2/3 119/2/3
f 122/2/3 117/2/3 120/2/3
f 122/2/3 120/2/3 121/2/3
f 123/2/3 117/2/3 122/2/3
f 127/2/3 125/2/3 124/2/3
f 127/2/3 126/2/3 125/2/3
f 128/2/3 126/2/3 127/2/3
f 129/2/3 126/2/3 128/2/3
f 131/2/3 129/2/3 128/2/3
f 131/2/3 130/2/3 129/2/3
f 132/2/3 130/2/3 131/2/3
f 135/4/3 134/4/3 133/4/3
f 136/4/3 134/4/3 135/4/3
f 137/5/4 138/5/4 139/5/4
f 139/5/4 138/5/4 140/5/4
f 141/2/4 142/2/4 143/2/4
f 143/2/4 142/2/4 144/2/4
f 141/2/4 143/2/4 146/2/4
f 145/2/4 146/2/4 147/2/4
f 146/2/4 143/2/4 148/2/4
f 147/2/4 146/2/4 148/2/4
f 148/2/4 143/2/4 149/2/4
f 150/2/4 151/2/4 153/2/4
f 151/2/4 152/2/4 153/2/4
f 153/2/4 152/2/4 154/2/4
f 154/2/4 152/2/4 155/2/4
f 154/2/4 155/2/4 157/2/4
f 155/2/4 156/2/4 157/2/4
f 157/2/4 156/2/4 158/2/4
f 159/2/4 160/2/4 164/2/4
f 163/2/4 164/2/4 165/2/4
f 164/2/4 160/2/4 166/2/4
f 165/2/4 164/2/4 166/2/4
f 166/2/4 160/2/4 167/2/4
f 167/2/4 160/2/4 168/2/4
f 161/2/4 162/2/4 169/2/4
f 169/2/4 162/2/4 170/2/4
f 171/5/4 172/5/4 173/5/4
f 173/5/4 172/5/4 174/5/4
f 175/5/4 176/5/4 177/5/4
f 177/5/4 176/5/4 178/5/4
f 179/4/4 180/4/4 181/4/4
f 181/4/4 180/4/4 182/4/4
f 185/5/5 184/5/5 183/5/5
f 186/5/5 184/5/5 185/5/5
f 189/4/5 188/4/5 187/4/5
f 190/4/5 188/4/5 189/4/5
f 191/2/5 190/2/5 189/2/5
f 192/2/5 190/2/5 191/2/5
f 193/2/5 190/2/5 192/2/5
f 194/2/5 190/2/5 193/2/5
f 195/5/5 192/5/5 191/5/5
f 196/5/5 192/5/5 195/5/5
f 197/5/5 194/5/5 193/5/5
f 198/5/5 194/5/5 197/5/5
f 201/5/5 200/5/5 199/5/5
f 202/5/5 200/5/5 201/5/5
f 205/4/5 204/4/5 203/4/5
f 206/4/5 204/4/5 205/4/5
f 211/2/5 208/2/5 207/2/5
f 212/2/5 208/2/5 211/2/5
f 213/2/5 210/2/5 209/2/5
f 214/2/5 210/2/5 213/2/5
f 219/2/5 216/2/5 215/2/5
f 220/2/5 216/2/5 219/2/5
f 221/2/5 218/2/5 217/2/5
f 222/2/5 218/2/5 221/2/5
f 223/5/6 224/5/6 227/5/6
f 227/5/6 224/5/6 228/5/6
f 225/5/6 226/5/6 229/5/6
f 229/5/6 226/5/6 230/5/6
f 231/5/6 232/5/6 233/5/6
f 233/5/6 232/5/6 234/5/6
f 235/4/6 236/4/6 237/4/6
f 237/4/6 236/4/6 238/4/6
f 239/4/6 240/4/6 241/4/6
f 241/4/6 240/4/6 242/4/6
f 241/2/6 242/2/6 243/2/6
f 243/2/6 242/2/6 244/2/6
f 243/2/6 244/2/6 245/2/6
f 245/2/6 244/2/6 246/2/6
f 245/2/6 246/2/6 247/2/6
f 247/2/6 246/2/6 248/2/6
f 249/4/6 250/4/6 251/4/6
f 251/4/6 250/4/6 252/4/6
f 253/2/6 254/2/6 257/2/6
f 257/2/6 254/2/6 258/2/6
f 255/2/6 256/2/6 259/2/6
f 259/2/6 256/2/6 260/2/6
f 261/2/6 262/2/6 265/2/6
f 265/2/6 262/2/6 266/2/6
f 263/2/6 264/2/6 267/2/6
f 267/2/6 264/2/6 268/2/6
