# MagicaVoxel @ Ephtracy

# group
o 

# material
mtllib bustovoxel.mtl
usemtl palette

# normals
vn -1 0 0
vn 1 0 0
vn 0 0 1
vn 0 0 -1
vn 0 -1 0
vn 0 1 0

# texcoords
vt 0.00195312 0.5
vt 0.00976562 0.5
vt 0.0136719 0.5
vt 0.0175781 0.5
vt 0.0214844 0.5
vt 0.0371094 0.5
vt 0.107422 0.5
vt 0.158203 0.5

# verts
v -0.5 1.1 -1.1
v -0.5 1.1 -1.3
v -0.5 1.2 -1.1
v -0.5 1.2 -1.3
v -0.4 0 0.9
v -0.4 0 0.6
v -0.4 0 -0.3
v -0.4 0 -0.6
v -0.4 0.1 1.4
v -0.4 0.1 0.9
v -0.4 0.1 0.8
v -0.4 0.1 0.7
v -0.4 0.1 0.6
v -0.4 0.1 -0.3
v -0.4 0.1 -0.4
v -0.4 0.1 -0.5
v -0.4 0.1 -0.6
v -0.4 0.1 -1.3
v -0.4 0.2 1.4
v -0.4 0.2 0.9
v -0.4 0.2 0.8
v -0.4 0.2 0.7
v -0.4 0.2 0.6
v -0.4 0.2 -0.3
v -0.4 0.2 -0.4
v -0.4 0.2 -0.5
v -0.4 0.2 -0.6
v -0.4 0.2 -1.3
v -0.4 0.3 1.4
v -0.4 0.3 0.9
v -0.4 0.3 0.6
v -0.4 0.3 -0.3
v -0.4 0.3 -0.6
v -0.4 0.3 -1.3
v -0.4 0.5 1.4
v -0.4 0.5 -1.1
v -0.4 0.5 -1.3
v -0.4 0.6 1.4
v -0.4 0.6 -1.1
v -0.4 0.7 1.3
v -0.4 0.7 -1.1
v -0.4 0.7 -1.2
v -0.4 0.7 -1.3
v -0.4 1.1 -1.1
v -0.4 1.1 -1.2
v -0.4 1.2 1.3
v -0.4 1.2 -1.1
v -0.4 1.2 -1.2
v -0.4 1.3 1.4
v -0.4 1.3 -1.2
v -0.3 0.2 -1.3
v -0.3 0.2 -1.4
v -0.3 0.3 -1.3
v -0.3 0.3 -1.4
v 0.2 0.5 -1.2
v 0.2 0.5 -1.3
v 0.2 0.6 -1.2
v 0.2 0.6 -1.3
v 0.3 0.2 -1.3
v 0.3 0.2 -1.4
v 0.3 0.3 -1.3
v 0.3 0.3 -1.4
v 0.4 0 0.9
v 0.4 0 0.6
v 0.4 0 -0.3
v 0.4 0 -0.6
v 0.4 0.1 1.3
v 0.4 0.1 0.9
v 0.4 0.1 0.8
v 0.4 0.1 0.7
v 0.4 0.1 0.6
v 0.4 0.1 -0.3
v 0.4 0.1 -0.4
v 0.4 0.1 -0.5
v 0.4 0.1 -0.6
v 0.4 0.1 -1.1
v 0.4 0.2 1.3
v 0.4 0.2 0.9
v 0.4 0.2 0.8
v 0.4 0.2 0.7
v 0.4 0.2 0.6
v 0.4 0.2 0.5
v 0.4 0.2 0
v 0.4 0.2 -0.3
v 0.4 0.2 -0.4
v 0.4 0.2 -0.5
v 0.4 0.2 -0.6
v 0.4 0.2 -0.7
v 0.4 0.2 -1.1
v 0.4 0.3 1.3
v 0.4 0.3 0.9
v 0.4 0.3 0.6
v 0.4 0.3 0.5
v 0.4 0.3 0
v 0.4 0.3 -0.3
v 0.4 0.3 -0.6
v 0.4 0.3 -0.7
v 0.4 0.3 -1.1
v 0.4 0.4 -1.1
v 0.4 0.5 1.3
v 0.4 0.5 0.5
v 0.4 0.5 0
v 0.4 0.5 -0.5
v 0.4 0.5 -0.7
v 0.4 0.6 1.3
v 0.4 0.6 0.5
v 0.4 0.6 0
v 0.4 0.6 -0.3
v 0.4 0.6 -1.2
v 0.4 0.6 -1.3
v 0.4 0.7 1.3
v 0.4 0.7 0.5
v 0.4 0.7 0
v 0.4 0.7 -0.3
v 0.4 0.7 -0.5
v 0.4 0.7 -0.7
v 0.4 0.7 -1.2
v 0.4 0.7 -1.3
v 0.4 1.2 1.3
v 0.4 1.2 -1.1
v 0.5 1.1 -1.2
v 0.5 1.1 -1.3
v 0.5 1.2 -1.2
v 0.5 1.2 -1.3
v -0.4 1.1 -1.2
v -0.4 1.1 -1.3
v -0.4 1.2 -1.2
v -0.4 1.2 -1.3
v -0.3 0 0.9
v -0.3 0 0.6
v -0.3 0 -0.3
v -0.3 0 -0.6
v -0.3 0.1 1.3
v -0.3 0.1 0.9
v -0.3 0.1 0.8
v -0.3 0.1 0.7
v -0.3 0.1 0.6
v -0.3 0.1 -0.3
v -0.3 0.1 -0.4
v -0.3 0.1 -0.5
v -0.3 0.1 -0.6
v -0.3 0.1 -1.1
v -0.3 0.2 1.3
v -0.3 0.2 0.9
v -0.3 0.2 0.8
v -0.3 0.2 0.7
v -0.3 0.2 0.6
v -0.3 0.2 -0.3
v -0.3 0.2 -0.4
v -0.3 0.2 -0.5
v -0.3 0.2 -0.6
v -0.3 0.2 -1.1
v -0.3 0.3 1.3
v -0.3 0.3 0.9
v -0.3 0.3 0.6
v -0.3 0.3 -0.3
v -0.3 0.3 -0.6
v -0.3 0.3 -1.1
v -0.3 0.4 -1.1
v -0.3 0.5 1.3
v -0.3 0.5 -1.1
v -0.3 0.6 1.3
v -0.3 0.6 -1.1
v -0.3 0.6 -1.2
v -0.3 0.6 -1.3
v -0.3 0.7 1.3
v -0.3 0.7 -1.1
v -0.3 0.7 -1.2
v -0.3 0.7 -1.3
v -0.3 1.2 1.3
v -0.3 1.2 -1.1
v -0.2 0.2 -1.3
v -0.2 0.2 -1.4
v -0.2 0.3 -1.3
v -0.2 0.3 -1.4
v -0.1 0.5 -1.2
v -0.1 0.5 -1.3
v -0.1 0.6 -1.2
v -0.1 0.6 -1.3
v 0.4 0.2 -1.3
v 0.4 0.2 -1.4
v 0.4 0.3 -1.3
v 0.4 0.3 -1.4
v 0.5 0 0.9
v 0.5 0 0.6
v 0.5 0 -0.3
v 0.5 0 -0.6
v 0.5 0.1 1.4
v 0.5 0.1 0.9
v 0.5 0.1 0.8
v 0.5 0.1 0.7
v 0.5 0.1 0.6
v 0.5 0.1 -0.3
v 0.5 0.1 -0.4
v 0.5 0.1 -0.5
v 0.5 0.1 -0.6
v 0.5 0.1 -1.3
v 0.5 0.2 1.4
v 0.5 0.2 0.9
v 0.5 0.2 0.8
v 0.5 0.2 0.7
v 0.5 0.2 0.6
v 0.5 0.2 0.5
v 0.5 0.2 0
v 0.5 0.2 -0.3
v 0.5 0.2 -0.4
v 0.5 0.2 -0.5
v 0.5 0.2 -0.6
v 0.5 0.2 -0.7
v 0.5 0.2 -1.1
v 0.5 0.2 -1.3
v 0.5 0.3 1.4
v 0.5 0.3 0.9
v 0.5 0.3 0.6
v 0.5 0.3 0.5
v 0.5 0.3 0
v 0.5 0.3 -0.3
v 0.5 0.3 -0.6
v 0.5 0.3 -0.7
v 0.5 0.3 -1.1
v 0.5 0.3 -1.3
v 0.5 0.5 1.4
v 0.5 0.5 0.5
v 0.5 0.5 0
v 0.5 0.5 -0.5
v 0.5 0.5 -0.7
v 0.5 0.5 -1.1
v 0.5 0.5 -1.3
v 0.5 0.6 1.4
v 0.5 0.6 0.5
v 0.5 0.6 0
v 0.5 0.6 -0.3
v 0.5 0.7 1.3
v 0.5 0.7 0.5
v 0.5 0.7 0
v 0.5 0.7 -0.3
v 0.5 0.7 -0.5
v 0.5 0.7 -0.7
v 0.5 0.7 -1.2
v 0.5 0.7 -1.3
v 0.5 1.1 -1.1
v 0.5 1.1 -1.2
v 0.5 1.2 1.3
v 0.5 1.2 -1.1
v 0.5 1.2 -1.2
v 0.5 1.3 1.4
v 0.5 1.3 -1.2
v 0.6 1.1 -1.1
v 0.6 1.1 -1.3
v 0.6 1.2 -1.1
v 0.6 1.2 -1.3
v -0.4 0.1 1.4
v -0.4 0.2 1.4
v -0.4 0.3 1.4
v -0.4 0.5 1.4
v -0.4 0.6 1.4
v -0.4 1.3 1.4
v -0.3 0.7 1.4
v -0.3 1.2 1.4
v -0.1 0.2 1.4
v -0.1 0.3 1.4
v 0.2 0.2 1.4
v 0.2 0.3 1.4
v 0.4 0.7 1.4
v 0.4 1.2 1.4
v 0.5 0.1 1.4
v 0.5 0.2 1.4
v 0.5 0.3 1.4
v 0.5 0.5 1.4
v 0.5 0.6 1.4
v 0.5 1.3 1.4
v -0.4 0 0.9
v -0.4 0.1 0.9
v -0.3 0 0.9
v -0.3 0.1 0.9
v 0.4 0 0.9
v 0.4 0.1 0.9
v 0.5 0 0.9
v 0.5 0.1 0.9
v -0.4 0 -0.3
v -0.4 0.1 -0.3
v -0.3 0 -0.3
v -0.3 0.1 -0.3
v 0.4 0 -0.3
v 0.4 0.1 -0.3
v 0.5 0 -0.3
v 0.5 0.1 -0.3
v -0.5 1.1 -1.1
v -0.5 1.2 -1.1
v -0.4 1.1 -1.1
v -0.4 1.2 -1.1
v -0.3 0.1 -1.1
v -0.3 0.2 -1.1
v -0.3 0.3 -1.1
v -0.3 0.4 -1.1
v -0.3 0.5 -1.1
v -0.3 0.6 -1.1
v -0.3 0.7 -1.1
v -0.3 1.2 -1.1
v -0.2 0.3 -1.1
v -0.2 0.4 -1.1
v 0.3 0.3 -1.1
v 0.3 0.4 -1.1
v 0.4 0.1 -1.1
v 0.4 0.2 -1.1
v 0.4 0.3 -1.1
v 0.4 0.4 -1.1
v 0.4 1.2 -1.1
v 0.5 1.1 -1.1
v 0.5 1.2 -1.1
v 0.6 1.1 -1.1
v 0.6 1.2 -1.1
v -0.3 0.1 1.3
v -0.3 0.2 1.3
v -0.3 0.3 1.3
v -0.3 0.5 1.3
v -0.3 0.6 1.3
v -0.3 0.7 1.3
v -0.3 1.2 1.3
v -0.1 0.2 1.3
v -0.1 0.3 1.3
v 0.2 0.2 1.3
v 0.2 0.3 1.3
v 0.4 0.1 1.3
v 0.4 0.2 1.3
v 0.4 0.3 1.3
v 0.4 0.5 1.3
v 0.4 0.6 1.3
v 0.4 0.7 1.3
v 0.4 1.2 1.3
v -0.4 0 0.6
v -0.4 0.1 0.6
v -0.3 0 0.6
v -0.3 0.1 0.6
v 0.4 0 0.6
v 0.4 0.1 0.6
v 0.5 0 0.6
v 0.5 0.1 0.6
v -0.4 0 -0.6
v -0.4 0.1 -0.6
v -0.3 0 -0.6
v -0.3 0.1 -0.6
v 0.4 0 -0.6
v 0.4 0.1 -0.6
v 0.5 0 -0.6
v 0.5 0.1 -0.6
v -0.4 0.7 -1.2
v -0.4 1.1 -1.2
v -0.4 1.2 -1.2
v -0.4 1.3 -1.2
v -0.3 0.6 -1.2
v -0.3 0.7 -1.2
v -0.3 1.2 -1.2
v -0.1 0.5 -1.2
v -0.1 0.6 -1.2
v 0.2 0.5 -1.2
v 0.2 0.6 -1.2
v 0.4 0.6 -1.2
v 0.4 0.7 -1.2
v 0.4 1.2 -1.2
v 0.5 0.7 -1.2
v 0.5 1.1 -1.2
v 0.5 1.2 -1.2
v 0.5 1.3 -1.2
v -0.5 1.1 -1.3
v -0.5 1.2 -1.3
v -0.4 0.1 -1.3
v -0.4 0.2 -1.3
v -0.4 0.3 -1.3
v -0.4 0.5 -1.3
v -0.4 0.7 -1.3
v -0.4 1.1 -1.3
v -0.4 1.2 -1.3
v -0.3 0.2 -1.3
v -0.3 0.3 -1.3
v -0.3 0.6 -1.3
v -0.3 0.7 -1.3
v -0.2 0.2 -1.3
v -0.2 0.3 -1.3
v -0.1 0.5 -1.3
v -0.1 0.6 -1.3
v 0.2 0.5 -1.3
v 0.2 0.6 -1.3
v 0.3 0.2 -1.3
v 0.3 0.3 -1.3
v 0.4 0.2 -1.3
v 0.4 0.3 -1.3
v 0.4 0.6 -1.3
v 0.4 0.7 -1.3
v 0.5 0.1 -1.3
v 0.5 0.2 -1.3
v 0.5 0.3 -1.3
v 0.5 0.5 -1.3
v 0.5 0.7 -1.3
v 0.5 1.1 -1.3
v 0.5 1.2 -1.3
v 0.6 1.1 -1.3
v 0.6 1.2 -1.3
v -0.3 0.2 -1.4
v -0.3 0.3 -1.4
v -0.2 0.2 -1.4
v -0.2 0.3 -1.4
v 0.3 0.2 -1.4
v 0.3 0.3 -1.4
v 0.4 0.2 -1.4
v 0.4 0.3 -1.4
v -0.4 0 0.9
v -0.3 0 0.9
v 0.4 0 0.9
v 0.5 0 0.9
v -0.4 0 0.6
v -0.3 0 0.6
v 0.4 0 0.6
v 0.5 0 0.6
v -0.4 0 -0.3
v -0.3 0 -0.3
v 0.4 0 -0.3
v 0.5 0 -0.3
v -0.4 0 -0.6
v -0.3 0 -0.6
v 0.4 0 -0.6
v 0.5 0 -0.6
v -0.4 0.1 1.4
v 0.5 0.1 1.4
v -0.3 0.1 1.3
v 0.4 0.1 1.3
v -0.4 0.1 0.9
v -0.3 0.1 0.9
v 0.4 0.1 0.9
v 0.5 0.1 0.9
v -0.4 0.1 0.6
v -0.3 0.1 0.6
v 0.4 0.1 0.6
v 0.5 0.1 0.6
v -0.4 0.1 -0.3
v -0.3 0.1 -0.3
v 0.4 0.1 -0.3
v 0.5 0.1 -0.3
v -0.4 0.1 -0.6
v -0.3 0.1 -0.6
v 0.4 0.1 -0.6
v 0.5 0.1 -0.6
v -0.3 0.1 -1.1
v 0.4 0.1 -1.1
v -0.4 0.1 -1.3
v 0.5 0.1 -1.3
v -0.3 0.2 -1.3
v -0.2 0.2 -1.3
v 0.3 0.2 -1.3
v 0.4 0.2 -1.3
v -0.3 0.2 -1.4
v -0.2 0.2 -1.4
v 0.3 0.2 -1.4
v 0.4 0.2 -1.4
v -0.5 1.1 -1.1
v -0.4 1.1 -1.1
v 0.5 1.1 -1.1
v 0.6 1.1 -1.1
v -0.4 1.1 -1.2
v 0.5 1.1 -1.2
v -0.5 1.1 -1.3
v -0.4 1.1 -1.3
v 0.5 1.1 -1.3
v 0.6 1.1 -1.3
v -0.3 1.2 1.3
v 0.4 1.2 1.3
v -0.3 1.2 -1.1
v 0.4 1.2 -1.1
v -0.3 0.3 -1.3
v -0.2 0.3 -1.3
v 0.3 0.3 -1.3
v 0.4 0.3 -1.3
v -0.3 0.3 -1.4
v -0.2 0.3 -1.4
v 0.3 0.3 -1.4
v 0.4 0.3 -1.4
v -0.1 0.5 -1.2
v 0.2 0.5 -1.2
v -0.1 0.5 -1.3
v 0.2 0.5 -1.3
v -0.3 0.6 -1.2
v -0.1 0.6 -1.2
v 0.2 0.6 -1.2
v 0.4 0.6 -1.2
v -0.3 0.6 -1.3
v -0.1 0.6 -1.3
v 0.2 0.6 -1.3
v 0.4 0.6 -1.3
v -0.4 0.7 -1.2
v -0.3 0.7 -1.2
v 0.4 0.7 -1.2
v 0.5 0.7 -1.2
v -0.4 0.7 -1.3
v -0.3 0.7 -1.3
v 0.4 0.7 -1.3
v 0.5 0.7 -1.3
v -0.5 1.2 -1.1
v -0.4 1.2 -1.1
v 0.5 1.2 -1.1
v 0.6 1.2 -1.1
v -0.4 1.2 -1.2
v 0.5 1.2 -1.2
v -0.5 1.2 -1.3
v -0.4 1.2 -1.3
v 0.5 1.2 -1.3
v 0.6 1.2 -1.3
v -0.4 1.3 1.4
v 0.5 1.3 1.4
v -0.4 1.3 -1.2
v 0.5 1.3 -1.2

# faces
f 3/3/1 2/3/1 1/3/1
f 4/3/1 2/3/1 3/3/1
f 10/3/1 6/3/1 5/3/1
f 11/3/1 6/3/1 10/3/1
f 12/3/1 6/3/1 11/3/1
f 13/3/1 6/3/1 12/3/1
f 14/3/1 8/3/1 7/3/1
f 15/3/1 8/3/1 14/3/1
f 16/3/1 8/3/1 15/3/1
f 17/3/1 8/3/1 16/3/1
f 19/4/1 10/4/1 9/4/1
f 20/3/1 11/3/1 10/3/1
f 20/4/1 10/4/1 19/4/1
f 21/4/1 12/4/1 11/4/1
f 21/3/1 11/3/1 20/3/1
f 22/3/1 13/3/1 12/3/1
f 22/4/1 12/4/1 21/4/1
f 23/4/1 14/4/1 13/4/1
f 23/3/1 13/3/1 22/3/1
f 24/3/1 15/3/1 14/3/1
f 24/4/1 14/4/1 23/4/1
f 25/4/1 16/4/1 15/4/1
f 25/3/1 15/3/1 24/3/1
f 26/3/1 17/3/1 16/3/1
f 26/4/1 16/4/1 25/4/1
f 27/4/1 18/4/1 17/4/1
f 27/3/1 17/3/1 26/3/1
f 28/4/1 18/4/1 27/4/1
f 29/6/1 20/6/1 19/6/1
f 30/3/1 21/3/1 20/3/1
f 30/6/1 20/6/1 29/6/1
f 30/3/1 22/3/1 21/3/1
f 30/3/1 23/3/1 22/3/1
f 31/6/1 24/6/1 23/6/1
f 31/3/1 23/3/1 30/3/1
f 32/3/1 26/3/1 25/3/1
f 32/6/1 24/6/1 31/6/1
f 32/3/1 27/3/1 26/3/1
f 32/3/1 25/3/1 24/3/1
f 33/6/1 28/6/1 27/6/1
f 33/3/1 27/3/1 32/3/1
f 34/6/1 28/6/1 33/6/1
f 35/2/1 31/2/1 30/2/1
f 35/2/1 32/2/1 31/2/1
f 35/2/1 34/2/1 33/2/1
f 35/2/1 33/2/1 32/2/1
f 35/2/1 30/2/1 29/2/1
f 36/2/1 34/2/1 35/2/1
f 37/2/1 34/2/1 36/2/1
f 38/5/1 36/5/1 35/5/1
f 39/1/1 37/1/1 36/1/1
f 39/5/1 36/5/1 38/5/1
f 40/1/1 39/1/1 38/1/1
f 41/1/1 37/1/1 39/1/1
f 41/1/1 39/1/1 40/1/1
f 42/1/1 37/1/1 41/1/1
f 43/1/1 37/1/1 42/1/1
f 44/3/1 41/3/1 40/3/1
f 44/1/1 42/1/1 41/1/1
f 45/1/1 42/1/1 44/1/1
f 46/1/1 40/1/1 38/1/1
f 46/3/1 44/3/1 40/3/1
f 47/3/1 44/3/1 46/3/1
f 49/1/1 46/1/1 38/1/1
f 49/1/1 48/1/1 47/1/1
f 49/1/1 47/1/1 46/1/1
f 50/1/1 48/1/1 49/1/1
f 53/8/1 52/8/1 51/8/1
f 54/8/1 52/8/1 53/8/1
f 57/1/1 56/1/1 55/1/1
f 58/1/1 56/1/1 57/1/1
f 61/8/1 60/8/1 59/8/1
f 62/8/1 60/8/1 61/8/1
f 68/3/1 64/3/1 63/3/1
f 69/3/1 64/3/1 68/3/1
f 70/3/1 64/3/1 69/3/1
f 71/3/1 64/3/1 70/3/1
f 72/3/1 66/3/1 65/3/1
f 73/3/1 66/3/1 72/3/1
f 74/3/1 66/3/1 73/3/1
f 75/3/1 66/3/1 74/3/1
f 77/4/1 68/4/1 67/4/1
f 78/3/1 69/3/1 68/3/1
f 78/4/1 68/4/1 77/4/1
f 79/4/1 70/4/1 69/4/1
f 79/3/1 69/3/1 78/3/1
f 80/3/1 71/3/1 70/3/1
f 80/4/1 70/4/1 79/4/1
f 81/4/1 72/4/1 71/4/1
f 81/3/1 71/3/1 80/3/1
f 82/4/1 72/4/1 81/4/1
f 83/4/1 72/4/1 82/4/1
f 84/3/1 73/3/1 72/3/1
f 84/4/1 72/4/1 83/4/1
f 85/4/1 74/4/1 73/4/1
f 85/3/1 73/3/1 84/3/1
f 86/3/1 75/3/1 74/3/1
f 86/4/1 74/4/1 85/4/1
f 87/4/1 76/4/1 75/4/1
f 87/3/1 75/3/1 86/3/1
f 88/4/1 76/4/1 87/4/1
f 89/4/1 76/4/1 88/4/1
f 90/6/1 78/6/1 77/6/1
f 91/3/1 79/3/1 78/3/1
f 91/6/1 78/6/1 90/6/1
f 91/3/1 80/3/1 79/3/1
f 91/3/1 81/3/1 80/3/1
f 92/6/1 82/6/1 81/6/1
f 92/3/1 81/3/1 91/3/1
f 93/3/1 83/3/1 82/3/1
f 93/6/1 82/6/1 92/6/1
f 94/6/1 84/6/1 83/6/1
f 94/3/1 83/3/1 93/3/1
f 95/3/1 86/3/1 85/3/1
f 95/6/1 84/6/1 94/6/1
f 95/3/1 85/3/1 84/3/1
f 95/3/1 87/3/1 86/3/1
f 96/6/1 88/6/1 87/6/1
f 96/3/1 87/3/1 95/3/1
f 97/3/1 89/3/1 88/3/1
f 97/6/1 88/6/1 96/6/1
f 98/3/1 89/3/1 97/3/1
f 99/3/1 98/3/1 97/3/1
f 100/2/1 92/2/1 91/2/1
f 100/2/1 93/2/1 92/2/1
f 100/2/1 91/2/1 90/2/1
f 101/3/1 94/3/1 93/3/1
f 101/2/1 93/2/1 100/2/1
f 102/2/1 96/2/1 95/2/1
f 102/3/1 94/3/1 101/3/1
f 102/2/1 95/2/1 94/2/1
f 102/2/1 97/2/1 96/2/1
f 103/2/1 97/2/1 102/2/1
f 104/3/1 99/3/1 97/3/1
f 104/2/1 97/2/1 103/2/1
f 105/5/1 101/5/1 100/5/1
f 106/3/1 102/3/1 101/3/1
f 106/5/1 101/5/1 105/5/1
f 107/5/1 103/5/1 102/5/1
f 107/3/1 102/3/1 106/3/1
f 108/5/1 103/5/1 107/5/1
f 111/1/1 106/1/1 105/1/1
f 112/3/1 107/3/1 106/3/1
f 112/1/1 106/1/1 111/1/1
f 113/1/1 108/1/1 107/1/1
f 113/3/1 107/3/1 112/3/1
f 114/5/1 103/5/1 108/5/1
f 114/1/1 108/1/1 113/1/1
f 115/1/1 104/1/1 103/1/1
f 115/5/1 103/5/1 114/5/1
f 116/3/1 99/3/1 104/3/1
f 116/1/1 104/1/1 115/1/1
f 117/1/1 110/1/1 109/1/1
f 118/1/1 110/1/1 117/1/1
f 119/3/1 113/3/1 112/3/1
f 119/3/1 115/3/1 114/3/1
f 119/3/1 112/3/1 111/3/1
f 119/3/1 116/3/1 115/3/1
f 119/3/1 114/3/1 113/3/1
f 120/3/1 99/3/1 116/3/1
f 120/3/1 116/3/1 119/3/1
f 123/3/1 122/3/1 121/3/1
f 124/3/1 122/3/1 123/3/1
f 125/3/2 126/3/2 127/3/2
f 127/3/2 126/3/2 128/3/2
f 129/3/2 130/3/2 134/3/2
f 134/3/2 130/3/2 135/3/2
f 135/3/2 130/3/2 136/3/2
f 136/3/2 130/3/2 137/3/2
f 131/3/2 132/3/2 138/3/2
f 138/3/2 132/3/2 139/3/2
f 139/3/2 132/3/2 140/3/2
f 140/3/2 132/3/2 141/3/2
f 133/4/2 134/4/2 143/4/2
f 134/3/2 135/3/2 144/3/2
f 143/4/2 134/4/2 144/4/2
f 135/4/2 136/4/2 145/4/2
f 144/3/2 135/3/2 145/3/2
f 136/3/2 137/3/2 146/3/2
f 145/4/2 136/4/2 146/4/2
f 137/4/2 138/4/2 147/4/2
f 146/3/2 137/3/2 147/3/2
f 138/3/2 139/3/2 148/3/2
f 147/4/2 138/4/2 148/4/2
f 139/4/2 140/4/2 149/4/2
f 148/3/2 139/3/2 149/3/2
f 140/3/2 141/3/2 150/3/2
f 149/4/2 140/4/2 150/4/2
f 141/4/2 142/4/2 151/4/2
f 150/3/2 141/3/2 151/3/2
f 151/4/2 142/4/2 152/4/2
f 143/6/2 144/6/2 153/6/2
f 144/3/2 145/3/2 154/3/2
f 153/6/2 144/6/2 154/6/2
f 145/3/2 146/3/2 154/3/2
f 146/3/2 147/3/2 154/3/2
f 147/6/2 148/6/2 155/6/2
f 154/3/2 147/3/2 155/3/2
f 149/3/2 150/3/2 156/3/2
f 155/6/2 148/6/2 156/6/2
f 150/3/2 151/3/2 156/3/2
f 148/3/2 149/3/2 156/3/2
f 151/6/2 152/6/2 157/6/2
f 156/3/2 151/3/2 157/3/2
f 157/6/2 152/6/2 158/6/2
f 154/2/2 155/2/2 159/2/2
f 155/2/2 156/2/2 159/2/2
f 157/2/2 158/2/2 159/2/2
f 156/2/2 157/2/2 159/2/2
f 153/2/2 154/2/2 159/2/2
f 153/2/2 159/2/2 160/2/2
f 160/2/2 159/2/2 161/2/2
f 160/5/2 161/5/2 162/5/2
f 162/5/2 161/5/2 163/5/2
f 162/1/2 163/1/2 166/1/2
f 166/1/2 163/1/2 167/1/2
f 164/1/2 165/1/2 168/1/2
f 168/1/2 165/1/2 169/1/2
f 166/3/2 167/3/2 170/3/2
f 170/3/2 167/3/2 171/3/2
f 172/8/2 173/8/2 174/8/2
f 174/8/2 173/8/2 175/8/2
f 176/1/2 177/1/2 178/1/2
f 178/1/2 177/1/2 179/1/2
f 180/8/2 181/8/2 182/8/2
f 182/8/2 181/8/2 183/8/2
f 184/3/2 185/3/2 189/3/2
f 189/3/2 185/3/2 190/3/2
f 190/3/2 185/3/2 191/3/2
f 191/3/2 185/3/2 192/3/2
f 186/3/2 187/3/2 193/3/2
f 193/3/2 187/3/2 194/3/2
f 194/3/2 187/3/2 195/3/2
f 195/3/2 187/3/2 196/3/2
f 188/4/2 189/4/2 198/4/2
f 189/3/2 190/3/2 199/3/2
f 198/4/2 189/4/2 199/4/2
f 190/4/2 191/4/2 200/4/2
f 199/3/2 190/3/2 200/3/2
f 191/3/2 192/3/2 201/3/2
f 200/4/2 191/4/2 201/4/2
f 192/4/2 193/4/2 202/4/2
f 201/3/2 192/3/2 202/3/2
f 202/4/2 193/4/2 203/4/2
f 203/4/2 193/4/2 204/4/2
f 193/3/2 194/3/2 205/3/2
f 204/4/2 193/4/2 205/4/2
f 194/4/2 195/4/2 206/4/2
f 205/3/2 194/3/2 206/3/2
f 195/3/2 196/3/2 207/3/2
f 206/4/2 195/4/2 207/4/2
f 196/4/2 197/4/2 208/4/2
f 207/3/2 196/3/2 208/3/2
f 208/4/2 197/4/2 209/4/2
f 209/4/2 197/4/2 210/4/2
f 210/4/2 197/4/2 211/4/2
f 198/6/2 199/6/2 212/6/2
f 199/3/2 200/3/2 213/3/2
f 212/6/2 199/6/2 213/6/2
f 200/3/2 201/3/2 213/3/2
f 201/3/2 202/3/2 213/3/2
f 202/6/2 203/6/2 214/6/2
f 213/3/2 202/3/2 214/3/2
f 203/3/2 204/3/2 215/3/2
f 214/6/2 203/6/2 215/6/2
f 204/6/2 205/6/2 216/6/2
f 215/3/2 204/3/2 216/3/2
f 206/3/2 207/3/2 217/3/2
f 216/6/2 205/6/2 217/6/2
f 205/3/2 206/3/2 217/3/2
f 207/3/2 208/3/2 217/3/2
f 208/6/2 209/6/2 218/6/2
f 217/3/2 208/3/2 218/3/2
f 209/3/2 210/3/2 219/3/2
f 218/6/2 209/6/2 219/6/2
f 210/6/2 211/6/2 220/6/2
f 219/3/2 210/3/2 220/3/2
f 220/6/2 211/6/2 221/6/2
f 213/2/2 214/2/2 222/2/2
f 214/2/2 215/2/2 222/2/2
f 212/2/2 213/2/2 222/2/2
f 215/3/2 216/3/2 223/3/2
f 222/2/2 215/2/2 223/2/2
f 218/2/2 219/2/2 224/2/2
f 223/3/2 216/3/2 224/3/2
f 216/2/2 217/2/2 224/2/2
f 217/2/2 218/2/2 224/2/2
f 224/2/2 219/2/2 225/2/2
f 219/3/2 220/3/2 226/3/2
f 225/2/2 219/2/2 226/2/2
f 220/2/2 221/2/2 227/2/2
f 226/3/2 220/3/2 227/3/2
f 227/2/2 221/2/2 228/2/2
f 222/5/2 223/5/2 229/5/2
f 223/3/2 224/3/2 230/3/2
f 229/5/2 223/5/2 230/5/2
f 224/5/2 225/5/2 231/5/2
f 230/3/2 224/3/2 231/3/2
f 231/5/2 225/5/2 232/5/2
f 229/1/2 230/1/2 233/1/2
f 230/3/2 231/3/2 234/3/2
f 233/1/2 230/1/2 234/1/2
f 231/1/2 232/1/2 235/1/2
f 234/3/2 231/3/2 235/3/2
f 232/5/2 225/5/2 236/5/2
f 235/1/2 232/1/2 236/1/2
f 225/1/2 226/1/2 237/1/2
f 236/5/2 225/5/2 237/5/2
f 226/3/2 227/3/2 238/3/2
f 237/1/2 226/1/2 238/1/2
f 227/1/2 228/1/2 239/1/2
f 239/1/2 228/1/2 240/1/2
f 235/3/2 236/3/2 241/3/2
f 234/3/2 235/3/2 241/3/2
f 227/1/2 239/1/2 241/1/2
f 237/3/2 238/3/2 241/3/2
f 233/3/2 234/3/2 241/3/2
f 236/3/2 237/3/2 241/3/2
f 238/3/2 227/3/2 241/3/2
f 241/1/2 239/1/2 242/1/2
f 229/1/2 233/1/2 243/1/2
f 233/3/2 241/3/2 243/3/2
f 243/3/2 241/3/2 244/3/2
f 229/1/2 243/1/2 246/1/2
f 244/1/2 245/1/2 246/1/2
f 243/1/2 244/1/2 246/1/2
f 246/1/2 245/1/2 247/1/2
f 248/3/2 249/3/2 250/3/2
f 250/3/2 249/3/2 251/3/2
f 258/1/3 257/1/3 256/1/3
f 259/1/3 257/1/3 258/1/3
f 260/4/3 253/4/3 252/4/3
f 260/6/3 254/6/3 253/6/3
f 261/2/3 255/2/3 254/2/3
f 261/6/3 254/6/3 260/6/3
f 262/4/3 260/4/3 252/4/3
f 262/7/3 261/7/3 260/7/3
f 263/2/3 255/2/3 261/2/3
f 263/7/3 261/7/3 262/7/3
f 264/3/3 259/3/3 258/3/3
f 264/1/3 258/1/3 256/1/3
f 265/1/3 257/1/3 259/1/3
f 265/3/3 259/3/3 264/3/3
f 266/4/3 262/4/3 252/4/3
f 267/6/3 263/6/3 262/6/3
f 267/4/3 262/4/3 266/4/3
f 268/2/3 255/2/3 263/2/3
f 268/6/3 263/6/3 267/6/3
f 269/5/3 256/5/3 255/5/3
f 269/2/3 255/2/3 268/2/3
f 270/1/3 264/1/3 256/1/3
f 270/5/3 256/5/3 269/5/3
f 270/1/3 265/1/3 264/1/3
f 271/1/3 257/1/3 265/1/3
f 271/1/3 265/1/3 270/1/3
f 274/3/3 273/3/3 272/3/3
f 275/3/3 273/3/3 274/3/3
f 278/3/3 277/3/3 276/3/3
f 279/3/3 277/3/3 278/3/3
f 282/3/3 281/3/3 280/3/3
f 283/3/3 281/3/3 282/3/3
f 286/3/3 285/3/3 284/3/3
f 287/3/3 285/3/3 286/3/3
f 290/3/3 289/3/3 288/3/3
f 291/3/3 289/3/3 290/3/3
f 300/6/3 294/6/3 293/6/3
f 300/2/3 295/2/3 294/2/3
f 301/3/3 299/3/3 298/3/3
f 301/2/3 295/2/3 300/2/3
f 301/3/3 298/3/3 297/3/3
f 301/3/3 297/3/3 296/3/3
f 301/3/3 296/3/3 295/3/3
f 302/6/3 300/6/3 293/6/3
f 302/3/3 301/3/3 300/3/3
f 303/3/3 299/3/3 301/3/3
f 303/3/3 301/3/3 302/3/3
f 304/4/3 293/4/3 292/4/3
f 305/6/3 302/6/3 293/6/3
f 305/4/3 293/4/3 304/4/3
f 306/2/3 303/2/3 302/2/3
f 306/6/3 302/6/3 305/6/3
f 307/3/3 299/3/3 303/3/3
f 307/2/3 303/2/3 306/2/3
f 308/3/3 299/3/3 307/3/3
f 311/3/3 310/3/3 309/3/3
f 312/3/3 310/3/3 311/3/3
f 313/4/4 314/4/4 320/4/4
f 314/6/4 315/6/4 320/6/4
f 315/2/4 316/2/4 321/2/4
f 320/6/4 315/6/4 321/6/4
f 313/4/4 320/4/4 322/4/4
f 320/7/4 321/7/4 322/7/4
f 321/2/4 316/2/4 323/2/4
f 322/7/4 321/7/4 323/7/4
f 313/4/4 322/4/4 324/4/4
f 322/6/4 323/6/4 325/6/4
f 324/4/4 322/4/4 325/4/4
f 323/2/4 316/2/4 326/2/4
f 325/6/4 323/6/4 326/6/4
f 316/5/4 317/5/4 327/5/4
f 326/2/4 316/2/4 327/2/4
f 317/1/4 318/1/4 328/1/4
f 327/5/4 317/5/4 328/5/4
f 318/3/4 319/3/4 329/3/4
f 328/1/4 318/1/4 329/1/4
f 329/3/4 319/3/4 330/3/4
f 331/3/4 332/3/4 333/3/4
f 333/3/4 332/3/4 334/3/4
f 335/3/4 336/3/4 337/3/4
f 337/3/4 336/3/4 338/3/4
f 339/3/4 340/3/4 341/3/4
f 341/3/4 340/3/4 342/3/4
f 343/3/4 344/3/4 345/3/4
f 345/3/4 344/3/4 346/3/4
f 347/1/4 348/1/4 352/1/4
f 349/1/4 350/1/4 352/1/4
f 348/1/4 349/1/4 352/1/4
f 352/1/4 350/1/4 353/1/4
f 351/3/4 352/3/4 355/3/4
f 352/3/4 353/3/4 355/3/4
f 354/3/4 355/3/4 356/3/4
f 355/3/4 353/3/4 357/3/4
f 356/3/4 355/3/4 357/3/4
f 357/3/4 353/3/4 358/3/4
f 358/3/4 353/3/4 359/3/4
f 353/1/4 350/1/4 360/1/4
f 359/3/4 353/3/4 360/3/4
f 359/1/4 360/1/4 361/1/4
f 361/1/4 360/1/4 362/1/4
f 360/1/4 350/1/4 363/1/4
f 362/1/4 360/1/4 363/1/4
f 363/1/4 350/1/4 364/1/4
f 365/3/4 366/3/4 372/3/4
f 372/3/4 366/3/4 373/3/4
f 367/4/4 368/4/4 374/4/4
f 368/6/4 369/6/4 374/6/4
f 369/2/4 370/2/4 375/2/4
f 374/6/4 369/6/4 375/6/4
f 370/1/4 371/1/4 376/1/4
f 376/1/4 371/1/4 377/1/4
f 367/4/4 374/4/4 378/4/4
f 375/2/4 370/2/4 379/2/4
f 370/1/4 376/1/4 380/1/4
f 379/2/4 370/2/4 380/2/4
f 380/1/4 376/1/4 381/1/4
f 379/2/4 380/2/4 382/2/4
f 367/4/4 378/4/4 384/4/4
f 378/6/4 379/6/4 384/6/4
f 379/2/4 382/2/4 385/2/4
f 384/6/4 379/6/4 385/6/4
f 367/4/4 384/4/4 386/4/4
f 385/2/4 382/2/4 387/2/4
f 382/1/4 383/1/4 388/1/4
f 367/4/4 386/4/4 390/4/4
f 386/6/4 387/6/4 391/6/4
f 390/4/4 386/4/4 391/4/4
f 387/2/4 382/2/4 392/2/4
f 391/6/4 387/6/4 392/6/4
f 388/1/4 389/1/4 393/1/4
f 392/2/4 382/2/4 393/2/4
f 382/1/4 388/1/4 393/1/4
f 393/1/4 389/1/4 394/1/4
f 395/3/4 396/3/4 397/3/4
f 397/3/4 396/3/4 398/3/4
f 399/8/4 400/8/4 401/8/4
f 401/8/4 400/8/4 402/8/4
f 403/8/4 404/8/4 405/8/4
f 405/8/4 404/8/4 406/8/4
f 411/3/5 408/3/5 407/3/5
f 412/3/5 408/3/5 411/3/5
f 413/3/5 410/3/5 409/3/5
f 414/3/5 410/3/5 413/3/5
f 419/3/5 416/3/5 415/3/5
f 420/3/5 416/3/5 419/3/5
f 421/3/5 418/3/5 417/3/5
f 422/3/5 418/3/5 421/3/5
f 425/4/5 424/4/5 423/4/5
f 426/4/5 424/4/5 425/4/5
f 427/4/5 425/4/5 423/4/5
f 428/4/5 425/4/5 427/4/5
f 429/4/5 424/4/5 426/4/5
f 430/4/5 424/4/5 429/4/5
f 435/4/5 432/4/5 431/4/5
f 436/4/5 432/4/5 435/4/5
f 437/4/5 434/4/5 433/4/5
f 438/4/5 434/4/5 437/4/5
f 443/4/5 440/4/5 439/4/5
f 444/4/5 442/4/5 441/4/5
f 445/4/5 443/4/5 439/4/5
f 445/4/5 444/4/5 443/4/5
f 446/4/5 442/4/5 444/4/5
f 446/4/5 444/4/5 445/4/5
f 451/8/5 448/8/5 447/8/5
f 452/8/5 448/8/5 451/8/5
f 453/8/5 450/8/5 449/8/5
f 454/8/5 450/8/5 453/8/5
f 459/3/5 456/3/5 455/3/5
f 460/3/5 458/3/5 457/3/5
f 461/3/5 459/3/5 455/3/5
f 462/3/5 459/3/5 461/3/5
f 463/3/5 458/3/5 460/3/5
f 464/3/5 458/3/5 463/3/5
f 467/1/5 466/1/5 465/1/5
f 468/1/5 466/1/5 467/1/5
f 469/8/6 470/8/6 473/8/6
f 473/8/6 470/8/6 474/8/6
f 471/8/6 472/8/6 475/8/6
f 475/8/6 472/8/6 476/8/6
f 477/2/6 478/2/6 479/2/6
f 479/2/6 478/2/6 480/2/6
f 481/1/6 482/1/6 485/1/6
f 485/1/6 482/1/6 486/1/6
f 483/1/6 484/1/6 487/1/6
f 487/1/6 484/1/6 488/1/6
f 489/1/6 490/1/6 493/1/6
f 493/1/6 490/1/6 494/1/6
f 491/1/6 492/1/6 495/1/6
f 495/1/6 492/1/6 496/1/6
f 497/3/6 498/3/6 501/3/6
f 499/3/6 500/3/6 502/3/6
f 497/3/6 501/3/6 503/3/6
f 503/3/6 501/3/6 504/3/6
f 502/3/6 500/3/6 505/3/6
f 505/3/6 500/3/6 506/3/6
f 507/1/6 508/1/6 509/1/6
f 509/1/6 508/1/6 510/1/6
